<svg width="31" height="31" viewBox="0 0 31 31" fill="none" xmlns="http://www.w3.org/2000/svg">
<path d="M26.1709 4.71304C23.2644 1.89024 19.3637 0.324314 15.312 0.354007C11.2603 0.383487 7.38327 2.0062 4.51761 4.8712C1.65261 7.73642 0.0298867 11.6134 0.000414764 15.6656C-0.0292808 19.7174 1.53665 23.6181 4.35945 26.5245C7.26599 29.3473 11.1666 30.9133 15.2183 30.8836C19.2701 30.8541 23.1471 29.2314 26.0128 26.3664C28.8778 23.5012 30.5005 19.6242 30.53 15.5719C30.5597 11.5202 28.9937 7.61947 26.1709 4.71304ZM15.2652 29.2359C7.75676 29.2359 1.64809 23.1278 1.64809 15.6188C1.64809 8.10975 7.75621 2.00163 15.2652 2.00163C22.7742 2.00163 28.8824 8.10975 28.8824 15.6188C28.8824 23.1278 22.7742 29.2359 15.2652 29.2359Z" fill="url(#paint0_linear_848_424)"/>
<path d="M15.2647 3.86957C8.78642 3.86957 3.51562 9.14036 3.51562 15.6187C3.51562 22.097 8.78642 27.3678 15.2647 27.3678C21.743 27.3678 27.0138 22.097 27.0138 15.6187C27.0138 9.14036 21.743 3.86957 15.2647 3.86957ZM15.2647 25.5604C9.7818 25.5604 5.32305 21.1017 5.32305 15.6187C5.32305 10.1357 9.78174 5.677 15.2647 5.677C20.7477 5.677 25.2064 10.1357 25.2064 15.6187C25.2064 21.1017 20.7477 25.5604 15.2647 25.5604Z" fill="url(#paint1_linear_848_424)"/>
<path d="M20.8196 12.9304L17.9178 12.5086L16.6207 9.8799C16.4539 9.54206 16.1666 9.27889 15.8157 9.14244C15.4645 9.00579 15.075 9.00579 14.7238 9.14244C14.3729 9.27887 14.0856 9.54204 13.9188 9.8799L12.6217 12.5086L9.71989 12.9304C9.3474 12.9844 9.00848 13.1761 8.77007 13.4675C8.53164 13.7589 8.41114 14.129 8.43201 14.5049C8.45288 14.8808 8.61384 15.2353 8.88304 15.4984L10.9822 17.547L10.4868 20.4391H10.487C10.4231 20.8103 10.5008 21.1921 10.7046 21.5088C10.9083 21.8256 11.2234 22.0545 11.5877 22.1505C11.9518 22.2465 12.3389 22.2026 12.6722 22.0274L15.2697 20.659L17.8649 22.0231C18.1982 22.1983 18.5851 22.2422 18.9492 22.1464C19.3133 22.0504 19.6283 21.8215 19.8321 21.5049C20.0359 21.1881 20.1138 20.8066 20.0501 20.4354L19.5547 17.5433L21.6564 15.4984C21.9261 15.2355 22.0874 14.881 22.1088 14.5051C22.1301 14.1292 22.0098 13.7588 21.7716 13.4671C21.5333 13.1755 21.1946 12.9835 20.822 12.9293L20.8196 12.9304ZM18.1799 16.3618C17.8247 16.7078 17.6624 17.2064 17.7461 17.6953L18.1679 20.1398L15.973 18.986V18.9857C15.5342 18.7553 15.0102 18.7553 14.5715 18.9857L12.374 20.1379L12.7957 17.6933C12.8794 17.2049 12.7174 16.7065 12.3626 16.3607L10.5864 14.6297L13.0404 14.2747C13.5304 14.2026 13.9537 13.8942 14.1725 13.4499L15.2698 11.2272L16.367 13.4499C16.5858 13.8942 17.0091 14.2026 17.4991 14.2747L19.9531 14.6315L18.1799 16.3618Z" fill="url(#paint2_linear_848_424)"/>
<defs>
<linearGradient id="paint0_linear_848_424" x1="0" y1="0.353592" x2="31.9769" y2="1.95238" gradientUnits="userSpaceOnUse">
<stop stop-color="#E1A200"/>
<stop offset="1" stop-color="#FF5C00"/>
</linearGradient>
<linearGradient id="paint1_linear_848_424" x1="3.51562" y1="3.86957" x2="28.1272" y2="5.1001" gradientUnits="userSpaceOnUse">
<stop stop-color="#E1A200"/>
<stop offset="1" stop-color="#FF5C00"/>
</linearGradient>
<linearGradient id="paint2_linear_848_424" x1="8.42969" y1="9.03996" x2="22.7565" y2="9.78464" gradientUnits="userSpaceOnUse">
<stop stop-color="#E1A200"/>
<stop offset="1" stop-color="#FF5C00"/>
</linearGradient>
</defs>
</svg>
