<svg width="46" height="45" viewBox="0 0 46 45" fill="none" xmlns="http://www.w3.org/2000/svg">
<path d="M11.7552 20.8943H11.7326C10.8451 20.8943 10.125 21.6129 10.125 22.5019C10.125 23.3907 10.8436 24.1095 11.7326 24.1095H11.7564H34.2548H34.2774C35.1649 24.1095 35.885 23.3909 35.885 22.5019C35.885 21.6132 35.1665 20.8943 34.2774 20.8943H34.2536H11.7552Z" fill="white"/>
<path d="M24.598 11.2508V11.2282C24.598 10.3408 23.8794 9.62062 22.9904 9.62062C22.1017 9.62062 21.3828 10.3392 21.3828 11.2282V11.2521V11.2508V33.7508V33.7734C21.3828 34.6609 22.1014 35.381 22.9904 35.381C23.8791 35.381 24.598 34.6624 24.598 33.7734V33.7495V33.7508V11.2508Z" fill="white"/>
<path d="M23 0C10.592 0 0.5 10.0936 0.5 22.5C0.5 34.9064 10.5936 45 23 45C35.408 45 45.5 34.9064 45.5 22.5C45.5 10.0936 35.4064 0 23 0ZM23 3.21484C33.6714 3.21484 42.2871 11.8313 42.2871 22.5019C42.2871 33.1725 33.6722 41.789 23 41.789C12.3286 41.789 3.71291 33.1741 3.71291 22.5019C3.71291 11.8305 12.3278 3.21484 23 3.21484Z" fill="white"/>
</svg>
