<svg width="167" height="167" viewBox="0 0 167 167" fill="none" xmlns="http://www.w3.org/2000/svg">
<path d="M83.5 0C37.3662 0 0 37.3662 0 83.5C0 129.634 37.3662 167 83.5 167C129.634 167 167 129.634 167 83.5C167 37.3662 129.634 0 83.5 0ZM83.5 37.9925C96.0257 37.9925 106.253 48.2216 106.253 60.7459C106.253 73.2701 96.0254 83.4993 83.5 83.4993C70.9746 83.4993 60.7466 73.2701 60.7466 60.7459C60.7466 48.2201 70.9746 37.9925 83.5 37.9925ZM128.381 125.876C127.963 126.084 127.337 126.294 126.711 126.294C125.249 126.294 123.789 125.46 123.162 123.998C115.647 106.463 99.5749 96.0257 82.4563 96.86C66.5916 97.6943 52.6058 107.924 45.7166 123.998C44.8823 126.086 42.586 126.92 40.4979 126.086C38.4098 125.252 37.5754 122.955 38.4098 120.867C46.3427 102.08 63.2514 89.9726 82.0385 88.9284C102.705 87.8844 121.701 100.41 130.469 120.867C131.303 122.746 130.469 125.042 128.38 125.876L128.381 125.876Z" fill="#5B5B5B"/>
</svg>
