<svg width="56" height="56" viewBox="0 0 56 56" fill="none" xmlns="http://www.w3.org/2000/svg">
<circle cx="28.0468" cy="27.8649" r="27.6757" fill="url(#paint0_linear_1005_640)"/>
<path d="M28.046 13.5946C24.4636 13.5946 21.5595 16.4987 21.5595 20.0811C21.5595 23.6634 24.4636 26.5675 28.046 26.5675C31.6284 26.5675 34.5325 23.6634 34.5325 20.0811C34.5325 16.4987 31.6284 13.5946 28.046 13.5946Z" fill="white"/>
<path d="M21.1271 30.027C17.5447 30.027 14.6406 32.9311 14.6406 36.5135V38.5689C14.6406 39.8718 15.5849 40.9827 16.8707 41.1926C24.2719 42.401 31.8201 42.401 39.2214 41.1926C40.5072 40.9827 41.4514 39.8718 41.4514 38.5689V36.5135C41.4514 32.9311 38.5473 30.027 34.965 30.027H34.3753C34.0562 30.027 33.7391 30.0775 33.4357 30.1765L31.9386 30.6654C29.4093 31.4913 26.6828 31.4913 24.1534 30.6654L22.6563 30.1765C22.353 30.0775 22.0358 30.027 21.7167 30.027H21.1271Z" fill="white"/>
<defs>
<linearGradient id="paint0_linear_1005_640" x1="0.371094" y1="0.189178" x2="58.345" y2="3.08776" gradientUnits="userSpaceOnUse">
<stop stop-color="#E1A200"/>
<stop offset="1" stop-color="#FF5C00"/>
</linearGradient>
</defs>
</svg>
