<svg width="56" height="57" viewBox="0 0 56 57" fill="none" xmlns="http://www.w3.org/2000/svg">
<circle cx="28.0468" cy="28.4324" r="27.6757" fill="url(#paint0_linear_1005_629)"/>
<path d="M28.046 14.1621C24.4636 14.1621 21.5595 17.0662 21.5595 20.6486C21.5595 24.231 24.4636 27.1351 28.046 27.1351C31.6284 27.1351 34.5325 24.231 34.5325 20.6486C34.5325 17.0662 31.6284 14.1621 28.046 14.1621Z" fill="white"/>
<path d="M21.1271 30.5946C17.5447 30.5946 14.6406 33.4987 14.6406 37.0811V39.1365C14.6406 40.4394 15.5849 41.5502 16.8707 41.7602C24.2719 42.9685 31.8201 42.9685 39.2214 41.7602C40.5072 41.5502 41.4514 40.4394 41.4514 39.1365V37.0811C41.4514 33.4987 38.5473 30.5946 34.965 30.5946H34.3753C34.0562 30.5946 33.7391 30.645 33.4357 30.7441L31.9386 31.2329C29.4093 32.0589 26.6828 32.0589 24.1534 31.2329L22.6563 30.7441C22.353 30.645 22.0358 30.5946 21.7167 30.5946H21.1271Z" fill="white"/>
<defs>
<linearGradient id="paint0_linear_1005_629" x1="0.371094" y1="0.756744" x2="58.345" y2="3.65533" gradientUnits="userSpaceOnUse">
<stop stop-color="#8349FE"/>
<stop offset="1" stop-color="#370059"/>
</linearGradient>
</defs>
</svg>
