<svg width="68" height="89" viewBox="0 0 68 89" fill="none" xmlns="http://www.w3.org/2000/svg">
<path d="M64.3016 88.8943C66.2673 88.8943 67.9513 87.2096 67.9513 85.2446V42.1469C67.9513 40.1812 66.2666 38.4972 64.3016 38.4972H63.1783C62.8973 36.8125 61.3531 35.5493 59.6684 35.5493L41.9806 35.5486C42.2616 35.2676 42.542 34.9873 42.9635 34.7063C55.3171 26.5637 50.544 7.6121 35.9443 6.06766C26.3981 4.94431 18.2548 12.385 18.2548 21.6501C18.2548 26.7042 20.7819 31.4773 24.9936 34.4252C25.4144 34.7062 25.6955 35.127 26.1169 35.408H8.70878C6.88358 35.408 5.47995 36.6712 5.19885 38.3559H4.0755C2.10983 38.3559 0.425781 40.0406 0.425781 42.0056V85.2448C0.425781 87.2104 2.11048 88.8945 4.0755 88.8945H64.3018L64.3016 88.8943ZM30.4689 41.8656H37.6285H37.769V45.0944H30.6094L30.6087 41.8656H30.4689ZM32.8554 46.4989H35.3825V47.4818H32.8554V46.4989ZM66.4069 42.1467V85.2444C66.4069 86.5076 65.4241 87.4905 64.1608 87.4905H34.9614C35.3822 85.3848 37.2075 83.9805 39.1731 83.9805H59.5287C61.4944 83.9805 63.1784 82.2958 63.1784 80.3308V39.8993H64.3018C65.4251 39.8993 66.4074 40.8821 66.4074 42.1454L66.4069 42.1467ZM61.7743 39.1988V80.331C61.7743 81.5942 60.7914 82.5771 59.5282 82.5771H39.0329C37.3482 82.5771 35.6634 83.4194 34.8211 84.5427V49.0258H36.0843C36.5051 49.0258 36.7862 48.7448 36.7862 48.3239V46.6392H38.4708C38.8917 46.6392 39.1727 46.3582 39.1727 45.9374V41.4452C40.0151 40.8839 40.7169 40.0415 40.7169 38.7777C40.7169 38.0759 40.8574 37.5145 41.1378 36.9525H59.6693C60.7927 36.9525 61.7754 37.9347 61.7754 39.1986L61.7743 39.1988ZM25.8363 33.3023C22.0461 30.6349 19.6595 26.2832 19.6595 21.6505C19.6595 13.3675 26.9596 6.48894 35.804 7.47169C49.1404 8.87539 53.352 26.143 42.1214 33.5839C40.1557 34.8471 39.1735 36.8128 39.1735 38.9184C39.1735 39.7607 38.4716 40.4626 37.6293 40.4626H36.7869V23.0544L40.8582 18.9831C41.5601 18.2813 40.5772 17.2984 39.8754 18.0003L35.5232 22.3525C35.3827 22.493 35.3827 22.6335 35.3827 22.9139V40.6033H32.7152L32.7158 22.7741C32.7158 22.6336 32.5753 22.3532 32.5753 22.2127L28.2231 17.8605C27.9421 17.5795 27.5213 17.5795 27.2403 17.8605C26.9593 18.1415 26.9593 18.5624 27.2403 18.8434L31.3116 22.9146V40.3228H30.0484C29.206 40.3228 28.5042 39.621 28.5042 38.7786V38.3578C28.5042 36.5326 27.5213 34.5676 25.8367 33.3037L25.8363 33.3023ZM6.4643 39.1988C6.4643 37.9356 7.44714 36.9527 8.71038 36.9527H26.8192C26.9597 37.5141 27.1002 37.9356 27.1002 38.4969V38.9178C27.1002 40.181 27.9425 41.3043 29.0658 41.7252V45.937C29.0658 46.3578 29.3468 46.6388 29.7677 46.6388H31.4524V48.3235C31.4524 48.7444 31.7334 49.0254 32.1542 49.0254H33.4174V84.5423C32.4346 83.419 30.8904 82.5767 29.2057 82.5767L8.71035 82.5773C7.44714 82.5773 6.46426 81.5945 6.46426 80.3312L6.4643 39.1988ZM1.83166 85.2456V42.1479C1.83166 40.8847 2.81451 39.9018 4.07775 39.9018H5.2011V80.3334C5.2011 82.299 6.8858 83.9831 8.85081 83.9831H29.2064C31.312 83.9831 32.9966 85.5273 33.4181 87.493H3.93742C2.81407 87.493 1.8318 86.3697 1.8318 85.2469L1.83166 85.2456Z" fill="#BCBCBC"/>
<path d="M25.7735 5.94034L24.559 6.64485L22.6572 3.36607L23.8718 2.66156L25.7735 5.94034Z" fill="#BCBCBC"/>
<path d="M14.9707 11.5031L15.6679 10.2846L18.9581 12.1671L18.2609 13.3856L14.9707 11.5031Z" fill="#BCBCBC"/>
<path d="M53.296 31.7552L52.5988 32.9737L49.3086 31.0913L50.0058 29.8727L53.296 31.7552Z" fill="#BCBCBC"/>
<path d="M12.3594 20.9491H16.1496V22.3528H12.3594V20.9491Z" fill="#BCBCBC"/>
<path d="M52.0889 20.9491H55.879V22.3528H52.0889V20.9491Z" fill="#BCBCBC"/>
<path d="M18.2274 30.0198L18.9213 31.2404L15.6265 33.1135L14.9326 31.8929L18.2274 30.0198Z" fill="#BCBCBC"/>
<path d="M49.293 12.1605L52.5825 10.2774L53.2797 11.4959L49.9901 13.3791L49.293 12.1605Z" fill="#BCBCBC"/>
<path d="M45.6547 3.4207L43.7582 6.70221L42.543 5.99969L44.4394 2.71819L45.6547 3.4207Z" fill="#BCBCBC"/>
<path d="M33.417 0.171921H34.8207V3.82164H33.417V0.171921Z" fill="#BCBCBC"/>
<path d="M11.7979 73.8744H18.5366V75.6996H11.7979V73.8744Z" fill="#BCBCBC"/>
<path d="M11.7979 53.7984H13.3421V55.6236H11.7979V53.7984Z" fill="#BCBCBC"/>
<path d="M11.7979 63.7656H23.7306V65.5908H11.7979V63.7656Z" fill="#BCBCBC"/>
<path d="M11.7979 68.82H13.3421V70.6452H11.7979V68.82Z" fill="#BCBCBC"/>
<path d="M21.3428 73.8743H23.5889V75.6995H21.3428V73.8743Z" fill="#BCBCBC"/>
<path d="M21.3428 48.7458H28.0815V50.571H21.3428V48.7458Z" fill="#BCBCBC"/>
<path d="M26.5381 63.7656H28.0823V65.5908H26.5381V63.7656Z" fill="#BCBCBC"/>
<path d="M11.7979 48.7457H18.5366V50.5709H11.7979V48.7457Z" fill="#BCBCBC"/>
<path d="M11.7979 58.8528H18.5366V60.678H11.7979V58.8528Z" fill="#BCBCBC"/>
<path d="M26.5381 53.7984H28.0823V55.6236H26.5381V53.7984Z" fill="#BCBCBC"/>
<path d="M21.3428 58.8528H28.0815V60.678H21.3428V58.8528Z" fill="#BCBCBC"/>
<path d="M16.2891 43.6914H28.2218V45.5166H16.2891V43.6914Z" fill="#BCBCBC"/>
<path d="M16.2891 68.8199H28.2218V70.6451H16.2891V68.8199Z" fill="#BCBCBC"/>
<path d="M26.5381 73.8744H28.0823V75.6996H26.5381V73.8744Z" fill="#BCBCBC"/>
<path d="M11.7979 43.6913H13.3421V45.5165H11.7979V43.6913Z" fill="#BCBCBC"/>
<path d="M16.2891 53.7984H23.7296V55.6236H16.2891V53.7984Z" fill="#BCBCBC"/>
<path d="M49.7002 73.8743H56.439V75.6995H49.7002V73.8743Z" fill="#BCBCBC"/>
<path d="M54.8955 53.7984H56.4397V55.6236H54.8955V53.7984Z" fill="#BCBCBC"/>
<path d="M44.5068 63.7655H56.4396V65.5907H44.5068V63.7655Z" fill="#BCBCBC"/>
<path d="M54.8955 68.8199H56.4397V70.6451H54.8955V68.8199Z" fill="#BCBCBC"/>
<path d="M44.5068 73.8743H46.7529V75.6995H44.5068V73.8743Z" fill="#BCBCBC"/>
<path d="M40.1553 48.7458H46.894V50.571H40.1553V48.7458Z" fill="#BCBCBC"/>
<path d="M40.1553 63.7655H41.6995V65.5907H40.1553V63.7655Z" fill="#BCBCBC"/>
<path d="M49.7002 48.7458H56.439V50.571H49.7002V48.7458Z" fill="#BCBCBC"/>
<path d="M49.7002 58.8528H56.439V60.678H49.7002V58.8528Z" fill="#BCBCBC"/>
<path d="M40.1553 53.7984H41.6995V55.6236H40.1553V53.7984Z" fill="#BCBCBC"/>
<path d="M40.1553 58.8528H46.894V60.678H40.1553V58.8528Z" fill="#BCBCBC"/>
<path d="M40.1553 43.6914H52.088V45.5166H40.1553V43.6914Z" fill="#BCBCBC"/>
<path d="M40.1553 68.8199H52.088V70.6451H40.1553V68.8199Z" fill="#BCBCBC"/>
<path d="M40.1553 73.8743H41.6995V75.6995H40.1553V73.8743Z" fill="#BCBCBC"/>
<path d="M54.8955 43.6914H56.4397V45.5166H54.8955V43.6914Z" fill="#BCBCBC"/>
<path d="M44.5068 53.7984H51.9474V55.6236H44.5068V53.7984Z" fill="#BCBCBC"/>
</svg>
