<svg width="59" height="89" viewBox="0 0 59 89" fill="none" xmlns="http://www.w3.org/2000/svg">
<path d="M38.5226 27.6342C38.5226 28.4121 37.8919 29.0427 37.1146 29.0427C36.3367 29.0427 35.7061 28.4121 35.7061 27.6342C35.7061 26.8562 36.3367 26.2262 37.1146 26.2262C37.8919 26.2262 38.5226 26.8563 38.5226 27.6342Z" fill="#BCBCBC"/>
<path d="M24.4402 27.6342C24.4402 28.4121 23.8095 29.0427 23.0316 29.0427C22.2537 29.0427 21.623 28.4121 21.623 27.6342C21.623 26.8562 22.2537 26.2262 23.0316 26.2262C23.8095 26.2262 24.4402 26.8563 24.4402 27.6342Z" fill="#BCBCBC"/>
<path d="M35.8826 20.9563C35.9012 20.9526 37.7399 20.6518 39.0129 21.5492C39.136 21.6359 39.2778 21.6779 39.4182 21.6779C39.6398 21.6779 39.857 21.574 39.9944 21.3796C40.2185 21.0615 40.1423 20.6222 39.8248 20.3987C38.0672 19.1597 35.739 19.5521 35.6407 19.5694C35.2582 19.6369 35.0038 20.0008 35.07 20.3833C35.1356 20.7651 35.4995 21.0219 35.8826 20.9563H35.8826Z" fill="#BCBCBC"/>
<path d="M24.4982 19.5685C24.3998 19.5511 22.0723 19.1588 20.314 20.3978C19.9959 20.6218 19.9204 21.0612 20.1444 21.3787C20.2818 21.573 20.4997 21.677 20.7206 21.677C20.8605 21.677 21.0022 21.6355 21.126 21.5483C22.3941 20.6546 24.2248 20.9498 24.2563 20.9554C24.6381 21.0228 25.0033 20.7666 25.0701 20.3841C25.1369 20.0011 24.8813 19.6359 24.4983 19.5685H24.4982Z" fill="#BCBCBC"/>
<path d="M58.2308 88.103C55.7615 68.3465 46.8231 59.4727 39.7576 55.5088C38.9253 55.0452 38.1305 54.6467 37.4022 54.3274C37.3979 54.3255 37.3929 54.3236 37.3886 54.3212C37.3874 54.3205 37.3861 54.3199 37.3843 54.3193C36.6268 53.9777 35.8396 53.6714 34.998 53.3848V48.5545C39.4372 46.9374 43.0748 43.4724 44.7558 40.6706C45.163 39.9911 45.5486 39.1587 45.9051 38.1932C47.9802 38.1642 49.9314 36.6528 50.7824 34.3425C51.8586 31.4135 50.7316 28.2336 48.2716 27.2385C49.9091 22.2323 49.2364 13.9276 45.1604 7.90657C42.7716 4.37829 38.2141 0.171921 30.0691 0.171921C21.9203 0.171921 17.3618 4.38209 14.9723 7.91402C10.8982 13.9351 10.2274 22.236 11.8667 27.238C9.40612 28.235 8.27967 31.4141 9.35653 34.3421C10.2069 36.6517 12.1582 38.1617 14.2332 38.1909C14.5903 39.1576 14.9765 39.9905 15.3831 40.6695C17.0639 43.4712 20.7017 46.9357 25.1409 48.5534V53.3843C24.3023 53.6703 23.5157 53.9766 22.7576 54.3182C22.757 54.3188 22.7558 54.3188 22.7545 54.3195C22.7508 54.3213 22.7465 54.3225 22.7428 54.325C21.8943 54.705 21.1195 55.0943 20.3812 55.5126C19.6163 55.9341 18.8284 56.4242 18.0307 56.9732C17.7646 56.4001 17.4786 55.8363 17.1735 55.2911C17.0819 55.1265 16.9278 55.0058 16.7459 54.9563C16.5646 54.9062 16.3702 54.9309 16.2069 55.0256C15.9537 55.1717 15.6586 55.5009 15.3751 55.8883C15.0768 54.6692 14.5668 53.6703 13.8514 52.906C13.6274 52.6677 13.2697 52.6139 12.9862 52.7773C12.6397 52.9772 12.3327 53.2879 12.0988 53.6499C9.61583 50.2943 6.40504 49.7585 2.45058 49.0975C1.97034 49.0177 1.47524 48.9347 0.965277 48.8444C0.748669 48.806 0.527735 48.871 0.366213 49.0189C0.204692 49.1674 0.121753 49.3828 0.141557 49.6013C0.61004 54.7529 2.00741 57.792 4.99164 59.8906C4.65682 60.1233 4.31707 60.4724 4.00082 60.9929C3.82816 61.2775 3.87828 61.6445 4.1215 61.8723C4.64631 62.3643 5.70947 62.9702 6.7041 63.4213C6.46769 63.6231 6.28945 63.8613 6.2251 64.1343C6.17064 64.3657 6.23686 64.6096 6.40148 64.7816C7.0055 65.4141 7.84159 66.1289 8.79158 66.8319C5.22132 72.377 3.02989 79.1598 1.91088 88.103C1.88551 88.3035 1.94801 88.5046 2.08169 88.6562C2.21536 88.8072 2.40784 88.8945 2.60958 88.8945H15.3033H15.3052H15.3076H16.2607H16.2626H16.265H47.3288H47.3313H47.3332H57.5322C57.734 88.8945 57.9264 88.8079 58.0601 88.6562C58.1932 88.504 58.2557 88.3028 58.2303 88.1023L58.2308 88.103ZM47.5081 80.7198C47.2612 80.6517 47.0068 80.6164 46.7444 80.6207C46.3558 80.6257 46.0439 80.9444 46.0488 81.3337C46.0538 81.7223 46.37 82.0287 46.7618 82.0293C46.9413 82.0225 47.1213 82.0609 47.2884 82.1283C47.2903 82.1289 47.2928 82.1295 47.2946 82.1302C47.518 82.2193 47.7118 82.3635 47.8541 82.5467C47.9822 82.7274 48.0465 82.9205 48.0465 83.1377C48.0577 83.5895 47.7532 83.9942 47.2699 84.1687C47.0031 84.2653 46.82 84.5128 46.8063 84.7963C46.7927 85.0797 46.9499 85.344 47.2061 85.4665C47.4667 85.5909 47.6777 85.7908 47.7841 86.0142C47.7965 86.0402 47.8101 86.0644 47.825 86.0879C47.8714 86.2042 47.8949 86.3175 47.8949 86.4301C47.8999 86.8732 47.6108 87.2922 47.1851 87.4853H40.3997C40.3546 87.4636 40.3094 87.4414 40.2636 87.4172C39.9102 87.2087 39.6961 86.8677 39.6911 86.5038C39.6905 86.4864 39.6899 86.4685 39.688 86.4512C39.6862 86.4277 39.6967 86.3664 39.7078 86.3002C39.7679 85.9672 40.0166 85.6726 40.3669 85.5086H43.9793C44.368 85.5086 44.6836 85.1936 44.6836 84.8043C44.6836 84.4157 44.3686 84.1001 43.9793 84.1001H40.411C40.0687 83.8896 39.8571 83.5555 39.8515 83.1984C39.8429 82.7416 40.135 82.3097 40.5731 82.1246C40.7248 82.0621 40.8844 82.0293 41.0416 82.0287H44.0729C44.4615 82.0287 44.7772 81.7137 44.7772 81.3244C44.7772 80.9358 44.4622 80.6201 44.0729 80.6201H41.0367C40.8207 80.6214 40.6084 80.6517 40.3993 80.7055C40.0985 80.4741 39.8875 80.109 39.8831 79.7704C39.8776 79.4752 39.9939 79.1899 40.2105 78.9671C40.4383 78.7332 40.7465 78.6032 41.0732 78.6008H46.7959C46.8572 78.5995 46.9247 78.6045 47.0027 78.615C47.3567 78.6657 47.6797 78.852 47.879 79.1126C48.0108 79.2945 48.0776 79.4895 48.0776 79.7085C48.0888 80.112 47.8567 80.5081 47.5083 80.7198L47.5081 80.7198ZM16.785 87.4859L15.5429 83.3952C15.533 83.3079 15.5076 83.2225 15.4668 83.1446L14.0867 78.5995H26.4704C26.4772 78.5995 26.484 78.6013 26.4908 78.6013C26.497 78.6013 26.5032 78.5995 26.5094 78.5995H38.7576C38.5664 78.9671 38.4686 79.3749 38.4766 79.7933C38.4841 80.3831 38.7366 80.979 39.1444 81.4464C38.6963 81.9241 38.4333 82.5603 38.4451 83.2219C38.4537 83.7857 38.6641 84.3186 39.0274 84.748C38.6629 85.1064 38.4123 85.5643 38.3213 86.0687C38.299 86.1968 38.2718 86.354 38.2854 86.5483C38.2934 86.877 38.369 87.1938 38.502 87.4859L16.785 87.4859ZM30.0692 49.4622C31.2259 49.4622 32.4067 49.3032 33.59 48.9931V50.4301C31.263 50.9946 28.899 50.9939 26.5485 50.4289V48.9931C27.7324 49.3032 28.9126 49.4622 30.0694 49.4622L30.0692 49.4622ZM23.2108 77.191C22.4143 76.7473 21.6005 76.3147 20.7781 75.8975C21.405 75.5423 22.2783 75.1369 23.0847 75.0751C23.3917 75.0503 23.6696 75.0806 23.9072 75.1629C24.8485 75.4903 25.343 76.4725 25.5863 77.191L23.2108 77.191ZM22.3252 73.7692C21.5671 73.9338 20.8356 74.2593 20.2384 74.5849C19.9673 73.1943 19.6102 71.8773 19.159 70.6036L22.3245 73.7054L22.3252 73.7692ZM19.055 76.6129C19.4424 76.801 19.8286 76.9947 20.2136 77.1903L13.2172 77.1909L11.4813 76.7862C10.868 76.5114 10.3704 75.6443 10.6074 74.8503C10.7491 74.3756 11.001 73.8799 12.1967 74.0036C13.4004 74.1429 16.0288 75.143 19.055 76.6129L19.055 76.6129ZM13.4846 86.6369C12.9994 86.2284 12.7698 85.4963 12.9263 84.8564C13.0068 84.5259 13.1844 84.2536 13.4289 84.0878C13.6715 83.9213 13.9593 83.8823 14.2458 83.972L15.2954 87.4278L13.8305 86.8442C13.7098 86.7965 13.5916 86.726 13.4846 86.6368V86.6369ZM11.6304 79.781C11.7672 79.2228 12.1992 78.7302 12.6132 78.5965L13.7198 82.2404L12.5402 81.7695C11.9875 81.5467 11.5865 80.8795 11.5865 80.1833C11.5871 80.0452 11.6032 79.9054 11.6304 79.781L11.6304 79.781ZM38.8158 77.191H37.8157V74.5613L39.5789 75.476L38.8158 77.191ZM37.8157 56.0768C38.1542 56.2451 38.5033 56.4277 38.8597 56.6232L43.0371 66.6081L37.8157 71.7262L37.8157 56.0768ZM49.4598 33.8567C48.8973 35.384 47.6885 36.4776 46.3938 36.7295C47.0839 34.4552 47.6198 31.6968 47.9639 28.6488C49.5674 29.4676 50.2408 31.7327 49.4598 33.8567H49.4598ZM10.6772 33.8573C9.89683 31.734 10.5689 29.4695 12.1731 28.6495C12.5172 31.6974 13.0531 34.4557 13.7425 36.7301C12.4466 36.4783 11.2398 35.3841 10.6772 33.8573H10.6772ZM16.5893 39.9465C16.1647 39.2378 15.7594 38.3257 15.3849 37.2358C14.5402 34.7844 13.8755 31.4654 13.5048 27.8685C16.7546 22.4701 20.3947 17.2653 25.035 15.0313C24.7219 16.5834 25.0227 18.1045 25.9349 19.5713C26.0345 19.731 26.1936 19.8442 26.3774 19.8863C26.5612 19.9278 26.7537 19.8944 26.9121 19.7929C29.5986 18.0755 31.3575 15.4243 32.2419 11.7358C33.406 14.6308 35.4644 17.0018 38.3886 18.8095C38.5582 18.9141 38.763 18.9425 38.9542 18.8868C39.1455 18.8318 39.3039 18.6981 39.3912 18.5192C39.7879 17.7073 39.9246 16.8186 39.8009 15.8382C43.1452 19.3832 45.3924 23.3118 46.6401 27.7751C46.2718 31.4086 45.6022 34.7634 44.75 37.2365C44.3762 38.3251 43.9714 39.2368 43.5469 39.9461C41.9916 42.5385 38.3631 45.972 34.0725 47.3849C32.7233 47.8287 31.3759 48.0539 30.0678 48.0539C28.7596 48.0539 27.4121 47.8287 26.0631 47.3849C21.7731 45.9726 18.1451 42.5391 16.5893 39.9467L16.5893 39.9465ZM21.0663 56.7434C21.4722 56.5132 21.8906 56.2941 22.3244 56.0794V71.7344L19.3427 68.8132C20.4468 66.1563 20.1739 62.3077 18.5945 58.2992C19.4337 57.7106 20.2617 57.1864 21.0664 56.7433L21.0663 56.7434ZM8.71172 62.6586C8.06066 62.5417 6.50239 61.8281 5.58522 61.2253C5.99616 60.8187 6.38109 60.8348 6.72828 60.8497C7.05443 60.8639 7.35087 60.6479 7.43751 60.3311C7.52354 60.0136 7.37872 59.6788 7.08847 59.5247C3.74524 57.7479 2.21796 55.2272 1.63873 50.3901C1.83368 50.4229 2.02676 50.4551 2.21737 50.4873C6.58106 51.2163 9.46374 51.6984 11.7158 55.6474C11.8817 55.9377 12.2289 56.0713 12.5458 55.968C12.8632 55.8646 13.0644 55.5521 13.0279 55.2204C13.0031 54.9988 13.1058 54.6956 13.2668 54.4387C13.8466 55.3287 14.1808 56.5367 14.2619 58.0424C14.2798 58.3748 14.528 58.6495 14.8573 58.7003C15.1871 58.7504 15.5065 58.5647 15.6234 58.2528C15.7614 57.8871 16.1043 57.3072 16.4112 56.861C16.6458 57.3251 16.8655 57.7992 17.0685 58.2782C17.0784 58.3073 17.0902 58.3351 17.1038 58.3624C18.646 62.0446 19.013 65.6805 18.1181 68.0762C15.7033 62.9563 11.5017 58.2447 4.36239 52.5937C4.0579 52.3523 3.61478 52.4043 3.37343 52.7088C3.13207 53.0139 3.18344 53.4564 3.48854 53.6978C10.6737 59.3841 14.7879 64.0589 17.0647 69.1566C15.499 69.13 12.836 67.9653 10.1525 66.0796C9.30032 65.4811 8.52794 64.8653 7.91719 64.2991C8.14246 64.1858 8.43147 64.08 8.67221 64.0509C9.01755 64.0082 9.27994 63.7198 9.28984 63.3714C9.30098 63.023 9.05405 62.7203 8.71182 62.6585L8.71172 62.6586ZM9.94515 67.6418C11.5314 68.6945 14.6968 70.5703 17.1025 70.5703C17.285 70.5703 17.462 70.5573 17.6347 70.5344C18.17 71.9442 18.581 73.4066 18.8793 74.9698C16.0177 73.6256 13.6139 72.7505 12.3495 72.6044C10.3122 72.3947 9.5435 73.4913 9.25753 74.4481C8.83175 75.8746 9.61463 77.5356 10.9694 78.0982C10.6315 78.4906 10.3796 78.969 10.2589 79.461C10.2057 79.7005 10.1785 79.9437 10.1785 80.1838C10.1785 81.4711 10.9155 82.6334 12.0141 83.0765L12.3074 83.1935C11.9466 83.5419 11.6842 84.0011 11.5573 84.5234C11.3036 85.5638 11.6099 86.7038 12.326 87.473V87.486H3.4099C4.52636 79.177 6.61562 72.8316 9.94522 67.6423L9.94515 67.6418ZM49.0731 87.4854C49.2254 87.1562 49.3083 86.7954 49.304 86.4222C49.304 86.0831 49.2235 85.7421 49.0651 85.4085C49.0471 85.3714 49.0267 85.3361 49.0032 85.3033C48.9233 85.156 48.828 85.0161 48.7179 84.8868C49.195 84.4177 49.4723 83.784 49.4556 83.1199C49.4556 82.623 49.2953 82.1378 48.992 81.7157C48.9877 81.7101 48.984 81.7046 48.9796 81.699C48.9202 81.621 48.8553 81.548 48.7878 81.4775C49.2371 80.9972 49.502 80.3542 49.4871 79.6926C49.4871 79.1937 49.3256 78.7073 49.01 78.2722C48.7055 77.8731 48.2871 77.568 47.8149 77.3848V71.2901C47.8149 70.9014 47.4999 70.5858 47.1107 70.5858C46.722 70.5858 46.4064 70.9008 46.4064 71.2901V77.191H40.3574L41.1354 75.4421C41.2864 75.1017 41.1465 74.7025 40.816 74.5311L38.299 73.2253L44.3646 67.2798C44.5707 67.078 44.6326 66.7711 44.5212 66.505L40.9058 57.863C47.2232 62.075 54.4257 70.5356 56.7304 87.485L49.0731 87.4854Z" fill="#BCBCBC"/>
<path d="M27.8485 31.1071C28.6135 31.3237 29.3883 31.4332 30.1526 31.4332C30.9163 31.4332 31.6917 31.3237 32.4567 31.1071C32.8311 31.0013 33.0483 30.612 32.9425 30.2382C32.8367 29.8638 32.4474 29.6453 32.0736 29.7524C30.7931 30.1144 29.5121 30.1144 28.2316 29.7524C27.8578 29.6459 27.4686 29.8638 27.3627 30.2382C27.2569 30.612 27.4741 31.0013 27.8485 31.1071Z" fill="#BCBCBC"/>
</svg>
