<svg width="19" height="20" viewBox="0 0 19 20" fill="none" xmlns="http://www.w3.org/2000/svg">
<path fill-rule="evenodd" clip-rule="evenodd" d="M10.5762 18.9389C10.5951 18.9999 10.6051 19.0633 10.6051 19.1284C10.6051 19.6099 10.0621 20 9.3924 20C8.72257 20 8.17969 19.6097 8.17969 19.1284C8.17969 19.0633 8.18969 19 8.20858 18.9389H10.5764H10.5762Z" fill="white"/>
<path d="M9.05469 2.94335C9.05469 3.1305 9.20644 3.2824 9.39374 3.2824C9.58088 3.2824 9.73279 3.13066 9.73279 2.94335V0.339051C9.73279 0.151906 9.58104 0 9.39374 0C9.20659 0 9.05469 0.151748 9.05469 0.339051V2.94335Z" fill="white"/>
<path d="M12.6472 3.72228C12.5535 3.88387 12.6088 4.09085 12.7703 4.18434C12.9319 4.27799 13.1389 4.22275 13.2324 4.06117L14.5346 1.80576C14.6283 1.64417 14.573 1.43719 14.4115 1.3437C14.2499 1.25005 14.0429 1.30528 13.9494 1.46687L12.6472 3.72228Z" fill="white"/>
<path d="M15.364 6.19048C15.2024 6.28413 15.1474 6.49095 15.2408 6.65254C15.3345 6.81413 15.5413 6.8692 15.7029 6.77571L17.9583 5.47348C18.1199 5.37983 18.175 5.173 18.0815 5.01142C17.9878 4.84983 17.781 4.79475 17.6194 4.88824L15.364 6.19048Z" fill="white"/>
<path d="M3.09606 6.77606C3.25765 6.86971 3.46463 6.81447 3.55812 6.65288C3.65177 6.49129 3.59653 6.28431 3.43495 6.19082L1.17954 4.88859C1.01795 4.79494 0.810966 4.85018 0.717476 5.01176C0.623825 5.17335 0.679064 5.38033 0.84065 5.47382L3.09606 6.77606Z" fill="white"/>
<path d="M5.56651 4.0611C5.66017 4.22269 5.86699 4.27776 6.02858 4.18427C6.19016 4.09062 6.24524 3.8838 6.15175 3.72221L4.84952 1.4668C4.75586 1.30521 4.54904 1.25013 4.38746 1.34363C4.22587 1.43728 4.17079 1.6441 4.26428 1.80569L5.56651 4.0611Z" fill="white"/>
<path fill-rule="evenodd" clip-rule="evenodd" d="M7.35938 17.3827L7.35969 17.8671C7.35985 18.2702 7.68954 18.6 8.09255 18.6H10.7065C11.1095 18.6 11.4392 18.2702 11.4394 17.8671L11.4397 17.3827H7.35938Z" fill="white"/>
<path fill-rule="evenodd" clip-rule="evenodd" d="M7.35938 15.8263H11.4395V17.0436H7.35938V15.8263Z" fill="white"/>
<path fill-rule="evenodd" clip-rule="evenodd" d="M9.39559 4.91547C11.6508 4.91547 13.479 6.74372 13.479 8.99889C13.479 11.0113 11.4358 11.5219 11.4358 15.4712H7.35567C7.35567 11.5219 5.3125 11.0115 5.3125 8.99889C5.3125 6.74364 7.14075 4.91547 9.39592 4.91547H9.39559ZM9.97765 15.1157V12.6514C9.97765 12.3312 9.71574 12.0693 9.39559 12.0693C9.07544 12.0693 8.81354 12.3312 8.81354 12.6514V15.1157H9.97765Z" fill="white"/>
</svg>
