<svg width="26" height="28" viewBox="0 0 26 28" fill="none" xmlns="http://www.w3.org/2000/svg">
<path d="M13.0008 14.8064C13.4616 14.8064 13.8648 14.432 13.8648 13.9424V10.0544C13.8648 9.59358 13.4904 9.19037 13.0008 9.19037C12.5399 9.19037 12.1367 9.56484 12.1367 10.0544V13.9426C12.1367 14.432 12.5399 14.8064 13.0008 14.8064Z" fill="url(#paint0_linear_951_810)"/>
<path d="M13.9254 16.5057C13.9254 17.0148 13.5128 17.4274 13.0037 17.4274C12.4947 17.4274 12.082 17.0148 12.082 16.5057C12.082 15.9969 12.4947 15.5842 13.0037 15.5842C13.5128 15.5842 13.9254 15.9969 13.9254 16.5057Z" fill="url(#paint1_linear_951_810)"/>
<path d="M13.3482 5.12963C11.2746 5.04325 9.28732 5.76323 7.78978 7.20323C6.29213 8.64322 5.45703 10.5728 5.45703 12.6464C5.45703 14.3456 6.00428 15.9583 7.06978 17.3119C7.99148 18.4928 8.62487 19.616 9.02807 20.7968L9.0568 20.8832V23.9073C9.0568 24.2817 9.34488 24.6273 9.71915 24.6849C9.86339 26.3552 11.2744 27.68 13.0025 27.68C14.7306 27.68 16.1417 26.3551 16.2857 24.656C16.6602 24.5983 16.9481 24.2815 16.9481 23.8783V20.8832L16.9768 20.7968C17.38 19.616 18.0136 18.4928 18.9351 17.3409C20.0583 15.9297 20.6343 14.1441 20.5479 12.3586C20.3466 8.47048 17.2074 5.30259 13.3479 5.12979L13.3482 5.12963ZM13.0026 26.096C12.1386 26.096 11.4475 25.4624 11.3035 24.656H14.7018C14.5577 25.4913 13.8667 26.096 13.0026 26.096ZM15.3643 23.1009H10.6409V21.2H15.3641L15.3643 23.1009ZM17.6682 16.3329C16.8041 17.4274 16.1705 18.4929 15.7099 19.6161H10.2955C9.83464 18.5216 9.20104 17.4274 8.33719 16.3329C7.5021 15.2674 7.06994 14.0002 7.06994 12.6465C7.06994 11.0048 7.73229 9.47842 8.91314 8.32653C10.094 7.20333 11.6491 6.59843 13.3195 6.68483C16.3723 6.82887 18.8491 9.33442 18.9931 12.3584C19.0219 13.8273 18.561 15.2097 17.6682 16.3329L17.6682 16.3329Z" fill="url(#paint2_linear_951_810)"/>
<path d="M13.0022 3.34407C13.4341 3.34407 13.7799 2.99853 13.7799 2.56642V1.09766C13.7799 0.665742 13.4343 0.320007 13.0022 0.320007C12.5703 0.320007 12.2246 0.665547 12.2246 1.09766V2.56642C12.2246 2.99834 12.5703 3.34407 13.0022 3.34407Z" fill="url(#paint3_linear_951_810)"/>
<path d="M7.27073 4.32318C7.41478 4.58233 7.67393 4.72637 7.96199 4.72637C8.10603 4.72637 8.22115 4.69764 8.36518 4.61126C8.73965 4.38083 8.88349 3.92001 8.65327 3.54571L7.93326 2.27846C7.70283 1.904 7.242 1.76017 6.8677 1.99038C6.49324 2.22081 6.3494 2.68163 6.57962 3.05593L7.27073 4.32318Z" fill="url(#paint4_linear_951_810)"/>
<path d="M4.64885 6.91531L3.3816 6.19531C3.00713 5.96489 2.51754 6.10893 2.31604 6.48339C2.08561 6.85785 2.22966 7.34744 2.60412 7.54893L3.87138 8.26893C3.9865 8.32658 4.13054 8.38404 4.27458 8.38404C4.53373 8.38404 4.82183 8.24 4.96583 7.98085C5.16713 7.63532 5.02309 7.14576 4.64882 6.91531L4.64885 6.91531Z" fill="url(#paint5_linear_951_810)"/>
<path d="M3.69983 12.6464C3.69983 12.2145 3.35429 11.8687 2.92218 11.8687H1.45343C1.02152 11.8687 0.675781 12.2143 0.675781 12.6464C0.675781 13.0783 1.02132 13.424 1.45343 13.424H2.92218C3.3541 13.4528 3.69983 13.0783 3.69983 12.6464Z" fill="url(#paint6_linear_951_810)"/>
<path d="M3.87128 17.024L2.60403 17.744C2.22957 17.9744 2.08573 18.4352 2.31595 18.8095C2.45999 19.0687 2.71914 19.2127 3.0072 19.2127C3.15124 19.2127 3.26635 19.184 3.41039 19.0976L4.67764 18.3776C5.05211 18.1472 5.19594 17.6864 4.96573 17.3121C4.7353 16.9376 4.24572 16.7936 3.87127 17.024L3.87128 17.024Z" fill="url(#paint7_linear_951_810)"/>
<path d="M23.3988 17.744L22.1316 17.024C21.7571 16.7936 21.2675 16.9376 21.066 17.3121C20.8356 17.6865 20.9797 18.1761 21.3541 18.3776L22.6214 19.0976C22.7365 19.1553 22.8805 19.2127 23.0246 19.2127C23.2837 19.2127 23.5718 19.0687 23.7158 18.8095C23.8884 18.4351 23.7733 17.9744 23.3988 17.744L23.3988 17.744Z" fill="url(#paint8_linear_951_810)"/>
<path d="M24.5511 11.8688H23.0823C22.6504 11.8688 22.3047 12.2144 22.3047 12.6465C22.3047 13.0784 22.6502 13.4241 23.0823 13.4241H24.5511C24.983 13.4241 25.3287 13.0786 25.3287 12.6465C25.3287 12.2146 24.9832 11.8688 24.5511 11.8688Z" fill="url(#paint9_linear_951_810)"/>
<path d="M21.7285 8.38401C21.8725 8.38401 21.9877 8.35528 22.1317 8.2689L23.3989 7.5489C23.7734 7.31848 23.9172 6.85765 23.687 6.48336C23.4566 6.1089 22.9958 5.96506 22.6215 6.19528L21.354 6.91507C20.9796 7.14549 20.8357 7.60632 21.0659 7.98061C21.2102 8.26869 21.4693 8.38401 21.7285 8.38401L21.7285 8.38401Z" fill="url(#paint10_linear_951_810)"/>
<path d="M17.6396 4.61118C17.7547 4.66884 17.8987 4.7263 18.0428 4.7263C18.3019 4.7263 18.59 4.58225 18.734 4.32311L19.454 3.05585C19.6844 2.68139 19.5404 2.19179 19.1659 1.9903C18.7915 1.75987 18.3019 1.90391 18.1004 2.27838L17.3804 3.54564C17.15 3.89118 17.2651 4.38074 17.6395 4.61119L17.6396 4.61118Z" fill="url(#paint11_linear_951_810)"/>
<defs>
<linearGradient id="paint0_linear_951_810" x1="12.1367" y1="9.19037" x2="13.9508" y2="9.21828" gradientUnits="userSpaceOnUse">
<stop stop-color="#E1A200"/>
<stop offset="1" stop-color="#FF5C00"/>
</linearGradient>
<linearGradient id="paint1_linear_951_810" x1="12.082" y1="15.5842" x2="14.0128" y2="15.6808" gradientUnits="userSpaceOnUse">
<stop stop-color="#E1A200"/>
<stop offset="1" stop-color="#FF5C00"/>
</linearGradient>
<linearGradient id="paint2_linear_951_810" x1="5.45703" y1="5.12268" x2="21.2935" y2="5.65269" gradientUnits="userSpaceOnUse">
<stop stop-color="#E1A200"/>
<stop offset="1" stop-color="#FF5C00"/>
</linearGradient>
<linearGradient id="paint3_linear_951_810" x1="12.2246" y1="0.320007" x2="13.8565" y2="0.36197" gradientUnits="userSpaceOnUse">
<stop stop-color="#E1A200"/>
<stop offset="1" stop-color="#FF5C00"/>
</linearGradient>
<linearGradient id="paint4_linear_951_810" x1="6.46875" y1="1.87952" x2="8.87499" y2="1.97652" gradientUnits="userSpaceOnUse">
<stop stop-color="#E1A200"/>
<stop offset="1" stop-color="#FF5C00"/>
</linearGradient>
<linearGradient id="paint5_linear_951_810" x1="2.20508" y1="6.08435" x2="5.18803" y2="6.2693" gradientUnits="userSpaceOnUse">
<stop stop-color="#E1A200"/>
<stop offset="1" stop-color="#FF5C00"/>
</linearGradient>
<linearGradient id="paint6_linear_951_810" x1="0.675781" y1="11.8687" x2="3.82136" y2="12.1742" gradientUnits="userSpaceOnUse">
<stop stop-color="#E1A200"/>
<stop offset="1" stop-color="#FF5C00"/>
</linearGradient>
<linearGradient id="paint7_linear_951_810" x1="2.20508" y1="16.913" x2="5.20846" y2="17.1005" gradientUnits="userSpaceOnUse">
<stop stop-color="#E1A200"/>
<stop offset="1" stop-color="#FF5C00"/>
</linearGradient>
<linearGradient id="paint8_linear_951_810" x1="20.9551" y1="16.913" x2="23.9249" y2="17.0963" gradientUnits="userSpaceOnUse">
<stop stop-color="#E1A200"/>
<stop offset="1" stop-color="#FF5C00"/>
</linearGradient>
<linearGradient id="paint9_linear_951_810" x1="22.3047" y1="11.8688" x2="25.4502" y2="12.1746" gradientUnits="userSpaceOnUse">
<stop stop-color="#E1A200"/>
<stop offset="1" stop-color="#FF5C00"/>
</linearGradient>
<linearGradient id="paint10_linear_951_810" x1="20.9551" y1="6.08441" x2="23.9287" y2="6.26821" gradientUnits="userSpaceOnUse">
<stop stop-color="#E1A200"/>
<stop offset="1" stop-color="#FF5C00"/>
</linearGradient>
<linearGradient id="paint11_linear_951_810" x1="17.2617" y1="1.87933" x2="19.6762" y2="1.977" gradientUnits="userSpaceOnUse">
<stop stop-color="#E1A200"/>
<stop offset="1" stop-color="#FF5C00"/>
</linearGradient>
</defs>
</svg>
