<svg width="24" height="24" viewBox="0 0 24 24" fill="none" xmlns="http://www.w3.org/2000/svg">
<path d="M18.9616 7.34H16.2616C15.8416 7.34 15.5416 7.04 15.5416 6.62C15.5416 5.72 14.8216 5 13.9216 5H10.0816C9.18157 5 8.46157 5.72 8.46157 6.62C8.46157 7.04 8.16156 7.34 7.74156 7.34H5.04156C4.26156 7.34 3.60156 7.94 3.60156 8.72V16.82C3.60156 17.6 4.26156 18.26 5.04156 18.26H18.9616C19.7416 18.26 20.4016 17.6 20.4016 16.82V8.72C20.4016 7.94 19.7416 7.34 18.9616 7.34ZM19.5016 16.82C19.5016 17.12 19.2616 17.36 18.9616 17.36H5.04156C4.74156 17.36 4.50156 17.12 4.50156 16.82V8.72C4.50156 8.42 4.74156 8.18 5.04156 8.18H7.74156C8.64156 8.18 9.36157 7.46 9.36157 6.56C9.36157 6.14 9.66157 5.84 10.0816 5.84H13.9216C14.3416 5.84 14.6416 6.14 14.6416 6.56C14.6416 7.46 15.3616 8.18 16.2616 8.18H18.9616C19.2616 8.18 19.5016 8.42 19.5016 8.72V16.82Z" fill="#FF6868"/>
<path d="M12.0635 8.95999C10.0834 8.95999 8.52344 10.52 8.52344 12.5C8.52344 14.48 10.0834 16.04 12.0635 16.04C14.0435 16.04 15.6035 14.42 15.6035 12.5C15.6035 10.58 13.9835 8.95999 12.0635 8.95999ZM12.0635 15.14C10.6234 15.14 9.42344 13.94 9.42344 12.5C9.42344 11.06 10.6234 9.86 12.0635 9.86C13.5035 9.86 14.7035 11.06 14.7035 12.5C14.7035 13.94 13.5035 15.14 12.0635 15.14Z" fill="#FF6868"/>
</svg>
