<svg width="201" height="134" viewBox="0 0 201 134" fill="none" xmlns="http://www.w3.org/2000/svg">
<path d="M195.588 129.434L193.606 130.279L189.404 123.035L192.33 121.788L195.588 129.434Z" fill="#FFB6B6"/>
<path d="M179.208 131.31L177.053 131.31L176.028 122.999H179.208L179.208 131.31Z" fill="#FFB6B6"/>
<path d="M179.284 133.557L172.658 133.557V133.473C172.658 132.789 172.929 132.134 173.413 131.65C173.897 131.166 174.553 130.895 175.237 130.895H175.237L176.447 129.976L178.705 130.895L179.284 130.895L179.284 133.557Z" fill="#2F2E41"/>
<path d="M196.793 130.873L190.698 133.47L190.665 133.393C190.397 132.764 190.39 132.054 190.645 131.42C190.9 130.785 191.397 130.278 192.027 130.01L192.027 130.01L192.78 128.691L195.217 128.65L195.75 128.423L196.793 130.873Z" fill="#2F2E41"/>
<path d="M177.094 82.123L173.819 102.063L174.711 105.034L173.541 107.138L175.259 125.62L174.561 127.154L176.509 128.355H180.472L180.683 111.624L181.662 109.168V107.814L183.655 97.6115L184.022 109.282L184.601 111.742L184.114 113.494L184.751 114.721L190.203 126.43H194.647L194.304 123.782C195.1 123.379 193.108 122.2 192.917 121.329L193.571 119.856L192.917 117.075L192.317 111.641L192.95 100.17L192.652 84.7229C191.16 82.7224 189.505 81.1796 187.453 80.7475L177.094 82.123Z" fill="#2F2E41"/>
<path d="M185.069 55.8639C187.549 55.8639 189.56 53.8531 189.56 51.3728C189.56 48.8924 187.549 46.8817 185.069 46.8817C182.588 46.8817 180.578 48.8924 180.578 51.3728C180.578 53.8531 182.588 55.8639 185.069 55.8639Z" fill="#FFB6B6"/>
<path d="M166.552 86.8341C166.496 86.5819 166.496 86.3204 166.552 86.0682C166.608 85.816 166.719 85.5791 166.876 85.3743C167.034 85.1694 167.234 85.0016 167.464 84.8826C167.693 84.7636 167.946 84.6963 168.204 84.6855L170.013 78.6713L172.104 81.1767L170.066 86.5038C170.055 86.9387 169.885 87.3545 169.589 87.6726C169.292 87.9906 168.889 88.1888 168.456 88.2295C168.023 88.2702 167.59 88.1507 167.239 87.8935C166.888 87.6363 166.644 87.2594 166.552 86.8341Z" fill="#FFB6B6"/>
<path d="M178.288 62.1135L177.477 60.6321L176.432 60.9809C176.432 60.9809 175.279 61.7252 173.664 64.5348C172.917 65.8343 171.303 74.1673 171.303 74.1673L167.528 84.161L171.376 84.8115L174.587 76.5756L178.308 68.694L178.288 62.1135Z" fill="url(#paint0_linear_475_601)"/>
<path d="M184.902 82.0601C188.064 82.0601 191.255 82.6826 192.561 84.9083C192.527 84.4244 192.442 83.5852 192.353 82.8153L192.026 80.7467L192.357 78.8499L192.795 78.412L192.011 77.6279L192.546 73.6686L194.311 64.3414C194.45 63.6076 194.342 62.8487 194.004 62.1826C193.667 61.5165 193.119 60.9807 192.445 60.6583L190.749 59.8426L187.999 57.2918L183.024 57.2546L181.401 59.3645L177.129 60.8156L177.846 75.6508L177.376 76.7476C177.481 76.8443 177.704 77.0511 177.824 77.1843C177.994 77.3726 177.777 78.3426 177.633 78.9039L177.434 80.3993L178.059 80.8459L177.247 81.8057L177.084 83.0241C177.891 82.8333 181.379 82.0601 184.902 82.0601Z" fill="url(#paint1_linear_475_601)"/>
<path d="M186.218 55.6441C186.237 55.6018 186.256 55.5594 186.275 55.5168C186.268 55.5171 186.261 55.5181 186.253 55.5183L186.218 55.6441Z" fill="#2F2E41"/>
<path d="M189.685 47.086C189.472 46.8848 189.194 46.7649 188.902 46.7474C188.611 46.7568 188.317 47.0191 188.377 47.3033C187.844 46.3588 186.995 45.6324 185.979 45.2516C184.963 44.8707 183.846 44.8598 182.823 45.2207C182.101 45.4754 181.393 45.9848 181.228 46.732C181.211 46.9282 181.153 47.1186 181.056 47.2899C180.972 47.3816 180.863 47.4466 180.743 47.4771C180.622 47.5077 180.496 47.5023 180.378 47.4617L180.371 47.4596C180.331 47.4458 180.288 47.4445 180.247 47.4557C180.206 47.4669 180.169 47.4901 180.141 47.5224C180.114 47.5547 180.096 47.5945 180.092 47.6367C180.087 47.6789 180.095 47.7215 180.115 47.7591L180.319 48.14C180.062 48.1974 179.794 48.1917 179.539 48.1234C179.497 48.1123 179.452 48.1146 179.411 48.1299C179.37 48.1452 179.335 48.1729 179.31 48.209C179.286 48.2451 179.273 48.288 179.273 48.3318C179.274 48.3755 179.288 48.418 179.314 48.4534C179.654 48.9177 180.097 49.2964 180.608 49.5594C181.12 49.8223 181.686 49.9622 182.261 49.968C183.077 49.963 183.901 49.6817 184.695 49.8694C185.003 49.942 185.29 50.0825 185.535 50.2805C185.781 50.4785 185.98 50.729 186.116 51.0137C186.253 51.2984 186.323 51.61 186.324 51.9257C186.324 52.2414 186.254 52.5532 186.118 52.8381C186.362 52.5712 186.833 52.6344 187.083 52.8961C187.198 53.0361 187.283 53.1983 187.332 53.3725C187.382 53.5467 187.396 53.7293 187.372 53.9089C187.305 54.4591 187.142 54.9931 186.889 55.4864C187.854 55.4567 188.787 55.1316 189.561 54.5549C190.335 53.9782 190.914 53.1778 191.219 52.2618C191.524 51.3458 191.54 50.3583 191.266 49.4326C190.991 48.507 190.44 47.6879 189.685 47.086H189.685Z" fill="#2F2E41"/>
<path d="M44.5394 30.3183C50.7061 30.3183 55.7051 25.3193 55.7051 19.1526C55.7051 12.986 50.7061 7.98697 44.5394 7.98697C38.3728 7.98697 33.3738 12.986 33.3738 19.1526C33.3738 25.3193 38.3728 30.3183 44.5394 30.3183Z" fill="url(#paint2_linear_475_601)"/>
<path d="M13.1571 52.3671C7.5545 39.9747 7.76108 24.2666 16.456 13.8094C19.365 28.3101 27.3093 41.3145 38.8834 50.5218C43.3599 54.0564 48.7069 57.5217 49.9298 63.0929C50.6908 66.5594 49.6122 70.226 47.7475 73.2456C45.8827 76.2653 43.2835 78.7493 40.7138 81.1973L40.4254 82.0351C29.2438 74.2934 18.7596 64.7596 13.1571 52.3671Z" fill="#F2F2F2"/>
<path d="M16.698 13.9606C14.697 24.9179 16.1835 36.5854 21.0473 46.6244C22.0989 48.7948 23.3544 50.9049 25.0355 52.6505C26.7173 54.3969 28.7281 55.4963 31.0413 56.1717C33.1561 56.7891 35.3907 57.1758 37.3186 58.2965C39.3506 59.4779 40.6117 61.4601 41.1029 63.7332C41.704 66.5144 41.2699 69.3457 40.7491 72.0998C40.1709 75.1576 39.5219 78.3246 40.3598 81.3985C40.4613 81.771 39.8774 81.9067 39.7761 81.5348C38.3184 76.1867 41.1525 70.912 40.7564 65.535C40.5715 63.0261 39.6294 60.5576 37.4781 59.1039C35.5969 57.8327 33.2929 57.432 31.1463 56.8253C28.8923 56.1883 26.868 55.2152 25.1456 53.6012C23.3836 51.9501 22.0428 49.8846 20.9404 47.7506C18.4542 42.9379 16.8153 37.6355 15.9482 32.2969C14.9511 26.1609 15.0109 19.8995 16.1252 13.7837C16.1944 13.4052 16.7667 13.5845 16.698 13.9606H16.698Z" fill="white"/>
<path d="M19.2942 43.4446C17.4792 44.0263 15.5164 43.9439 13.7565 43.2121C11.9966 42.4803 10.5542 41.1467 9.68676 39.4495C9.51243 39.1055 10.0388 38.8184 10.2134 39.1629C11.0182 40.7448 12.362 41.9869 14.0022 42.665C15.6424 43.3432 17.471 43.4126 19.1579 42.8609C19.5246 42.7415 19.6588 43.3259 19.2942 43.4446H19.2942Z" fill="white"/>
<path d="M29.9279 55.9998C31.7416 52.5515 32.1889 48.5462 31.1807 44.7827C31.0805 44.4099 31.6643 44.274 31.7644 44.6464C32.8062 48.5647 32.3322 52.7319 30.437 56.3162C30.2561 56.6577 29.748 56.3395 29.9278 55.9998H29.9279Z" fill="white"/>
<path d="M15.7217 26.3556C16.4709 26.2768 17.1888 26.0133 17.811 25.5885C18.4331 25.1638 18.94 24.5911 19.2862 23.922C19.4626 23.5784 19.9706 23.897 19.7953 24.2384C19.4094 24.9759 18.8488 25.6076 18.1625 26.0784C17.4761 26.5492 16.685 26.8448 15.858 26.9393C15.7808 26.9547 15.7007 26.9402 15.6338 26.8986C15.5669 26.8571 15.5184 26.7916 15.498 26.7156C15.4804 26.6382 15.494 26.557 15.5359 26.4896C15.5777 26.4222 15.6445 26.374 15.7217 26.3556V26.3556Z" fill="white"/>
<path d="M62.5031 13.9308C62.399 14.1485 62.2949 14.3662 62.1932 14.5883C60.809 17.5225 59.6655 20.5642 58.7739 23.6835C58.7012 23.9236 58.6311 24.168 58.5653 24.4097C56.4974 31.9477 55.847 39.8042 56.6471 47.5797C56.9683 50.6734 57.5244 53.7383 58.3106 56.7477C59.3967 60.9037 60.9049 65.3235 60.5646 69.4734C60.5339 69.9067 60.4765 70.3378 60.3925 70.764L41.47 82.3218C41.4138 82.3265 41.3601 82.3356 41.3037 82.3404L40.5692 82.8364C40.5178 82.684 40.4678 82.5249 40.4164 82.3725C40.3863 82.2843 40.3603 82.1934 40.3301 82.1052C40.3113 82.0455 40.2927 81.9857 40.2724 81.9329C40.2661 81.9131 40.2599 81.8931 40.2562 81.8776C40.2359 81.8248 40.2226 81.7737 40.2049 81.7252C39.9228 80.8364 39.6465 79.9441 39.3759 79.0483C39.3733 79.0439 39.3733 79.0439 39.3748 79.037C37.3307 72.2059 35.8389 65.1441 35.4664 58.0803C35.4553 57.8678 35.4413 57.6511 35.4388 57.4333C35.2885 54.2483 35.3988 51.0565 35.7686 47.8895C35.9767 46.156 36.2723 44.4342 36.6545 42.7306C37.6504 38.3307 39.3322 34.1148 41.6382 30.2375C46.2363 22.5089 53.255 16.3369 61.8451 14.0956C62.0649 14.0384 62.2806 13.9836 62.5031 13.9308Z" fill="#F2F2F2"/>
<path d="M62.6071 14.1969C54.4124 21.7409 48.5746 31.9518 46.4139 42.8957C45.9468 45.2617 45.6788 47.7025 45.9701 50.1084C46.2615 52.5153 47.2051 54.6038 48.6455 56.5358C49.9622 58.302 51.5137 59.9561 52.3782 62.0117C53.2894 64.1783 53.1029 66.5202 52.1265 68.631C50.932 71.2135 48.8807 73.2128 46.8068 75.0982C44.5041 77.1916 42.0791 79.3295 40.8974 82.2884C40.7542 82.6469 40.2063 82.4037 40.3493 82.0458C42.4053 76.8979 47.844 74.3927 50.765 69.861C52.128 67.7464 52.862 65.2083 52.0195 62.7524C51.2828 60.6048 49.6844 58.8976 48.3357 57.1208C46.9195 55.2551 45.8891 53.2595 45.4856 50.9337C45.0728 48.5546 45.2459 46.0981 45.6505 43.7305C46.563 38.391 48.4468 33.1706 50.9687 28.3859C53.8669 22.8863 57.6844 17.923 62.2563 13.7108C62.5394 13.4502 62.8884 13.938 62.6071 14.1969L62.6071 14.1969Z" fill="white"/>
<path d="M46.9284 39.3014C45.129 38.673 43.6115 37.4255 42.6469 35.7816C41.6824 34.1377 41.3336 32.2044 41.6628 30.3271C41.7307 29.9475 42.3238 30.0352 42.2558 30.4153C41.946 32.1629 42.2711 33.9637 43.1724 35.4927C44.0738 37.0217 45.492 38.1781 47.171 38.7532C47.5358 38.8787 47.2911 39.4261 46.9285 39.3014H46.9284Z" fill="white"/>
<path d="M47.8599 55.7282C51.3842 54.0668 54.1528 51.1381 55.6137 47.5261C55.7581 47.1682 56.3061 47.4112 56.1618 47.7687C54.6346 51.5246 51.7472 54.5665 48.0759 56.2873C47.7259 56.451 47.5118 55.891 47.8599 55.7281L47.8599 55.7282Z" fill="white"/>
<path d="M54.3648 23.5057C55.0104 23.8939 55.7423 24.1157 56.4947 24.1511C57.2472 24.1866 57.9967 24.0345 58.6759 23.7087C59.0237 23.5406 59.2375 24.1008 58.892 24.2678C58.1399 24.6243 57.3119 24.7912 56.4805 24.7539C55.649 24.7166 54.8393 24.4762 54.1222 24.0538C54.0512 24.0197 53.996 23.9598 53.9676 23.8864C53.9392 23.8129 53.9399 23.7315 53.9694 23.6585C54.0019 23.5861 54.0616 23.5294 54.1357 23.5008C54.2097 23.4722 54.292 23.474 54.3648 23.5057V23.5057Z" fill="white"/>
<path d="M107.299 38.7932C101.697 26.4007 101.903 10.6927 110.598 0.235413C113.507 14.7361 121.451 27.7406 133.025 36.9478C137.502 40.4825 142.849 43.9478 144.072 49.519C144.833 52.9855 143.754 56.6521 141.89 59.6717C140.025 62.6914 137.426 65.1754 134.856 67.6234L134.568 68.4611C123.386 60.7195 112.902 51.1856 107.299 38.7932Z" fill="#F2F2F2"/>
<path d="M110.84 0.386618C108.839 11.3439 110.325 23.0115 115.189 33.0504C116.241 35.2208 117.496 37.331 119.177 39.0766C120.859 40.823 122.87 41.9223 125.183 42.5977C127.298 43.2152 129.533 43.6018 131.46 44.7226C133.492 45.9039 134.754 47.8861 135.245 50.1592C135.846 52.9405 135.412 55.7718 134.891 58.5258C134.313 61.5837 133.664 64.7507 134.502 67.8246C134.603 68.1971 134.019 68.3328 133.918 67.9609C132.46 62.6128 135.294 57.3381 134.898 51.9611C134.713 49.4521 133.771 46.9836 131.62 45.5299C129.739 44.2587 127.435 43.858 125.288 43.2514C123.034 42.6143 121.01 41.6413 119.287 40.0273C117.525 38.3762 116.185 36.3106 115.082 34.1767C112.596 29.364 110.957 24.0615 110.09 18.7229C109.093 12.5869 109.153 6.32554 110.267 0.20972C110.336 -0.168783 110.909 0.0105983 110.84 0.386618H110.84Z" fill="white"/>
<path d="M113.436 29.8707C111.621 30.4524 109.659 30.37 107.899 29.6381C106.139 28.9063 104.696 27.5727 103.829 25.8756C103.655 25.5316 104.181 25.2445 104.355 25.589C105.16 27.1709 106.504 28.413 108.144 29.0911C109.784 29.7692 111.613 29.8387 113.3 29.287C113.667 29.1675 113.801 29.7519 113.436 29.8707V29.8707Z" fill="white"/>
<path d="M124.07 42.4259C125.883 38.9775 126.331 34.9723 125.323 31.2087C125.222 30.8359 125.806 30.7001 125.906 31.0724C126.948 34.9908 126.474 39.158 124.579 42.7422C124.398 43.0837 123.89 42.7655 124.07 42.4259H124.07Z" fill="white"/>
<path d="M109.864 12.7816C110.613 12.7029 111.331 12.4393 111.953 12.0146C112.575 11.5898 113.082 11.0172 113.428 10.3481C113.604 10.0045 114.112 10.3231 113.937 10.6645C113.551 11.4019 112.991 12.0336 112.304 12.5044C111.618 12.9753 110.827 13.2708 110 13.3653C109.923 13.3808 109.843 13.3663 109.776 13.3247C109.709 13.2831 109.66 13.2177 109.64 13.1416C109.622 13.0643 109.636 12.9831 109.678 12.9156C109.72 12.8482 109.786 12.8001 109.864 12.7816V12.7816Z" fill="white"/>
<path d="M156.645 0.356812C156.541 0.574516 156.437 0.792222 156.335 1.01438C154.951 3.94851 153.807 6.99025 152.916 10.1096C152.843 10.3496 152.773 10.594 152.707 10.8357C150.639 18.3738 149.989 26.2302 150.789 34.0057C151.11 37.0995 151.666 40.1643 152.452 43.1737C153.539 47.3297 155.047 51.7495 154.706 55.8994C154.676 56.3328 154.618 56.7638 154.534 57.1901L135.612 68.7479C135.556 68.7525 135.502 68.7617 135.445 68.7665L134.711 69.2625C134.66 69.1101 134.61 68.951 134.558 68.7986C134.528 68.7103 134.502 68.6195 134.472 68.5312C134.453 68.4716 134.435 68.4117 134.414 68.359C134.408 68.3391 134.402 68.3192 134.398 68.3036C134.378 68.2509 134.364 68.1997 134.347 68.1513C134.065 67.2625 133.788 66.3702 133.518 65.4743C133.515 65.47 133.515 65.47 133.517 65.4631C131.473 58.632 129.981 51.5701 129.608 44.5064C129.597 44.2939 129.583 44.0771 129.581 43.8593C129.43 40.6744 129.541 37.4825 129.91 34.3155C130.119 32.5821 130.414 30.8602 130.796 29.1566C131.792 24.7567 133.474 20.5409 135.78 16.6636C140.378 8.93496 147.397 2.76291 155.987 0.521607C156.207 0.46443 156.422 0.409669 156.645 0.356812Z" fill="#F0F0F0"/>
<path d="M156.749 0.622947C148.554 8.16698 142.716 18.3779 140.556 29.3217C140.089 31.6878 139.821 34.1286 140.112 36.5345C140.403 38.9414 141.347 41.0298 142.787 42.9618C144.104 44.728 145.656 46.3822 146.52 48.4377C147.431 50.6044 147.245 52.9463 146.268 55.057C145.074 57.6396 143.023 59.6388 140.949 61.5243C138.646 63.6177 136.221 65.7556 135.039 68.7144C134.896 69.0729 134.348 68.8298 134.491 68.4718C136.547 63.324 141.986 60.8188 144.907 56.2871C146.27 54.1725 147.004 51.6343 146.161 49.1784C145.425 47.0308 143.826 45.3237 142.478 43.5469C141.061 41.6812 140.031 39.6855 139.627 37.3598C139.215 34.9806 139.388 32.5242 139.792 30.1566C140.705 24.8171 142.589 19.5966 145.111 14.812C148.009 9.3124 151.826 4.3491 156.398 0.136836C156.681 -0.12376 157.03 0.364062 156.749 0.622954L156.749 0.622947Z" fill="white"/>
<path d="M141.071 25.7274C139.271 25.0991 137.754 23.8516 136.789 22.2077C135.824 20.5638 135.476 18.6305 135.805 16.7532C135.873 16.3735 136.466 16.4612 136.398 16.8414C136.088 18.589 136.413 20.3898 137.315 21.9188C138.216 23.4477 139.634 24.6042 141.313 25.1793C141.678 25.3047 141.433 25.8521 141.071 25.7274H141.071Z" fill="white"/>
<path d="M142.002 42.1542C145.526 40.4929 148.295 37.5642 149.756 33.9522C149.9 33.5942 150.448 33.8372 150.304 34.1948C148.776 37.9507 145.889 40.9925 142.218 42.7133C141.868 42.8771 141.654 42.3171 142.002 42.1542L142.002 42.1542Z" fill="white"/>
<path d="M148.507 9.93178C149.152 10.32 149.884 10.5417 150.637 10.5772C151.389 10.6126 152.139 10.4606 152.818 10.1348C153.166 9.96665 153.379 10.5269 153.034 10.6939C152.282 11.0504 151.454 11.2173 150.622 11.18C149.791 11.1427 148.981 10.9023 148.264 10.4799C148.193 10.4457 148.138 10.3859 148.109 10.3124C148.081 10.239 148.082 10.1575 148.111 10.0845C148.144 10.0121 148.203 9.95547 148.278 9.92686C148.352 9.89826 148.434 9.90002 148.507 9.93178Z" fill="white"/>
<path d="M35.8914 130.7L37.9596 132.302L46.0008 133.697L54.9387 111.479C54.9387 111.479 60.412 94.3567 75.7375 97.8596L124.998 96.9839C124.998 96.9839 140.122 95.4338 142.622 102.567C143.095 103.918 155.868 133.765 155.868 133.765L164.822 132.501L163.749 107.055L142.481 57.6851L105.513 55.3768L67.4179 58.0135L35.8914 130.7Z" fill="#3F3D56"/>
<path d="M76.8321 99.3922C84.6915 99.3922 91.0628 93.0208 91.0628 85.1614C91.0628 77.302 84.6915 70.9307 76.8321 70.9307C68.9726 70.9307 62.6013 77.302 62.6013 85.1614C62.6013 93.0208 68.9726 99.3922 76.8321 99.3922Z" fill="#2F2E41"/>
<path d="M124.56 99.3922C132.419 99.3922 138.791 93.0208 138.791 85.1614C138.791 77.302 132.419 70.9307 124.56 70.9307C116.7 70.9307 110.329 77.302 110.329 85.1614C110.329 93.0208 116.7 99.3922 124.56 99.3922Z" fill="#2F2E41"/>
<path d="M60.1931 38.5283L66.0525 37.3794C66.0525 37.3794 110.169 31.0845 138.054 38.5283L135.944 44.4396L62.1635 44.0017L60.1931 38.5283Z" fill="#E6E6E6"/>
<path d="M119.675 69.0697H82.2356C77.6897 69.0697 73.7608 65.922 72.8937 61.5851L68.7963 41.092C68.7057 40.6447 68.7093 40.1835 68.807 39.7378C68.9046 39.2921 69.0941 38.8716 69.3634 38.5032C69.6452 38.1168 70.0033 37.7923 70.4157 37.5501C70.828 37.3078 71.2858 37.1529 71.7605 37.095C91.5067 34.644 111.06 34.6398 129.877 37.0823C130.345 37.1396 130.796 37.2927 131.202 37.5319C131.609 37.7711 131.962 38.0914 132.239 38.4729C132.507 38.8359 132.697 39.2501 132.797 39.6898C132.898 40.1294 132.907 40.5851 132.824 41.0283L129.042 61.4586C128.225 65.8688 124.286 69.0697 119.675 69.0697Z" fill="url(#paint3_linear_475_601)"/>
<path d="M43.5388 41.8647L43.7018 38.9321C43.7273 38.4752 43.863 38.0313 44.0974 37.6384C44.3319 37.2454 44.6581 36.9151 45.048 36.6757C47.412 35.2255 53.7887 32.0326 61.9262 33.7063C62.4977 33.8246 63.0188 34.116 63.4188 34.5408C63.8189 34.9657 64.0784 35.5034 64.1621 36.0809L64.3799 37.6068L43.5388 41.8647Z" fill="#3F3D56"/>
<path d="M158.291 41.8648L137.45 37.6069L137.8 35.1554C137.841 34.8659 137.967 34.5951 138.162 34.3778C138.358 34.1606 138.614 34.0067 138.897 33.9361C148.282 31.5809 155.465 35.7634 157.444 37.1013C157.631 37.2288 157.787 37.3977 157.899 37.595C158.011 37.7923 158.076 38.0127 158.09 38.2392L158.291 41.8648Z" fill="#3F3D56"/>
<path d="M36.9215 132.612C36.4192 132.618 35.926 132.479 35.5002 132.212C29.9198 128.954 26.4408 122.982 25.1677 114.469C24.1161 107.436 24.5553 98.6094 26.4729 88.2331C29.8727 69.8367 36.9983 51.4486 39.9041 44.3967C40.2891 43.4659 40.8873 42.6385 41.6505 41.9813C42.4138 41.324 43.3207 40.8552 44.2983 40.6126C50.2888 39.1392 60.7462 36.6674 63.4772 36.6674C67.2198 36.6674 69.2449 40.1905 69.265 40.2261L69.2762 40.2552L72.563 54.508V54.7137C74.3763 60.8488 73.029 65.2806 71.5784 67.9183C70.0041 70.7813 67.967 72.2107 67.9467 72.2248C64.7478 74.66 59.5363 82.5051 54.3496 92.6958C48.9598 103.286 44.9642 113.736 43.6617 120.649C42.0675 129.111 39.7305 131.701 38.0508 132.384C37.6928 132.533 37.3092 132.61 36.9215 132.612V132.612Z" fill="#E6E6E6"/>
<path d="M118.441 67.3182H83.0656C80.9777 67.3154 78.9555 66.5877 77.3445 65.2595C75.7335 63.9313 74.6336 62.085 74.2327 60.036L70.3613 40.105C70.2753 39.6639 70.2807 39.2097 70.3771 38.7707C70.4735 38.3317 70.6589 37.9171 70.9218 37.5525C71.1847 37.188 71.5196 36.8812 71.9057 36.6511C72.2918 36.421 72.721 36.2726 73.1668 36.2149C91.8253 33.8311 110.301 33.827 128.081 36.2025C128.521 36.2623 128.943 36.4105 129.324 36.6382C129.705 36.8658 130.035 37.1682 130.296 37.5271C130.557 37.886 130.742 38.294 130.841 38.7264C130.94 39.1588 130.95 39.6068 130.871 40.0432L127.297 59.9131C126.925 61.9905 125.834 63.8709 124.214 65.2247C122.595 66.5786 120.552 67.3197 118.441 67.3182V67.3182Z" fill="#E6E6E6"/>
<path d="M164.909 132.612C164.521 132.611 164.137 132.533 163.779 132.384C162.1 131.701 159.763 129.111 158.168 120.649C156.866 113.736 152.87 103.286 147.48 92.6958C142.294 82.5051 137.082 74.66 133.879 72.2219C133.863 72.2107 131.826 70.7813 130.252 67.9183C128.801 65.2806 127.454 60.8487 129.267 54.7137L129.27 54.4834L132.557 40.2398L132.565 40.2262C132.585 40.1906 134.61 36.6674 138.353 36.6674C141.084 36.6674 151.541 39.1392 157.532 40.6126C158.509 40.8553 159.416 41.3241 160.179 41.9814C160.943 42.6386 161.541 43.4659 161.926 44.3967V44.3967C164.832 51.4486 171.957 69.8367 175.357 88.2331C177.275 98.6094 177.714 107.436 176.662 114.469C175.389 122.982 171.91 128.954 166.322 132.217C165.899 132.481 165.408 132.618 164.909 132.612V132.612Z" fill="#E6E6E6"/>
<path d="M76.8321 91.2915C81.5478 91.2915 85.3706 87.4688 85.3706 82.7531C85.3706 78.0375 81.5478 74.2147 76.8321 74.2147C72.1165 74.2147 68.2937 78.0375 68.2937 82.7531C68.2937 87.4688 72.1165 91.2915 76.8321 91.2915Z" fill="#3F3D56"/>
<path d="M76.8322 88.4454C79.976 88.4454 82.5245 85.8969 82.5245 82.7531C82.5245 79.6094 79.976 77.0608 76.8322 77.0608C73.6884 77.0608 71.1399 79.6094 71.1399 82.7531C71.1399 85.8969 73.6884 88.4454 76.8322 88.4454Z" fill="#2F2E41"/>
<path d="M124.56 91.2915C129.276 91.2915 133.098 87.4688 133.098 82.7531C133.098 78.0375 129.276 74.2147 124.56 74.2147C119.844 74.2147 116.021 78.0375 116.021 82.7531C116.021 87.4688 119.844 91.2915 124.56 91.2915Z" fill="#3F3D56"/>
<path d="M124.56 88.4454C127.704 88.4454 130.252 85.8969 130.252 82.7531C130.252 79.6094 127.704 77.0608 124.56 77.0608C121.416 77.0608 118.868 79.6094 118.868 82.7531C118.868 85.8969 121.416 88.4454 124.56 88.4454Z" fill="#2F2E41"/>
<path d="M95.4417 72.4632C95.8045 72.4632 96.0985 72.1691 96.0985 71.8064C96.0985 71.4437 95.8045 71.1496 95.4417 71.1496C95.079 71.1496 94.7849 71.4437 94.7849 71.8064C94.7849 72.1691 95.079 72.4632 95.4417 72.4632Z" fill="#2F2E41"/>
<path d="M98.2877 72.4632C98.6504 72.4632 98.9445 72.1691 98.9445 71.8064C98.9445 71.4437 98.6504 71.1496 98.2877 71.1496C97.9249 71.1496 97.6309 71.4437 97.6309 71.8064C97.6309 72.1691 97.9249 72.4632 98.2877 72.4632Z" fill="#2F2E41"/>
<path d="M96.9742 74.8715C97.3369 74.8715 97.631 74.5774 97.631 74.2147C97.631 73.8519 97.3369 73.5579 96.9742 73.5579C96.6114 73.5579 96.3174 73.8519 96.3174 74.2147C96.3174 74.5774 96.6114 74.8715 96.9742 74.8715Z" fill="#2F2E41"/>
<path d="M99.6014 74.8715C99.9641 74.8715 100.258 74.5774 100.258 74.2147C100.258 73.8519 99.9641 73.5579 99.6014 73.5579C99.2386 73.5579 98.9446 73.8519 98.9446 74.2147C98.9446 74.5774 99.2386 74.8715 99.6014 74.8715Z" fill="#2F2E41"/>
<path d="M102.229 74.8715C102.591 74.8715 102.885 74.5774 102.885 74.2147C102.885 73.8519 102.591 73.5579 102.229 73.5579C101.866 73.5579 101.572 73.8519 101.572 74.2147C101.572 74.5774 101.866 74.8715 102.229 74.8715Z" fill="#2F2E41"/>
<path d="M104.856 74.8715C105.219 74.8715 105.513 74.5774 105.513 74.2147C105.513 73.8519 105.219 73.5579 104.856 73.5579C104.493 73.5579 104.199 73.8519 104.199 74.2147C104.199 74.5774 104.493 74.8715 104.856 74.8715Z" fill="#2F2E41"/>
<path d="M101.134 72.4632C101.497 72.4632 101.791 72.1691 101.791 71.8064C101.791 71.4437 101.497 71.1496 101.134 71.1496C100.771 71.1496 100.477 71.4437 100.477 71.8064C100.477 72.1691 100.771 72.4632 101.134 72.4632Z" fill="#2F2E41"/>
<path d="M103.98 72.4632C104.343 72.4632 104.637 72.1691 104.637 71.8064C104.637 71.4437 104.343 71.1496 103.98 71.1496C103.617 71.1496 103.323 71.4437 103.323 71.8064C103.323 72.1691 103.617 72.4632 103.98 72.4632Z" fill="#2F2E41"/>
<path d="M106.826 72.4632C107.189 72.4632 107.483 72.1691 107.483 71.8064C107.483 71.4437 107.189 71.1496 106.826 71.1496C106.463 71.1496 106.169 71.4437 106.169 71.8064C106.169 72.1691 106.463 72.4632 106.826 72.4632Z" fill="#2F2E41"/>
<path d="M103.761 92.0578H98.0689C97.8077 92.0578 97.5571 91.954 97.3723 91.7693C97.1875 91.5845 97.0837 91.3339 97.0837 91.0726C97.0837 90.8113 97.1875 90.5607 97.3723 90.376C97.5571 90.1912 97.8077 90.0874 98.0689 90.0874H103.761C104.023 90.0874 104.273 90.1912 104.458 90.376C104.643 90.5607 104.746 90.8113 104.746 91.0726C104.746 91.3339 104.643 91.5845 104.458 91.7693C104.273 91.954 104.023 92.0578 103.761 92.0578Z" fill="#2F2E41"/>
<path d="M66.0702 49.2312C65.7028 49.2302 65.3465 49.1054 65.0587 48.8771C64.771 48.6487 64.5686 48.33 64.4842 47.9725L63.6112 44.2663C63.5125 43.845 63.585 43.4018 63.8128 43.0339C64.0407 42.6661 64.4052 42.4037 64.8264 42.3045C65.2476 42.2053 65.6909 42.2774 66.059 42.5048C66.427 42.7323 66.6898 43.0966 66.7894 43.5177L67.6624 47.2238C67.7185 47.4637 67.7197 47.7132 67.6659 47.9537C67.612 48.1941 67.5046 48.4193 67.3514 48.6123C67.1983 48.8054 67.0035 48.9613 66.7817 49.0685C66.5598 49.1757 66.3166 49.2313 66.0702 49.2312V49.2312Z" fill="#3F3D56"/>
<path d="M135.979 49.0123C135.732 49.0124 135.489 48.9567 135.267 48.8495C135.045 48.7424 134.851 48.5864 134.697 48.3934C134.544 48.2004 134.437 47.9752 134.383 47.7347C134.329 47.4943 134.33 47.2448 134.387 47.0049L135.259 43.2987C135.359 42.8777 135.622 42.5134 135.99 42.2859C136.358 42.0584 136.801 41.9864 137.223 42.0856C137.644 42.1848 138.008 42.4471 138.236 42.815C138.464 43.1828 138.536 43.6261 138.438 44.0474L137.565 47.7535C137.48 48.1111 137.278 48.4297 136.99 48.6581C136.702 48.8865 136.346 49.0113 135.979 49.0123V49.0123Z" fill="#3F3D56"/>
<path d="M54.0253 60.1708C53.4881 60.1709 52.9638 60.0055 52.5239 59.6971L50.6915 58.4144C50.3467 58.1729 50.0653 57.8518 49.8709 57.4784C49.6765 57.1051 49.5749 56.6904 49.5747 56.2694V52.341C49.5756 51.5522 49.8894 50.7959 50.4472 50.2381C51.005 49.6803 51.7612 49.3665 52.5501 49.3656H55.3567C56.1456 49.3665 56.9018 49.6803 57.4596 50.2381C58.0174 50.7959 58.3312 51.5522 58.3321 52.341V56.308C58.3313 56.7181 58.2346 57.1223 58.0496 57.4882C57.8647 57.8542 57.5966 58.1718 57.2669 58.4157L55.5784 59.6599C55.1287 59.9919 54.5843 60.1709 54.0253 60.1708V60.1708Z" fill="#3F3D56"/>
<path d="M55.3567 74.5431H52.5501C51.7612 74.5422 51.005 74.2284 50.4472 73.6706C49.8894 73.1128 49.5756 72.3565 49.5747 71.5677V67.6392C49.5749 67.2183 49.6765 66.8036 49.8709 66.4302C50.0653 66.0568 50.3467 65.7358 50.6915 65.4943L52.5239 64.2116C52.9728 63.897 53.5091 63.7314 54.0572 63.7381C54.6052 63.7448 55.1373 63.9234 55.5784 64.2488L57.2669 65.493C57.5966 65.7368 57.8647 66.0544 58.0496 66.4204C58.2346 66.7864 58.3313 67.1906 58.3321 67.6007V71.5677C58.3312 72.3565 58.0174 73.1128 57.4596 73.6706C56.9018 74.2284 56.1456 74.5422 55.3567 74.5431V74.5431Z" fill="#3F3D56"/>
<path d="M64.1143 66.333H60.1858C59.7649 66.3328 59.3502 66.2313 58.9768 66.0369C58.6034 65.8425 58.2824 65.561 58.0409 65.2162L56.7581 63.3838C56.4436 62.9349 56.2779 62.3986 56.2846 61.8506C56.2913 61.3025 56.4699 60.7704 56.7953 60.3293L58.0396 58.6408C58.2834 58.3111 58.601 58.0431 58.967 57.8581C59.333 57.6731 59.7372 57.5764 60.1472 57.5756H64.1143C64.9031 57.5765 65.6594 57.8903 66.2172 58.4481C66.775 59.0059 67.0887 59.7622 67.0896 60.551V63.3576C67.0887 64.1465 66.775 64.9027 66.2172 65.4605C65.6594 66.0183 64.9031 66.3321 64.1143 66.333V66.333Z" fill="#3F3D56"/>
<path d="M47.5022 66.333H43.5738C42.7849 66.3321 42.0287 66.0183 41.4709 65.4605C40.9131 64.9027 40.5993 64.1465 40.5984 63.3576V60.551C40.5993 59.7622 40.913 59.0059 41.4708 58.4481C42.0286 57.8903 42.7849 57.5765 43.5738 57.5756H47.5408C47.9509 57.5764 48.3551 57.6731 48.721 57.8581C49.087 58.0431 49.4046 58.3111 49.6485 58.6408L50.8927 60.3293C51.2181 60.7704 51.3968 61.3025 51.4034 61.8506C51.4101 62.3986 51.2445 62.9349 50.9299 63.3838L49.6472 65.2162C49.4057 65.561 49.0846 65.8425 48.7112 66.0369C48.3379 66.2313 47.9232 66.3328 47.5022 66.333V66.333Z" fill="#3F3D56"/>
<path d="M147.986 55.8242C150.767 55.8242 153.021 53.5697 153.021 50.7887C153.021 48.0076 150.767 45.7532 147.986 45.7532C145.205 45.7532 142.95 48.0076 142.95 50.7887C142.95 53.5697 145.205 55.8242 147.986 55.8242Z" fill="#3F3D56"/>
<path d="M159.152 67.4277C161.933 67.4277 164.187 65.1732 164.187 62.3922C164.187 59.6112 161.933 57.3567 159.152 57.3567C156.371 57.3567 154.116 59.6112 154.116 62.3922C154.116 65.1732 156.371 67.4277 159.152 67.4277Z" fill="#3F3D56"/>
<path d="M147.986 78.3744C150.767 78.3744 153.021 76.12 153.021 73.3389C153.021 70.5579 150.767 68.3034 147.986 68.3034C145.205 68.3034 142.95 70.5579 142.95 73.3389C142.95 76.12 145.205 78.3744 147.986 78.3744Z" fill="#3F3D56"/>
<path d="M136.82 67.2088C139.601 67.2088 141.856 64.9543 141.856 62.1733C141.856 59.3923 139.601 57.1378 136.82 57.1378C134.039 57.1378 131.785 59.3923 131.785 62.1733C131.785 64.9543 134.039 67.2088 136.82 67.2088Z" fill="#3F3D56"/>
<path d="M159.152 65.6762C158.502 65.6762 157.867 65.4836 157.327 65.1228C156.787 64.7619 156.366 64.249 156.118 63.6489C155.869 63.0489 155.804 62.3886 155.931 61.7515C156.057 61.1145 156.37 60.5293 156.83 60.07C157.289 59.6108 157.874 59.298 158.511 59.1713C159.148 59.0446 159.808 59.1096 160.408 59.3582C161.009 59.6067 161.521 60.0276 161.882 60.5677C162.243 61.1078 162.436 61.7427 162.436 62.3922C162.435 63.2629 162.088 64.0976 161.473 64.7133C160.857 65.3289 160.022 65.6752 159.152 65.6762V65.6762ZM159.152 59.5461C158.589 59.5461 158.039 59.713 157.57 60.0257C157.102 60.3385 156.738 60.783 156.522 61.303C156.307 61.8231 156.25 62.3954 156.36 62.9475C156.47 63.4996 156.741 64.0067 157.139 64.4047C157.537 64.8028 158.044 65.0738 158.596 65.1837C159.149 65.2935 159.721 65.2371 160.241 65.0217C160.761 64.8063 161.205 64.4415 161.518 63.9734C161.831 63.5054 161.998 62.9551 161.998 62.3922C161.997 61.6376 161.697 60.9142 161.163 60.3806C160.63 59.847 159.906 59.5469 159.152 59.5461V59.5461Z" fill="#E6E6E6"/>
<path d="M151.505 53.2319L144.905 53.1386L148.286 47.4697L151.505 53.2319ZM145.67 52.7114L150.753 52.7833L148.273 48.3454L145.67 52.7114Z" fill="#E6E6E6"/>
<path d="M139.448 64.8005H134.193V59.5461H139.448V64.8005ZM134.631 64.3626H139.01V59.9839H134.631V64.3626Z" fill="#E6E6E6"/>
<path d="M150.703 75.5996L148.296 73.197L150.419 71.0782L150.109 70.7682L147.986 72.8875L145.863 70.7682L145.553 71.0782L147.676 73.197L145.269 75.5996L145.578 75.9096L147.986 73.5064L150.394 75.9096L150.703 75.5996Z" fill="#E6E6E6"/>
<path d="M54.0181 16.1661C53.3686 16.1661 52.7337 15.9735 52.1936 15.6126C51.6536 15.2518 51.2327 14.7389 50.9841 14.1388C50.7356 13.5387 50.6705 12.8784 50.7972 12.2414C50.9239 11.6043 51.2367 11.0192 51.696 10.5599C52.1553 10.1006 52.7404 9.78784 53.3775 9.66113C54.0145 9.53441 54.6748 9.59945 55.2749 9.84801C55.875 10.0966 56.3879 10.5175 56.7487 11.0575C57.1096 11.5976 57.3022 12.2325 57.3022 12.882C57.3012 13.7527 56.9549 14.5874 56.3392 15.2031C55.7236 15.8188 54.8888 16.1651 54.0181 16.1661V16.1661ZM54.0181 10.0359C53.4552 10.0359 52.905 10.2028 52.4369 10.5156C51.9689 10.8283 51.6041 11.2728 51.3886 11.7929C51.1732 12.3129 51.1169 12.8852 51.2267 13.4373C51.3365 13.9894 51.6076 14.4965 52.0056 14.8946C52.4037 15.2926 52.9108 15.5637 53.4629 15.6735C54.015 15.7833 54.5873 15.727 55.1073 15.5115C55.6274 15.2961 56.0719 14.9313 56.3846 14.4633C56.6974 13.9952 56.8643 13.445 56.8643 12.882C56.8635 12.1275 56.5633 11.404 56.0298 10.8704C55.4962 10.3369 54.7727 10.0367 54.0181 10.0359V10.0359Z" fill="#E6E6E6"/>
<path d="M46.5902 10.7276L39.9905 10.6343L43.3712 4.96542L46.5902 10.7276ZM40.755 10.2071L45.838 10.2791L43.3588 5.84116L40.755 10.2071Z" fill="#E6E6E6"/>
<path d="M36.8765 18.7148H31.6221V13.4603H36.8765V18.7148ZM32.0599 18.2769H36.4386V13.8982H32.0599V18.2769Z" fill="#E6E6E6"/>
<path d="M41.629 28.4976L39.2218 26.095L41.3446 23.9764L41.0352 23.6664L38.9118 25.7857L36.7883 23.6664L36.479 23.9764L38.6018 26.095L36.1946 28.4976L36.5039 28.8076L38.9118 26.4044L41.3196 28.8076L41.629 28.4976Z" fill="#E6E6E6"/>
<path opacity="0.2" d="M189.912 75.4188L181.414 81.8145L191.007 77.6081L189.912 75.4188Z" fill="black"/>
<path d="M32.7169 83.3004L21.9891 83.7383L20.6755 76.5135L29.8708 73.6673L32.7169 83.3004Z" fill="#A0616A"/>
<path d="M28.7726 65.5939L26.3799 63.1575L29.3137 58.6716L34.3352 50.3129C34.1711 49.9528 34.1202 49.5514 34.1893 49.1618C34.2583 48.7721 34.444 48.4126 34.7218 48.1308C34.9996 47.849 35.3564 47.6582 35.745 47.5835C36.1336 47.5089 36.5357 47.5541 36.8981 47.7129C37.2605 47.8718 37.5662 48.137 37.7746 48.4734C37.983 48.8097 38.0844 49.2014 38.0654 49.5967C38.0463 49.9919 37.9077 50.3721 37.6679 50.6869C37.4282 51.0016 37.0985 51.2362 36.7225 51.3595L32.5776 60.2831L28.7726 65.5939Z" fill="#A0616A"/>
<path d="M26.1222 71.1559C25.8412 71.591 25.4409 71.9359 24.9691 72.1495C24.4973 72.3632 23.974 72.4364 23.4617 72.3605C22.974 72.303 22.5138 72.1043 22.1375 71.7889C21.7612 71.4734 21.4852 71.055 21.3434 70.5849C21.239 70.2512 21.2086 69.8988 21.2543 69.5522C21.3 69.2056 21.4208 68.8732 21.6083 68.578C23.209 65.8796 26.1612 62.316 26.1908 62.2804L26.2378 62.2238L31.2171 63.3025L26.1222 71.1559Z" fill="url(#paint4_linear_475_601)"/>
<path d="M30.1601 130.873L33.1352 130.873L34.5504 119.397L30.1594 119.397L30.1601 130.873Z" fill="#A0616A"/>
<path d="M29.4009 129.902L35.26 129.901H35.2602C36.2505 129.901 37.2002 130.295 37.9004 130.995C38.6006 131.695 38.994 132.645 38.9941 133.635V133.757L29.4011 133.757L29.4009 129.902Z" fill="#2F2E41"/>
<path d="M6.99463 129.585L9.93623 130.03L13.0512 118.895L9.19492 118.238L6.99463 129.585Z" fill="#A0616A"/>
<path d="M6.38938 128.511L12.1827 129.387L12.1829 129.387C13.162 129.535 14.0422 130.066 14.6299 130.863C15.2176 131.66 15.4646 132.658 15.3167 133.637L15.2985 133.757L5.81323 132.323L6.38938 128.511Z" fill="#2F2E41"/>
<path d="M21.5513 81.549L31.8412 79.7975L35.025 86.3603L35.1464 129.192L29.4989 129.157L27.1382 94.4898L12.0925 126.523L6.02563 125.795L19.2513 91.4564C19.2513 91.4564 18.5233 85.3896 20.8287 82.3562L21.5513 81.549Z" fill="#2F2E41"/>
<path d="M17.7312 68.6189C17.574 68.1465 17.5573 67.6386 17.6831 67.1569C17.809 66.6751 18.0721 66.2403 18.4403 65.9052L19.9027 64.576L24.0255 63.8814L26.6033 63.4128L30.7465 75.4188L20.6836 80.0421C19.8005 79.8514 19.4477 79.3683 19.9616 78.4078L17.7312 68.6189Z" fill="url(#paint5_linear_475_601)"/>
<path d="M26.9663 72.67L29.8449 70.833L33.627 74.6313L40.7662 81.2732C41.1524 81.1872 41.5557 81.2204 41.9226 81.3686C42.2895 81.5167 42.6028 81.7728 42.8211 82.1028C43.0393 82.4329 43.1523 82.8215 43.1449 83.2171C43.1375 83.6127 43.0102 83.9968 42.7797 84.3185C42.5493 84.6402 42.2267 84.8844 41.8545 85.0187C41.4823 85.1531 41.0781 85.1713 40.6953 85.0709C40.3125 84.9705 39.9693 84.7563 39.7109 84.4565C39.4525 84.1568 39.2913 83.7857 39.2484 83.3923L31.3751 77.4913L26.9663 72.67Z" fill="#A0616A"/>
<path d="M22.0728 68.926C21.7053 68.5612 21.4506 68.0982 21.3392 67.5925C21.2278 67.0867 21.2645 66.5596 21.4447 66.0741C21.602 65.609 21.8916 65.2 22.278 64.8971C22.6645 64.5942 23.1309 64.4107 23.6201 64.369C23.9681 64.3359 24.3192 64.379 24.6488 64.4954C24.9785 64.6119 25.2787 64.7988 25.5287 65.0432C27.8376 67.1674 30.7135 70.7931 30.7422 70.8293L30.7879 70.8871L28.7025 75.5354L22.0728 68.926Z" fill="url(#paint6_linear_475_601)"/>
<path d="M22.216 62.4207C24.7154 62.4207 26.7416 60.3946 26.7416 57.8951C26.7416 55.3957 24.7154 53.3696 22.216 53.3696C19.7166 53.3696 17.6904 55.3957 17.6904 57.8951C17.6904 60.3946 19.7166 62.4207 22.216 62.4207Z" fill="#A0616A"/>
<path d="M18.5522 64.3423C17.8504 64.3422 17.1493 64.2995 16.4526 64.2144L16.3571 64.2027L15.6282 60.2452C15.319 58.5676 15.6637 56.8352 16.5915 55.4037C17.5194 53.9722 18.9599 52.9501 20.6176 52.5473C20.7282 52.5193 20.8444 52.5223 20.9534 52.556C21.0624 52.5898 21.16 52.6529 21.2354 52.7385L21.4093 52.6779C22.0749 52.4458 22.7797 52.3471 23.4835 52.3874C24.1873 52.4277 24.8762 52.6062 25.511 52.9127C26.1458 53.2193 26.714 53.6478 27.1832 54.174C27.6524 54.7001 28.0133 55.3135 28.2454 55.9792L28.2885 56.1028L27.1283 56.5073C26.7668 56.6334 26.4379 56.8385 26.1656 57.1076C25.8933 57.3767 25.6845 57.7032 25.5542 58.0632C25.4239 58.4232 25.3756 58.8077 25.4126 59.1888C25.4496 59.5698 25.5711 59.9378 25.7682 60.266L26.9545 62.2408L26.8282 62.3041C24.2679 63.6242 21.4327 64.3225 18.5522 64.3423V64.3423Z" fill="#2F2E41"/>
<path d="M174.03 83.2804C174.083 83.0274 174.19 82.7889 174.345 82.5818C174.499 82.3747 174.697 82.204 174.925 82.0818C175.152 81.9595 175.404 81.8886 175.662 81.8741C175.92 81.8596 176.178 81.9018 176.418 81.9978L180.534 77.2541L181.414 80.3968L177.371 84.4197C177.183 84.812 176.857 85.1217 176.456 85.2901C176.055 85.4586 175.606 85.474 175.194 85.3336C174.783 85.1932 174.437 84.9066 174.222 84.5281C174.008 84.1497 173.94 83.7058 174.03 83.2804H174.03Z" fill="#FFB6B6"/>
<path d="M192.397 62.4248L194.083 62.3336L194.337 63.4055C194.337 63.4055 194.312 64.7779 192.775 67.6307C191.237 70.4835 179.325 83.1849 179.325 83.1849L176.745 80.257L183.121 73.6889L186.983 66.8049L192.397 62.4248Z" fill="url(#paint7_linear_475_601)"/>
<defs>
<linearGradient id="paint0_linear_475_601" x1="167.528" y1="60.6321" x2="178.842" y2="60.8843" gradientUnits="userSpaceOnUse">
<stop stop-color="#E1A200"/>
<stop offset="1" stop-color="#FF5C00"/>
</linearGradient>
<linearGradient id="paint1_linear_475_601" x1="177.084" y1="57.2546" x2="195.217" y2="57.8213" gradientUnits="userSpaceOnUse">
<stop stop-color="#E1A200"/>
<stop offset="1" stop-color="#FF5C00"/>
</linearGradient>
<linearGradient id="paint2_linear_475_601" x1="33.3738" y1="7.98697" x2="56.7632" y2="9.15639" gradientUnits="userSpaceOnUse">
<stop stop-color="#E1A200"/>
<stop offset="1" stop-color="#FF5C00"/>
</linearGradient>
<linearGradient id="paint3_linear_475_601" x1="68.731" y1="35.2536" x2="135.487" y2="41.5851" gradientUnits="userSpaceOnUse">
<stop stop-color="#E1A200"/>
<stop offset="1" stop-color="#FF5C00"/>
</linearGradient>
<linearGradient id="paint4_linear_475_601" x1="21.2336" y1="62.2238" x2="31.691" y2="62.7372" gradientUnits="userSpaceOnUse">
<stop stop-color="#E1A200"/>
<stop offset="1" stop-color="#FF5C00"/>
</linearGradient>
<linearGradient id="paint5_linear_475_601" x1="17.5996" y1="63.4128" x2="31.3823" y2="63.9576" gradientUnits="userSpaceOnUse">
<stop stop-color="#E1A200"/>
<stop offset="1" stop-color="#FF5C00"/>
</linearGradient>
<linearGradient id="paint6_linear_475_601" x1="21.2761" y1="64.3582" x2="31.2454" y2="64.7824" gradientUnits="userSpaceOnUse">
<stop stop-color="#E1A200"/>
<stop offset="1" stop-color="#FF5C00"/>
</linearGradient>
<linearGradient id="paint7_linear_475_601" x1="176.745" y1="62.3336" x2="195.184" y2="63.1115" gradientUnits="userSpaceOnUse">
<stop stop-color="#E1A200"/>
<stop offset="1" stop-color="#FF5C00"/>
</linearGradient>
</defs>
</svg>
