<svg width="66" height="49" viewBox="0 0 66 49" fill="none" xmlns="http://www.w3.org/2000/svg">
<path fill-rule="evenodd" clip-rule="evenodd" d="M42.1397 4.50964C41.8922 3.78286 41.1771 5.02141 42.1397 4.50964V4.50964Z" fill="#0BD21F"/>
<path fill-rule="evenodd" clip-rule="evenodd" d="M57.0803 1.57522C52.0868 2.37692 47.4867 3.31658 43.0261 4.80822C42.6548 4.84327 42.497 4.51135 42.146 4.51121C42.1731 4.66602 42.1887 4.815 41.9653 4.82631C40.8026 5.59631 37.7883 5.09052 38.9154 5.37685C39.0704 5.35067 39.2186 5.33575 39.2295 5.55936C37.9068 5.4994 37.6006 6.65749 37.0589 6.40764C36.9838 5.80373 38.08 5.87529 38.102 5.32863C36.8576 5.54907 36.6585 6.87773 35.7981 5.6793L34.3076 6.07868C35.2679 6.60846 32.1433 7.96212 33.3134 6.34509L32.8163 6.47829C32.3395 7.47542 30.7327 7.07971 30.0995 8.27189C30.0756 7.58538 29.7603 7.4037 29.1537 7.72584L29.087 7.47704L25.6067 8.40959C23.1366 10.1718 19.2607 9.72784 17.4206 11.6687C16.3787 11.9112 17.3267 11.5184 17.2874 11.1716C13.4193 12.4479 2.13644 13.8633 0.532959 17.2599L3.53064 28.4474C4.12122 29.8524 5.35767 31.9012 4.66306 32.6737L4.79627 33.1708C5.7732 34.6987 6.302 37.2827 6.46164 39.3861L6.52831 39.6348C8.44962 42.0642 7.45638 46.5206 10.1029 48.0032C13.2732 47.3415 15.0041 46.1581 17.6275 46.2521L17.8763 46.1854C32.6969 40.8165 49.4244 37.3178 65.3432 32.4011C63.1555 22.5901 60.0947 11.1672 57.0804 1.57528L57.0803 1.57522ZM24.8312 40.3263C24.3841 39.4826 23.0911 40.9557 22.2119 40.4954C23.127 39.4487 24.8828 40.1916 25.5593 39.0666C26.3368 39.2622 25.1055 40.0461 24.8312 40.3263L24.8312 40.3263ZM18.1804 38.3777C17.0613 36.4337 15.3797 35.4633 13.1365 35.4656L10.3387 25.0241C12.0344 23.8312 13.4881 22.4995 13.3175 20.229L17.2955 19.1631C17.3056 19.4489 16.8454 19.4646 16.9316 19.7934C17.4748 19.5825 19.628 18.4216 20.5941 18.5454C20.248 17.5279 21.7139 18.4739 21.7882 19.0249C22.6563 18.7557 22.7092 18.0154 23.5773 17.7461C23.2348 18.2953 25.1232 18.0956 25.2508 17.031C25.7283 16.9318 25.6438 17.8059 26.1966 17.577C28.9967 16.2107 31.785 16.7037 33.7039 14.766C33.531 14.1372 34.528 14.8004 34.1036 14.9741C37.7568 14.6401 43.1264 12.4321 48.5052 11.3328C49.5563 13.1542 51.2959 13.779 53.2346 14.0625C54.1064 17.5695 54.9936 20.0519 55.7662 23.5108C54.0244 24.7457 53.0354 26.4174 52.8541 28.5547C42.9398 31.977 30.0384 35.0597 18.1805 38.3778L18.1804 38.3777ZM43.7244 35.2639C43.935 35.2917 47.4689 33.0383 48.9454 33.865C47.1504 34.6503 45.134 35.3655 43.7244 35.2639ZM62.8198 30.9468C57.9928 31.9959 53.2344 33.3308 49.195 33.7981C51.6642 31.763 58.6215 32.1882 56.4 27.8706C57.3681 26.8886 58.5538 26.0311 59.6636 25.13C58.8313 20.2592 57.0488 15.7487 56.1806 11.1415C54.9462 10.0032 52.765 10.5068 51.2882 9.78784C51.0289 9.02363 50.9669 7.91758 50.4413 7.61687C45.7561 7.40659 41.5442 9.84671 37.2637 11.1478C29.2518 13.583 19.7379 15.1668 11.4094 18.0754C10.3729 18.9484 11.21 20.9035 10.6018 22.022C9.84015 22.8422 8.32631 23.23 7.70279 24.1311L11.2334 37.3075C11.777 38.3077 13.4328 37.3823 14.3014 37.8177C15.8997 38.977 16.0658 40.3624 17.6711 41.4445C19.3081 41.0202 20.4079 40.3379 21.8974 40.3121C18.8268 42.7204 14.8886 42.3234 11.904 43.7893C8.85512 35.0006 6.91466 26.3991 4.86042 18.4976C20.2397 13.6561 37.34 8.95316 55.376 4.16256C58.2198 12.4635 60.2789 22.124 62.8195 30.947L62.8198 30.9468Z" fill="#0BD21F"/>
<path fill-rule="evenodd" clip-rule="evenodd" d="M34.0991 14.9748C33.9915 14.9849 33.8722 15.0089 33.7678 15.0147C33.9299 15.0221 34.0276 15.0038 34.0991 14.9748Z" fill="#0BD21F"/>
<path fill-rule="evenodd" clip-rule="evenodd" d="M25.8435 26.1997C27.0401 31.3407 33.994 33.6175 37.8531 31.2423C38.3381 30.9438 38.454 30.3606 38.8963 30.1633C38.9426 30.142 39.0405 30.7477 39.2766 30.5932C39.2835 30.5894 39.2284 29.8825 39.3256 29.7806C39.8635 29.2281 40.3488 29.3523 40.9991 29.0656C41.094 28.2674 41.0272 27.526 41.0299 27.1922C43.2248 27.2668 40.6159 22.9999 41.904 23.4939C38.4378 10.8205 23.6141 16.6205 25.8434 26.1998L25.8435 26.1997ZM30.2569 28.7474C25.4997 24.1323 30.3015 17.7673 34.2915 19.9392C39.325 22.6791 38.8268 30.6944 30.2569 28.7474Z" fill="#0BD21F"/>
</svg>
