<svg width="83" height="89" viewBox="0 0 83 89" fill="none" xmlns="http://www.w3.org/2000/svg">
<path d="M38.1553 53.1094V31.4218H39.9294C40.8164 31.4218 41.6051 30.6331 41.6051 29.746C41.6051 28.859 40.8164 28.0703 39.9294 28.0703H20.9034C20.0163 28.0703 19.2276 28.859 19.2276 29.746C19.2276 30.6331 20.0163 31.4218 20.9034 31.4218H22.6775V53.1094L0.989845 86.331C0.694158 86.824 0.595825 87.5137 0.891514 88.0067C1.18789 88.5005 1.77926 88.8945 2.37062 88.8945H58.4627C59.0541 88.8945 59.6455 88.5988 59.9412 88.0074C60.2368 87.5144 60.2368 86.8247 59.8428 86.3316L38.1553 53.1094ZM25.7338 54.4895C25.9312 54.1939 26.0295 53.8982 26.0295 53.6025V31.4219H34.8031V53.6025C34.8031 53.8982 34.9015 54.1939 35.0988 54.4895L41.6053 64.446L19.2276 64.4466L25.7338 54.4895ZM5.4263 85.5423L17.0584 67.6993H17.4524H43.4776H43.8716L55.5037 85.5423H5.4263Z" fill="#BCBCBC"/>
<path d="M39.8312 3.72079C39.8312 5.6806 38.242 7.26968 36.2823 7.26968C34.3225 7.26968 32.7334 5.68055 32.7334 3.72079C32.7334 1.76098 34.3225 0.171906 36.2823 0.171906C38.2421 0.171906 39.8312 1.76104 39.8312 3.72079Z" fill="#BCBCBC"/>
<path d="M24.7484 25.1126C29.3817 25.1126 33.2263 21.3664 33.2263 16.6347C33.2263 11.9031 29.4801 8.15685 24.7484 8.15685C20.0167 8.15685 16.2705 11.9031 16.2705 16.6347C16.2705 21.3664 20.0167 25.1126 24.7484 25.1126ZM24.7484 11.6073C27.6069 11.6073 29.8747 13.8745 29.8747 16.7337C29.8747 19.5921 27.6076 21.86 24.7484 21.86C21.8899 21.86 19.6221 19.5928 19.6221 16.7337C19.6221 13.8745 21.8892 11.6073 24.7484 11.6073Z" fill="#BCBCBC"/>
<path d="M80.6428 20.6765H64.9687C64.0817 20.6765 63.293 21.4653 63.293 22.3523C63.293 23.2394 64.0817 24.0281 64.9687 24.0281H66.0532V82.0918C66.0532 85.838 69.109 88.7949 72.7563 88.7949C76.4036 88.7949 79.4594 85.7391 79.4594 82.0918L79.4601 24.0281H80.5445C81.4315 24.0281 82.2202 23.2394 82.2202 22.3523C82.2202 21.4653 81.5298 20.6765 80.6428 20.6765H80.6428ZM76.3051 47.1946H69.4047V24.0283H76.3051V47.1946Z" fill="#BCBCBC"/>
</svg>
