<svg width="100" height="90" viewBox="0 0 100 90" fill="none" xmlns="http://www.w3.org/2000/svg">
<path d="M95.9757 0.688049H3.78548C2.97095 0.688049 2.18873 1.01134 1.61247 1.58762C1.0362 2.16391 0.712891 2.94543 0.712891 3.76064V86.338C0.712891 87.1533 1.03618 87.9348 1.61247 88.5111C2.18875 89.0873 2.97097 89.4106 3.78548 89.4106H95.9757C96.7903 89.4106 97.5725 89.0873 98.1488 88.5111C98.725 87.9348 99.0483 87.1533 99.0483 86.338V3.76064C99.0483 2.94541 98.725 2.16389 98.1488 1.58762C97.5725 1.01136 96.7903 0.688049 95.9757 0.688049ZM46.8068 71.0276V83.2633H28.6317V71.0276H46.8068ZM52.9527 71.0276H71.1277V83.2633H52.9527V71.0276ZM6.85663 64.8817V24.3649H92.901V64.8817H6.85663ZM52.9509 18.219V6.83233H71.1259V18.219H52.9509ZM46.805 18.219H28.6299V6.83233H46.805V18.219ZM92.901 18.219H77.2723V6.83233H92.901V18.219ZM22.4858 6.83233V18.219H6.85717V6.83233H22.4858ZM6.85717 71.026H22.4858V83.2617H6.85717V71.026ZM77.2723 83.2617L77.2716 71.026H92.9017V83.2617H77.2723ZM61.2978 42.385L41.5396 30.9807C40.5887 30.4318 39.4178 30.4325 38.467 30.9807C37.5168 31.5296 36.9307 32.5437 36.9307 33.6415V56.4493C36.9307 57.1718 37.1851 57.871 37.6489 58.4248C38.1135 58.9779 38.7579 59.3503 39.4698 59.4754C40.1811 59.6012 40.9141 59.4712 41.5396 59.11L61.2979 47.7057C62.2487 47.1568 62.8342 46.1427 62.8342 45.0449C62.8342 43.9472 62.2487 42.9331 61.2979 42.3842L61.2978 42.385ZM43.076 51.127V38.9644L53.6095 45.0457L43.076 51.127Z" fill="#BCBCBC"/>
</svg>
