<svg width="286" height="292" viewBox="0 0 286 292" fill="none" xmlns="http://www.w3.org/2000/svg">
<path d="M268.488 162.698L267.77 171.136C267.685 172.121 267.212 173.032 266.457 173.67C265.701 174.307 264.723 174.619 263.737 174.536L193.41 168.553C192.425 168.468 191.514 167.996 190.876 167.24C190.239 166.484 189.927 165.506 190.01 164.521L190.728 156.083C190.813 155.097 191.285 154.186 192.041 153.549C192.797 152.911 193.775 152.6 194.76 152.683L265.088 158.666C266.073 158.751 266.984 159.223 267.621 159.979C268.259 160.735 268.57 161.713 268.488 162.698V162.698Z" fill="white"/>
<path d="M282.501 203.857L274.712 207.181C272.82 207.988 270.874 207.688 270.372 206.514L253.168 166.19C252.667 165.015 253.798 163.403 255.69 162.596L263.479 159.272C265.371 158.465 267.317 158.765 267.819 159.94L285.022 200.263C285.524 201.438 284.393 203.05 282.501 203.857Z" fill="white"/>
<path d="M241.268 190.793H109.365C110.884 179.798 109.01 168.601 103.994 158.699C98.9778 148.797 91.0583 140.663 81.2944 135.384C71.5305 130.104 60.3876 127.931 49.3555 129.156C38.3235 130.38 27.9281 134.943 19.5594 142.235C11.1907 149.527 5.24749 159.2 2.52448 169.96C-0.198532 180.721 0.428425 192.057 4.32152 202.451C8.21461 212.846 15.1883 221.804 24.3101 228.129C33.4319 234.453 44.2671 237.842 55.3669 237.842C62.0353 237.849 68.648 236.629 74.8751 234.243V287.187C74.8751 288.404 75.3587 289.572 76.2195 290.432C77.0803 291.293 78.2478 291.777 79.4652 291.777H241.268C242.486 291.777 243.653 291.293 244.514 290.432C245.375 289.572 245.858 288.404 245.858 287.187V195.383C245.858 194.166 245.375 192.998 244.514 192.138C243.653 191.277 242.486 190.793 241.268 190.793Z" fill="url(#paint0_linear_475_585)"/>
<path d="M251.022 279.728H89.2186C87.8495 279.726 86.537 279.182 85.5689 278.213C84.6008 277.245 84.0562 275.933 84.0547 274.564V182.76C84.0562 181.391 84.6008 180.079 85.5689 179.111C86.537 178.142 87.8495 177.598 89.2186 177.596H251.022C252.391 177.598 253.703 178.142 254.671 179.111C255.64 180.079 256.184 181.391 256.186 182.76V274.564C256.184 275.933 255.64 277.245 254.671 278.213C253.703 279.182 252.391 279.726 251.022 279.728ZM89.2186 178.744C88.1538 178.745 87.1329 179.169 86.38 179.922C85.627 180.675 85.2035 181.695 85.2022 182.76V274.564C85.2035 275.629 85.627 276.649 86.38 277.402C87.1329 278.155 88.1538 278.579 89.2186 278.58H251.022C252.087 278.579 253.107 278.155 253.86 277.402C254.613 276.649 255.037 275.629 255.038 274.564V182.76C255.037 181.695 254.613 180.675 253.86 179.922C253.107 179.169 252.087 178.745 251.022 178.744H89.2186Z" fill="#3F3D56"/>
<path d="M251.275 169.01L250.558 177.448C250.473 178.433 250 179.344 249.245 179.982C248.489 180.619 247.511 180.931 246.525 180.848L176.198 174.865C175.213 174.78 174.301 174.308 173.664 173.552C173.027 172.796 172.715 171.818 172.798 170.833L173.516 162.394C173.601 161.409 174.073 160.498 174.829 159.861C175.585 159.223 176.563 158.912 177.548 158.994L247.876 164.977C248.861 165.062 249.772 165.535 250.409 166.29C251.047 167.046 251.358 168.024 251.275 169.01V169.01Z" fill="white"/>
<path d="M265.292 210.169L257.502 213.492C255.611 214.299 253.664 214 253.163 212.825L235.959 172.502C235.458 171.327 236.589 169.714 238.48 168.907L246.27 165.584C248.161 164.777 250.108 165.076 250.609 166.251L267.813 206.575C268.314 207.75 267.183 209.362 265.292 210.169Z" fill="white"/>
<path d="M62.826 223.498C51.9319 223.498 41.2824 220.268 32.2242 214.215C23.166 208.163 16.106 199.56 11.937 189.495C7.76801 179.43 6.6772 168.355 8.80255 157.67C10.9279 146.985 16.1739 137.171 23.8773 129.467C31.5806 121.764 41.3952 116.518 52.0801 114.393C62.7649 112.267 73.84 113.358 83.9049 117.527C93.9698 121.696 102.572 128.756 108.625 137.814C114.677 146.873 117.908 157.522 117.908 168.416C117.891 183.02 112.083 197.021 101.757 207.347C91.4303 217.673 77.4296 223.482 62.826 223.498ZM62.826 114.482C52.1588 114.482 41.7312 117.645 32.8617 123.571C23.9923 129.498 17.0794 137.921 12.9972 147.776C8.91505 157.632 7.84697 168.476 9.92804 178.938C12.0091 189.401 17.1459 199.011 24.6887 206.554C32.2316 214.096 41.8417 219.233 52.304 221.314C62.7662 223.395 73.6106 222.327 83.4658 218.245C93.321 214.163 101.744 207.25 107.671 198.381C113.597 189.511 116.76 179.083 116.76 168.416C116.744 154.117 111.057 140.408 100.945 130.297C90.8343 120.186 77.1253 114.498 62.826 114.482V114.482Z" fill="#3F3D56"/>
<path d="M182.407 86.6704C199.366 86.6704 213.115 72.9221 213.115 55.9628C213.115 39.0034 199.366 25.2551 182.407 25.2551C165.448 25.2551 151.699 39.0034 151.699 55.9628C151.699 72.9221 165.448 86.6704 182.407 86.6704Z" fill="white"/>
<path d="M186.928 67.3447L186.896 66.1972C189.031 66.1378 190.913 66.0039 192.327 64.9706C192.728 64.6611 193.058 64.2688 193.293 63.8204C193.529 63.3721 193.666 62.8782 193.693 62.3724C193.718 62.0634 193.671 61.7528 193.557 61.4647C193.442 61.1767 193.262 60.919 193.032 60.7116C192.093 59.9188 190.582 60.1754 189.481 60.6803L188.532 61.1156L190.353 47.8097L191.49 47.9654L189.941 59.2839C191.437 58.8441 192.823 59.0335 193.773 59.8353C194.137 60.1536 194.423 60.5518 194.608 60.9989C194.794 61.4461 194.873 61.9299 194.84 62.4128C194.807 63.0924 194.625 63.7564 194.308 64.3583C193.99 64.9603 193.545 65.4856 193.004 65.8974C191.187 67.2254 188.825 67.2915 186.928 67.3447Z" fill="#2F2E41"/>
<path d="M203.299 48.9418H197.118V50.0893H203.299V48.9418Z" fill="#2F2E41"/>
<path d="M183.791 48.9418H177.61V50.0893H183.791V48.9418Z" fill="#2F2E41"/>
<path d="M226.353 179.031H154.058C153.373 179.03 152.717 178.758 152.233 178.274C151.749 177.79 151.477 177.134 151.476 176.449V118.372C151.484 111.331 154.284 104.582 159.262 99.6039C164.24 94.6259 170.99 91.8257 178.03 91.8177H201.681C202.358 91.8185 203.008 92.0849 203.49 92.5597C203.973 93.0344 204.25 93.6796 204.262 94.3566L228.935 176.407V176.449C228.934 177.134 228.662 177.79 228.178 178.274C227.694 178.758 227.037 179.03 226.353 179.031V179.031Z" fill="#2F2E41"/>
<path d="M178.325 115.316L186.793 115.382C187.782 115.391 188.727 115.792 189.42 116.497C190.114 117.201 190.5 118.152 190.493 119.141L189.939 189.721C189.93 190.709 189.529 191.654 188.824 192.348C188.12 193.041 187.169 193.427 186.18 193.421L177.712 193.354C176.723 193.345 175.778 192.944 175.084 192.24C174.391 191.535 174.005 190.584 174.012 189.595L174.566 119.016C174.575 118.027 174.976 117.082 175.68 116.389C176.385 115.695 177.336 115.309 178.325 115.316Z" fill="white"/>
<path d="M169.833 112.474C169.833 109.126 171.163 105.915 173.531 103.548C175.898 101.181 179.109 99.8506 182.456 99.8506C185.804 99.8506 189.015 101.181 191.382 103.548C193.749 105.915 195.079 109.126 195.079 112.474V140.588H169.833V112.474Z" fill="#2F2E41"/>
<path d="M173.344 41.5003C176.252 38.5078 180.477 37.9932 184.453 38.3189C188.711 38.6676 192.745 40.082 196.922 40.8687C201.041 41.6446 205.508 41.9922 209.445 40.2735C211.263 39.4571 212.839 38.1833 214.017 36.5764C215.196 34.9695 215.939 33.0845 216.172 31.1052C216.678 26.9486 215.602 22.7536 213.155 19.3552C210.459 15.5447 206.627 12.7535 202.645 10.4107C194.06 5.36037 184.488 0.941262 174.444 0.124316C165.376 -0.613231 155.76 1.89284 149.381 8.66517C143.402 15.0136 140.856 23.8735 140.327 32.4057C139.651 43.2953 142.193 54.0494 143.112 64.8471C143.828 73.2489 143.56 83.3355 136.737 89.3692C130.701 94.7062 121.511 94.6426 114.395 91.7271C105.937 88.2618 100.002 80.4826 95.5136 72.8369C94.3709 70.8905 93.2967 68.905 92.255 66.903C91.7435 65.92 90.2575 66.7893 90.7687 67.7718C94.9695 75.8449 99.8559 83.9086 107.204 89.5029C113.629 94.3942 122.201 96.7503 130.143 94.683C133.993 93.722 137.432 91.5486 139.953 88.4837C142.675 85.0926 144.103 80.92 144.699 76.6512C145.337 72.0822 145.114 67.478 144.652 62.9039C144.096 57.3973 143.209 51.9309 142.602 46.4302C141.568 37.0622 141.425 27.3396 145.127 18.4885C146.723 14.5411 149.202 11.012 152.375 8.17229C155.847 5.24506 160.013 3.25864 164.473 2.40341C174.203 0.384106 184.095 3.11811 192.904 7.238C197.35 9.22396 201.605 11.6117 205.617 14.3714C209.173 16.9164 212.485 20.2498 213.854 24.5002C215.035 28.1632 214.937 32.4993 212.583 35.6933C210.068 39.1068 205.709 39.9591 201.712 39.7536C193.503 39.3315 185.231 34.561 176.971 37.2836C175.137 37.8764 173.475 38.9058 172.127 40.2832C171.354 41.078 172.57 42.2964 173.344 41.5003V41.5003Z" fill="#2F2E41"/>
<defs>
<linearGradient id="paint0_linear_475_585" x1="0.858765" y1="128.823" x2="256.662" y2="148.052" gradientUnits="userSpaceOnUse">
<stop stop-color="#E1A200"/>
<stop offset="1" stop-color="#FF5C00"/>
</linearGradient>
</defs>
</svg>
