<svg width="81" height="89" viewBox="0 0 81 89" fill="none" xmlns="http://www.w3.org/2000/svg">
<path d="M78.7967 22.1442C75.4858 16.5637 66.784 15.0502 55.7174 17.5093C52.2172 6.72632 46.5425 0.0106201 40.0158 0.0106201C33.4891 0.0106201 27.8143 6.72666 24.4092 17.5093C13.2482 15.1446 4.54586 16.5631 1.3299 22.1442C-0.0886428 24.6033 -0.372337 27.6303 0.478763 30.9405C1.61361 35.1025 4.54568 39.6425 8.80261 44.3719C4.54635 49.0068 1.61415 53.6413 0.478763 57.8033C-0.372371 61.1142 -0.0886597 64.1406 1.3299 66.5996C3.60016 70.4778 8.42395 72.3694 14.9506 72.3694C17.7884 72.3694 21.0042 71.9913 24.4094 71.2345C27.9089 82.0175 33.4901 88.7332 40.0159 88.7332C46.5426 88.7332 52.2174 82.0172 55.6225 71.2345C59.0276 71.9913 62.2434 72.3694 65.0812 72.3694C71.5128 72.3694 76.4315 70.4778 78.702 66.5996C80.1205 64.1405 80.4042 61.1135 79.5531 57.8033C78.4183 53.6413 75.4862 49.1013 71.2293 44.3719C75.4855 39.7369 78.4177 35.1025 79.5531 30.9405C80.4992 27.6296 80.2155 24.5082 78.797 22.1435L78.7967 22.1442ZM30.9355 15.9957C33.4896 9.46901 36.8947 5.59076 40.0163 5.59076C43.1378 5.59076 46.543 9.46901 49.097 15.9957C49.4751 16.9418 49.8538 17.8873 50.1375 18.8335C46.9217 19.7796 43.5165 21.1038 40.0163 22.6166C36.5167 21.1031 33.1116 19.7789 29.8951 18.8335C30.1795 17.888 30.5576 16.9419 30.9356 15.9957H30.9355ZM53.7311 44.2773C53.7311 46.8313 53.6367 49.3847 53.4474 51.9387C51.3665 53.3572 49.1911 54.6814 46.9207 56.0056C44.6503 57.3298 42.3807 58.4647 40.016 59.6001C37.7457 58.5596 35.381 57.3298 33.1113 56.0056C30.7466 54.6814 28.5713 53.2629 26.5846 51.9387C26.3952 49.4796 26.3009 46.9256 26.3009 44.2773C26.3009 41.7233 26.3952 39.1699 26.5846 36.6159C28.6655 35.1974 30.8408 33.8732 33.1113 32.549C35.3817 31.2248 37.6513 30.0899 40.016 28.9545C42.2862 30.0893 44.6509 31.2248 46.9207 32.549C49.2854 33.8732 51.4607 35.2917 53.4474 36.6159C53.6367 39.1699 53.7311 41.7233 53.7311 44.2773ZM59.4067 40.9664C60.8252 42.1013 62.0551 43.1417 63.2849 44.2773C62.0551 45.4121 60.8258 46.4526 59.4067 47.5882C59.4067 46.4534 59.501 45.4129 59.501 44.2773C59.4067 43.1425 59.4067 42.102 59.4067 40.9664ZM52.5964 59.2218C52.3127 60.924 52.029 62.5326 51.6502 64.1405C50.0423 63.6674 48.4344 63.1 46.8265 62.4382C47.7726 61.9652 48.718 61.3977 49.6642 60.8303C50.7047 60.3566 51.6502 59.7892 52.5963 59.2218L52.5964 59.2218ZM33.206 62.532C31.5981 63.1944 29.9902 63.6668 28.3822 64.2342C28.0041 62.6263 27.7198 61.0184 27.4361 59.3155C28.3822 59.8829 29.3276 60.4503 30.3681 61.0177C31.3142 61.4921 32.2597 61.9645 33.2059 62.5319L33.206 62.532ZM20.6259 47.5877C19.2073 46.4528 17.9774 45.4124 16.7476 44.2768C17.9775 43.142 19.2067 42.1015 20.6259 40.9659C20.6259 42.1008 20.5315 43.1412 20.5315 44.2768C20.6259 45.4116 20.6259 46.4521 20.6259 47.5877ZM27.4362 29.3323C27.7199 27.6301 28.0036 26.0214 28.3823 24.4136C29.9902 24.8867 31.5981 25.4541 33.2061 26.1159C32.2599 26.5889 31.3145 27.1564 30.3683 27.7238C29.3278 28.1975 28.3823 28.7649 27.4363 29.3323L27.4362 29.3323ZM49.6642 27.6301C48.718 27.0627 47.7726 26.5896 46.8264 26.0222C48.4343 25.3598 50.0422 24.8874 51.6502 24.32C52.0282 25.9279 52.3126 27.5358 52.5963 29.2387C51.6502 28.765 50.7047 28.1975 49.6643 27.6301L49.6642 27.6301ZM6.15402 24.9817C7.28886 22.995 10.316 21.9545 14.6665 21.9545C16.1801 21.9545 17.8823 22.0489 19.7739 22.3326C20.8144 22.522 21.7606 22.7107 22.8953 22.9C22.1385 26.2109 21.5711 29.7103 21.1931 33.4936C18.1659 35.669 15.3288 37.9392 12.7748 40.3039C8.99164 36.1419 6.7212 32.3587 5.9645 29.4267C5.39708 27.6301 5.49209 26.1165 6.15387 24.9818L6.15402 24.9817ZM19.7748 66.1271C12.7751 67.1676 7.66758 66.2215 6.15402 63.5731C5.49159 62.4383 5.39723 60.9247 5.96466 59.1275C6.72144 56.1955 9.08604 52.4115 12.7749 48.2503C15.329 50.5206 18.0717 52.7903 21.1932 55.0606C21.5713 58.8437 22.1394 62.344 22.8954 65.6542C21.8556 65.8436 20.8152 66.0329 19.7746 66.1273L19.7748 66.1271ZM49.0968 72.5594C46.5428 79.0861 43.1377 82.9644 40.0161 82.9644C36.8946 82.9644 33.4894 79.0861 30.9354 72.5594C30.5573 71.6133 30.1786 70.6678 29.8949 69.7216C33.1107 68.7755 36.5158 67.4514 40.0161 65.9385C43.5156 67.452 46.9208 68.7763 50.1372 69.7216C49.8529 70.6671 49.4748 71.6132 49.0968 72.5594H49.0968ZM73.8787 63.5731C72.3651 66.2216 67.2578 67.1676 60.258 66.1271C59.2175 65.9378 58.2713 65.7491 57.1366 65.5597C57.8934 62.2488 58.4608 58.7494 58.8388 54.9661C61.8659 52.7908 64.703 50.5205 67.2571 48.1558C71.0402 52.3178 73.3107 56.101 74.0674 59.033C74.6354 60.9246 74.5404 62.4382 73.8787 63.573L73.8787 63.5731ZM74.1624 29.4271C73.4056 32.3591 71.041 36.1431 67.3521 40.3043C64.7981 38.034 62.0554 35.7643 58.9338 33.494C58.5558 29.7109 57.9877 26.2106 57.2316 22.9004C58.2721 22.711 59.3125 22.5223 60.353 22.333C67.3526 21.2925 72.4602 22.2386 73.9737 24.887C74.5405 26.1168 74.6355 27.6304 74.1624 29.427L74.1624 29.4271Z" fill="#BCBCBC"/>
<path d="M45.691 44.2776C45.691 47.4123 43.1501 49.9532 40.0154 49.9532C36.8807 49.9532 34.3398 47.4123 34.3398 44.2776C34.3398 41.1429 36.8807 38.602 40.0154 38.602C43.1501 38.602 45.691 41.1429 45.691 44.2776Z" fill="#BCBCBC"/>
</svg>
