<svg width="36" height="36" viewBox="0 0 36 36" fill="none" xmlns="http://www.w3.org/2000/svg">
<path d="M17.9998 18.8064C18.4606 18.8064 18.8638 18.432 18.8638 17.9424V14.0544C18.8638 13.5936 18.4894 13.1904 17.9998 13.1904C17.5389 13.1904 17.1357 13.5648 17.1357 14.0544V17.9426C17.1357 18.432 17.5389 18.8064 17.9998 18.8064Z" fill="white"/>
<path d="M18.9235 20.5057C18.9235 21.0148 18.5109 21.4274 18.0018 21.4274C17.4927 21.4274 17.0801 21.0148 17.0801 20.5057C17.0801 19.9969 17.4927 19.5842 18.0018 19.5842C18.5109 19.5842 18.9235 19.9969 18.9235 20.5057Z" fill="white"/>
<path d="M18.3472 9.12963C16.2736 9.04325 14.2863 9.76323 12.7888 11.2032C11.2912 12.6432 10.4561 14.5728 10.4561 16.6464C10.4561 18.3456 11.0033 19.9583 12.0688 21.3119C12.9905 22.4928 13.6239 23.616 14.0271 24.7968L14.0558 24.8832V27.9073C14.0558 28.2817 14.3439 28.6273 14.7182 28.6849C14.8624 30.3552 16.2735 31.68 18.0016 31.68C19.7297 31.68 21.1407 30.3551 21.2848 28.656C21.6592 28.5983 21.9471 28.2815 21.9471 27.8783V24.8832L21.9758 24.7968C22.379 23.616 23.0126 22.4928 23.9341 21.3409C25.0573 19.9297 25.6333 18.1441 25.5469 16.3586C25.3456 12.4705 22.2064 9.30259 18.3469 9.12979L18.3472 9.12963ZM18.0017 30.096C17.1376 30.096 16.4466 29.4624 16.3025 28.656H19.7008C19.5568 29.4913 18.8657 30.096 18.0017 30.096ZM20.3634 27.1009H15.64V25.2H20.3631L20.3634 27.1009ZM22.6672 20.3329C21.8031 21.4274 21.1695 22.4929 20.7089 23.6161H15.2945C14.8337 22.5216 14.2001 21.4274 13.3362 20.3329C12.5011 19.2674 12.069 18.0002 12.069 16.6465C12.069 15.0048 12.7313 13.4784 13.9122 12.3265C15.093 11.2033 16.6481 10.5984 18.3186 10.6848C21.3713 10.8289 23.8481 13.3344 23.9921 16.3584C24.0209 17.8273 23.56 19.2097 22.6672 20.3329L22.6672 20.3329Z" fill="white"/>
<path d="M18.0013 7.34407C18.4332 7.34407 18.7789 6.99853 18.7789 6.56642V5.09766C18.7789 4.66574 18.4334 4.32001 18.0013 4.32001C17.5694 4.32001 17.2236 4.66555 17.2236 5.09766V6.56642C17.2236 6.99834 17.5694 7.34407 18.0013 7.34407Z" fill="white"/>
<path d="M12.2688 8.32318C12.4128 8.58233 12.672 8.72637 12.96 8.72637C13.1041 8.72637 13.2192 8.69764 13.3632 8.61126C13.7377 8.38083 13.8815 7.92001 13.6513 7.54571L12.9313 6.27846C12.7009 5.904 12.2401 5.76017 11.8658 5.99038C11.4913 6.22081 11.3474 6.68163 11.5777 7.05593L12.2688 8.32318Z" fill="white"/>
<path d="M9.64788 10.9153L8.38062 10.1953C8.00616 9.96489 7.51656 10.1089 7.31506 10.4834C7.08464 10.8579 7.22868 11.3474 7.60315 11.5489L8.87041 12.2689C8.98552 12.3266 9.12956 12.384 9.2736 12.384C9.53275 12.384 9.82085 12.24 9.96485 11.9809C10.1662 11.6353 10.0221 11.1458 9.64784 10.9153L9.64788 10.9153Z" fill="white"/>
<path d="M8.69886 16.6464C8.69886 16.2145 8.35332 15.8687 7.9212 15.8687H6.45246C6.02054 15.8687 5.6748 16.2143 5.6748 16.6464C5.6748 17.0783 6.02034 17.424 6.45246 17.424H7.9212C8.35312 17.4528 8.69886 17.0783 8.69886 16.6464Z" fill="white"/>
<path d="M8.87031 21.024L7.60305 21.744C7.22859 21.9744 7.08475 22.4352 7.31497 22.8095C7.45901 23.0687 7.71816 23.2127 8.00622 23.2127C8.15026 23.2127 8.26538 23.184 8.40941 23.0976L9.67667 22.3776C10.0511 22.1472 10.195 21.6864 9.96475 21.3121C9.73432 20.9376 9.24475 20.7936 8.8703 21.024L8.87031 21.024Z" fill="white"/>
<path d="M28.3979 21.744L27.1306 21.024C26.7562 20.7936 26.2666 20.9376 26.0651 21.3121C25.8346 21.6865 25.9787 22.1761 26.3531 22.3776L27.6204 23.0976C27.7355 23.1553 27.8796 23.2127 28.0236 23.2127C28.2827 23.2127 28.5708 23.0687 28.7148 22.8095C28.8874 22.4351 28.7723 21.9744 28.3978 21.744L28.3979 21.744Z" fill="white"/>
<path d="M29.5511 15.8688H28.0823C27.6504 15.8688 27.3047 16.2144 27.3047 16.6465C27.3047 17.0784 27.6502 17.4241 28.0823 17.4241H29.5511C29.983 17.4241 30.3287 17.0786 30.3287 16.6465C30.3287 16.2146 29.9832 15.8688 29.5511 15.8688Z" fill="white"/>
<path d="M26.7275 12.384C26.8716 12.384 26.9867 12.3553 27.1307 12.2689L28.398 11.5489C28.7724 11.3185 28.9163 10.8577 28.686 10.4834C28.4556 10.1089 27.9948 9.96506 27.6205 10.1953L26.353 10.9151C25.9786 11.1455 25.8348 11.6063 26.065 11.9806C26.2092 12.2687 26.4684 12.384 26.7275 12.384L26.7275 12.384Z" fill="white"/>
<path d="M22.6376 8.61118C22.7527 8.66884 22.8968 8.7263 23.0408 8.7263C23.3 8.7263 23.5881 8.58225 23.7321 8.32311L24.4521 7.05585C24.6825 6.68139 24.5385 6.19179 24.164 5.9903C23.7895 5.75987 23.2999 5.90391 23.0984 6.27838L22.3784 7.54564C22.148 7.89118 22.2631 8.38074 22.6376 8.61119L22.6376 8.61118Z" fill="white"/>
</svg>
