<svg width="24" height="33" viewBox="0 0 24 33" fill="none" xmlns="http://www.w3.org/2000/svg">
<path d="M7.03319 33H0V0.00551014H7.07752V10.3931C7.16317 10.3769 7.21757 10.3833 7.24649 10.3587C8.38879 9.38832 9.52251 8.40741 10.6704 7.44399C12.7847 5.6695 14.9097 3.90816 17.0228 2.13232C17.2717 1.92317 17.5101 1.79555 17.8468 1.83537C18.1715 1.85647 18.4972 1.85907 18.8222 1.84317V0H20.2023C20.2023 0.500172 20.2021 0.988184 20.2024 1.47621C20.2027 1.84029 20.203 1.84183 20.5697 1.85204C20.7255 1.85638 20.8815 1.85277 21.0763 1.85277V2.2441e-05H22.8905V1.85262C23.1552 1.85262 23.3859 1.86829 23.6136 1.84798C23.8197 1.8296 23.9365 1.89869 23.9661 2.10613C23.9847 2.21729 23.9955 2.32966 23.9984 2.44239C24.0003 3.79015 24.0005 5.13793 23.9989 6.48574C23.9989 6.5517 23.9999 6.61787 23.9953 6.68358C23.9673 7.08457 23.9445 7.08623 23.547 7.10669C22.6979 7.16663 21.8644 7.36918 21.0804 7.7061C20.6171 7.89378 20.164 8.10863 19.696 8.28287C19.1534 8.49436 18.6528 8.80354 18.2179 9.19559C17.7827 9.57288 17.2967 9.89455 16.8892 10.2992C15.1441 12.032 14.2958 14.1549 14.4005 16.6322C14.4887 18.7191 15.2831 20.5199 16.7175 22.0222C18.4416 23.8279 20.5528 24.8891 22.961 25.375C23.2766 25.4386 23.5981 25.4723 23.957 25.5259C23.9787 25.6519 23.9927 25.7792 23.9991 25.907C24.0008 27.3679 23.9999 28.8288 23.9963 30.2897C23.9962 30.3462 23.9955 30.4028 23.992 30.4592C23.9687 30.8306 23.9482 30.8484 23.5751 30.8449C23.3632 30.8429 23.1513 30.8445 22.9083 30.8445V32.995H21.0676V30.9373H20.2353V32.9903H18.8449V30.9317C18.4743 30.9317 18.1239 30.9051 17.7797 30.9403C17.661 30.9532 17.5409 30.9407 17.4273 30.9034C17.3136 30.8662 17.2089 30.8051 17.12 30.7241C15.8968 29.7331 14.6715 28.7448 13.4441 27.7592C11.4783 26.1736 9.51285 24.5877 7.54765 23.0013C7.38358 22.8689 7.22034 22.7355 7.03316 22.5833L7.03319 33Z" fill="url(#paint0_linear_951_700)"/>
<defs>
<linearGradient id="paint0_linear_951_700" x1="0" y1="0" x2="25.1667" y2="0.915117" gradientUnits="userSpaceOnUse">
<stop stop-color="#E1A200"/>
<stop offset="1" stop-color="#FF5C00"/>
</linearGradient>
</defs>
</svg>
