<svg width="90" height="89" viewBox="0 0 90 89" fill="none" xmlns="http://www.w3.org/2000/svg">
<path d="M89.3521 15.1502C90.4896 12.2234 87.4483 9.5728 86.3338 8.72423C86.0311 5.16072 82.3556 4.02934 80.0317 3.89515C76.9373 0.0277627 69.835 1.77117 67.9547 2.31823C66.2769 1.17949 64.5441 0.775969 62.7988 1.1176C59.9445 1.67645 57.9091 4.09934 57.1007 5.222C55.892 5.00848 55.0262 5.38044 54.4885 5.76724C52.6918 7.06257 52.2895 10.053 52.2016 11.4479C50.2942 12.0433 48.9569 13.0242 48.2167 14.3709C47.4257 15.8129 47.5755 17.2591 47.7123 17.9307C45.0981 23.6814 49.7849 29.1685 50.7943 30.2526C51.3501 32.2912 52.3298 33.5947 53.7074 34.1262C54.1778 34.3088 54.6512 34.38 55.1024 34.38C55.7089 34.38 56.2721 34.25 56.7412 34.0897C56.8452 34.8843 56.9795 35.6604 57.1528 36.4104L45.342 36.4092V35.4369C45.342 35.06 45.0363 34.7549 44.66 34.7549H39.5524V30.4747C39.5524 26.3417 37.1177 22.5572 33.353 20.8336C32.5169 20.4425 31.2797 19.5556 31.2797 18.8928C31.2797 18.8099 31.2995 18.7238 31.3348 18.6347C31.406 18.4577 31.5409 18.2727 31.7154 18.0901C31.7179 18.0876 31.7216 18.0839 31.7253 18.0814C32.161 17.6284 32.8344 17.1946 33.3529 16.952C33.3529 16.952 33.3535 16.952 33.3535 16.9514C36.7215 15.4072 39.0089 12.2145 39.4575 8.60203C39.5126 8.503 39.5516 8.39655 39.5516 8.27587C39.5516 8.1849 39.5318 8.09887 39.5002 8.01965C39.5163 7.78324 39.5516 7.54993 39.5516 7.31164L39.5522 3.03074H44.6598C45.0367 3.03074 45.3419 2.72501 45.3419 2.34873V0.694517C45.3419 0.316382 45.0367 0.0106506 44.6598 0.0106506H13.2249C12.848 0.0106506 12.5429 0.316381 12.5429 0.692663V2.34688C12.5429 2.72378 12.8486 3.02889 13.2249 3.02889H18.3325V7.30915C18.3325 7.54866 18.3678 7.78137 18.3838 8.01716C18.3517 8.09638 18.3325 8.18241 18.3325 8.27338C18.3325 8.39345 18.3727 8.50113 18.4266 8.59954C18.8746 12.2137 21.1638 15.4079 24.5306 16.9495C25.3667 17.3406 26.6051 18.2275 26.6051 18.8903C26.6051 19.5532 25.3667 20.44 24.5344 20.8292C20.7673 22.5541 18.3324 26.3391 18.3324 30.4714V34.7517H13.2248C12.8479 34.7517 12.5428 35.0574 12.5428 35.4337V36.4059L8.51891 36.4084C8.14201 36.4084 7.83689 36.7142 7.83689 37.0904V39.2919C7.83689 39.6688 8.14262 39.9739 8.51891 39.9739L9.53697 39.9745L9.74615 40.4622C10.4034 41.9964 10.3069 43.7392 9.54935 45.2121H8.51891C8.14201 45.2121 7.83689 45.5178 7.83689 45.8941V48.0112C7.83689 48.3881 8.14262 48.6932 8.51891 48.6932H14.2064V50.2107C14.2064 50.5876 14.5121 50.8927 14.8884 50.8927H15.964C17.5217 53.3219 17.5217 58.5248 15.9634 60.9559H14.889C14.5121 60.9559 14.207 61.2616 14.207 61.6379V63.1554L1.3949 63.1566C1.01862 63.1591 0.712891 63.4642 0.712891 63.8411V66.0419C0.712891 66.4188 1.01862 66.7239 1.3949 66.7239H2.17965V71.9616L1.3949 71.9622C1.01862 71.9622 0.712891 72.268 0.712891 72.6442V74.8468C0.712891 75.2237 1.01862 75.5288 1.3949 75.5288H10.5668V77.0463C10.5668 77.4232 10.8726 77.7283 11.2488 77.7283H12.3412C13.8525 79.9675 13.8525 82.9294 12.3418 85.1667H11.2488C10.8719 85.1667 10.5668 85.4724 10.5668 85.8487V88.0512C10.5668 88.4281 10.8726 88.7332 11.2488 88.7332H84.558C85.0605 88.7332 85.4678 88.326 85.4678 87.8235V71.6711C85.4678 71.1685 85.0605 70.7613 84.558 70.7613H79.1274L86.8609 62.0172C87.1796 61.6558 87.1616 61.1105 86.8219 60.7707L81.5967 55.5467V50.8946H82.3821C82.759 50.8946 83.0641 50.5888 83.0641 50.2126V48.0117C83.0641 47.6348 82.7583 47.3297 82.3821 47.3297H78.9981V43.6189C78.9981 43.5582 78.9752 43.5056 78.9634 43.4481C81.5584 39.7379 83.2641 34.5553 83.3878 28.968C84.5284 28.5279 85.7539 27.8354 85.8368 26.6639C85.8634 26.2839 85.7619 25.9534 85.5985 25.6718C87.0201 24.8728 87.1358 23.9005 86.8183 22.7339C86.6617 22.1639 86.6494 22.1175 87.319 21.7821C90.4165 20.2349 89.6683 16.3495 89.352 15.1489L89.3521 15.1502ZM13.95 77.7302H51.2676V85.1685H13.95C15.1581 82.8501 15.1581 80.0492 13.95 77.7302ZM57.4101 70.7627H52.1782C51.6756 70.7627 51.2684 71.1699 51.2684 71.6725V71.9627H3.5448V66.725H55.131L57.4101 70.7627ZM66.814 81.4557V72.5834H73.1842V81.4557H66.814ZM65.9043 81.4557H59.5341V72.5834H65.9043V81.4557ZM53.0877 72.5822H58.6242V81.4545H53.0877V72.5822ZM59.5007 70.7627L54.5532 61.9962L73.0615 70.7627H59.5007ZM51.7065 59.3028C51.6947 59.3146 51.6922 59.3319 51.6805 59.3449C51.6075 59.426 51.5548 59.5163 51.5152 59.616C51.5053 59.6401 51.4886 59.6593 51.4806 59.6847C51.4422 59.8122 51.4342 59.9464 51.4546 60.0808C51.4552 60.0876 51.4521 60.0944 51.454 60.1006C51.4583 60.1272 51.4787 60.147 51.4849 60.1723C51.5047 60.2472 51.5171 60.3227 51.5567 60.3939L51.876 60.9589L17.5433 60.9583C18.8343 58.1734 18.8349 53.6802 17.5439 50.8952H59.529V51.4776L51.7065 59.3028ZM59.5311 43.0316V45.2144H11.0787C11.7341 43.5421 11.7242 41.6564 11.0199 39.9767H58.2967C58.6891 40.9161 59.139 41.7974 59.6428 42.6149C59.5759 42.7412 59.5301 42.878 59.5301 43.0314L59.5311 43.0316ZM32.781 22.0723C36.0654 23.5756 38.1876 26.8743 38.1876 30.4749V30.6067C37.4425 29.3869 36.4237 28.3292 35.155 27.5439L32.4239 25.8537C31.7079 25.4025 31.279 24.6289 31.279 23.781V21.1371C31.9461 21.67 32.6368 22.0054 32.781 22.0722L32.781 22.0723ZM19.6985 7.31131V3.03104H38.1877V7.31131C38.1877 7.40662 38.1698 7.49883 38.1673 7.59415H19.7192C19.7167 7.49884 19.6988 7.40662 19.6988 7.31131H19.6985ZM13.9075 1.66518V1.37555H43.9784V1.66518H13.9075ZM27.8596 18.2453C27.3632 16.8009 25.3636 15.8329 25.1068 15.7136H25.1049C25.1049 15.7136 25.1043 15.7136 25.1043 15.7129C22.3317 14.4436 20.4039 11.8888 19.8661 8.95904H38.0195C37.4811 11.8901 35.554 14.4436 32.7776 15.7142C32.4842 15.8504 29.914 17.0949 29.914 18.8927V23.7812C29.914 25.1013 30.5812 26.3074 31.702 27.0112L34.4362 28.7039C36.5881 30.0364 37.9311 32.2655 38.1428 34.7547L19.7422 34.7541C19.9539 32.2643 21.2969 30.0364 23.4506 28.7033L26.1904 27.0089C27.3056 26.307 27.9708 25.1002 27.9708 23.7827V18.8923C27.9715 18.6682 27.9312 18.4529 27.8601 18.2455L27.8596 18.2453ZM19.6983 30.4746C19.6983 26.8738 21.8205 23.5765 25.1068 22.0714C25.2497 22.0045 25.9392 21.6691 26.6057 21.1362V23.7826C26.6057 24.6286 26.1781 25.4034 25.467 25.8516L22.7314 27.5436C21.4627 28.329 20.4428 29.3867 19.6971 30.6065L19.6977 30.4747L19.6983 30.4746ZM13.9074 36.1207H43.9766V36.411H13.9074V36.1207ZM9.98738 38.6118H9.20263V37.7757H57.5045C57.5893 38.061 57.6896 38.3345 57.783 38.6118H9.98738ZM9.20263 47.3306V46.5786H59.5309V47.3306H9.20263ZM16.3575 49.5314H15.5728V48.6959H59.532V49.5314H16.3575ZM15.5716 62.3243H52.6468L53.1184 63.1598H15.571L15.5716 62.3243ZM2.07738 65.3593V64.5238H14.8895L53.8897 64.5244L54.3613 65.3599L2.86379 65.3593H2.07738ZM2.07738 74.1648V73.3274H51.2681V74.1648H2.07738ZM12.7172 76.3649H11.9325V75.5294H51.2685V76.3649H12.7172ZM11.9325 86.5333H51.2685V87.3706L11.9325 87.37V86.5333ZM53.089 86.9145V83.5026H83.6494V86.9151L53.089 86.9145ZM83.6494 81.4559H74.0943V72.5836H83.6498L83.6494 81.4559ZM76.8795 70.5587L53.9081 59.6761L61.0847 52.4995C61.2555 52.3287 61.3514 52.0972 61.3514 51.8565V44.9218C63.684 47.5403 66.6849 49.0894 70.001 49.0894C72.5979 49.0894 75.0734 47.796 77.1795 45.633V53.3282C77.1795 53.5702 77.2754 53.8004 77.4462 53.9712L84.931 61.456L76.8795 70.5587ZM79.0004 52.9503V50.8955H80.2345L80.2339 54.183L79.0004 52.9503ZM81.7019 48.6955V49.531H79.0004V48.6955H81.7019ZM83.4131 26.9678V26.0989C83.4596 26.1342 83.5072 26.1664 83.5611 26.1942C83.7566 26.2957 83.9937 26.4956 84.0314 26.4999C84.0296 26.5024 83.9435 26.6868 83.4131 26.9678L83.4131 26.9678ZM86.5081 20.157C84.503 21.1596 84.8693 22.4965 85.0655 23.2163C85.2147 23.7633 85.2772 23.9899 83.6867 24.5215C83.5035 24.5821 83.3506 24.6985 83.2417 24.8476C83.2151 24.7802 83.1847 24.714 83.1526 24.6502L82.1945 22.7298C82.1036 22.5491 82.1036 22.335 82.1945 22.1549C82.5789 21.3856 82.538 20.4907 82.0862 19.7592C81.635 19.0283 80.8509 18.5914 79.9906 18.5914H79.2102C78.9329 18.5914 78.6879 18.4144 78.6006 18.1513L78.0498 16.4995C77.8239 15.8225 77.3158 15.2766 76.6567 15.003C75.9957 14.7307 75.253 14.7555 74.6125 15.0748L74.0778 15.3428C73.873 15.4468 73.6279 15.4338 73.4348 15.3026L69.7716 12.8611C69.6937 12.8085 69.6064 12.7837 69.5198 12.7578L68.2356 7.62416C68.1749 7.38032 67.9329 7.23179 67.6848 7.29243C67.4409 7.3537 67.2918 7.60125 67.3537 7.84386L68.6391 12.9825C68.5958 13.0252 68.545 13.0593 68.5091 13.1113C68.23 13.5302 68.3439 14.094 68.7616 14.3738L72.4229 16.8146C73.1569 17.3066 74.1075 17.3636 74.8916 16.9693L75.4263 16.7014C75.6522 16.5894 75.8571 16.6401 75.9592 16.6828C76.0607 16.7249 76.242 16.8313 76.3219 17.0739L76.8727 18.7258C77.2087 19.7333 78.1494 20.4098 79.2096 20.4098H79.99C80.3137 20.4098 80.4802 20.6233 80.5371 20.7149C80.594 20.8065 80.7098 21.051 80.5656 21.3394C80.2202 22.0288 80.2202 22.8525 80.5656 23.5419L81.5236 25.4636C81.57 25.5533 81.5929 25.6523 81.5929 25.7501V28.3253C81.5929 38.2411 76.0669 47.2709 70.0012 47.2709C63.9709 47.2709 59.0959 41.1279 58.4064 32.664C58.4039 32.6362 58.3897 32.6145 58.3853 32.5867C58.3773 32.5402 58.3791 32.4951 58.3643 32.4499L57.1748 28.8876C57.0683 28.5708 57.0931 28.2323 57.2422 27.9321L58.0827 26.25C58.2981 25.8254 58.4101 25.3495 58.4101 24.8748V23.7788C58.4101 23.3022 58.675 22.8721 59.1014 22.6586L59.6522 22.3826C60.7012 21.8584 61.3511 20.8057 61.3511 19.5586C61.3511 19.1502 61.5417 18.7813 61.8697 18.5431C62.2008 18.3035 62.6105 18.2398 62.9985 18.3704C64.3069 18.8098 65.7588 18.3116 66.5262 17.1599L68.1879 14.6664C68.389 14.365 68.3798 13.9906 68.2059 13.6985C68.2182 13.6347 68.251 13.5747 68.2343 13.5072L66.7651 7.62474C66.7044 7.38089 66.4625 7.23236 66.2143 7.29301C65.9704 7.35428 65.8213 7.60183 65.8832 7.84444L67.2398 13.2751C67.0176 13.3234 66.8109 13.4521 66.6741 13.657L65.0125 16.1491C64.6993 16.6176 64.1095 16.8225 63.5748 16.643C62.6242 16.3274 61.6161 16.4809 60.8077 17.0663C59.9976 17.6499 59.531 18.5578 59.531 19.6347C59.531 20.1112 59.2661 20.5414 58.8378 20.7549L58.287 21.0315C57.2399 21.5557 56.59 22.6078 56.59 23.7781V24.8742C56.59 25.0673 56.5436 25.2604 56.4563 25.4337L55.614 27.1183C55.2477 27.8523 55.187 28.6847 55.4469 29.462L56.3889 32.2847C55.8616 32.5007 55.0645 32.7074 54.3552 32.4276C53.5129 32.0978 52.8891 31.1379 52.4979 29.5752C52.4571 29.4149 52.3754 29.2682 52.2578 29.1519C52.2046 29.0974 46.8691 23.6722 49.4871 18.4365C49.5923 18.2248 49.6096 17.9742 49.5384 17.7489C49.5347 17.7353 49.1399 16.4492 49.8231 15.2269C50.395 14.2033 51.5684 13.4637 53.3062 13.028C53.7115 12.9265 53.9956 12.5639 53.9956 12.1455C53.9956 11.1652 54.2821 8.16055 55.5521 7.24385C55.8263 7.04457 56.2966 6.82115 57.2101 7.12441C57.6124 7.26118 58.0598 7.09594 58.2783 6.72955C58.2981 6.69675 60.2655 3.46739 63.1483 2.90305C64.4962 2.64065 65.88 3.02249 67.2465 4.04799C67.4866 4.22685 67.7954 4.27821 68.0801 4.18414C68.16 4.15629 76.2823 1.5131 78.8023 5.29627C78.9713 5.54879 79.2553 5.70103 79.5574 5.70164C79.7603 5.70226 84.5314 5.76044 84.5314 9.20384C84.5314 9.50833 84.6843 9.79177 84.9368 9.96073C84.9739 9.98548 88.6495 12.5174 87.5688 14.6797C87.4605 14.8957 87.4426 15.1451 87.5193 15.3747C87.5354 15.4118 88.7181 19.0528 86.5081 20.1575L86.5081 20.157Z" fill="#BCBCBC"/>
<path d="M63.3811 26.3982C61.5734 26.3982 60.1611 27.9541 60.1004 28.0196C59.9457 28.1929 59.9457 28.4547 60.1004 28.6274C60.1611 28.693 61.5734 30.2488 63.3811 30.2488C65.1889 30.2488 66.6011 28.6929 66.6618 28.6274C66.8165 28.4541 66.8165 28.1923 66.6618 28.0196C66.6018 27.954 65.1883 26.3982 63.3811 26.3982ZM63.3811 29.3391C62.4144 29.3391 61.5449 28.714 61.0974 28.3235C61.5455 27.933 62.415 27.3079 63.3811 27.3079C64.3478 27.3079 65.2174 27.933 65.6648 28.3235C65.2167 28.714 64.3478 29.3391 63.3811 29.3391Z" fill="#BCBCBC"/>
<path d="M72.2063 34.6606C72.2347 34.6606 72.2651 34.6581 72.2954 34.6519C72.5429 34.603 72.7026 34.3629 72.6531 34.1172L71.2315 27.0106C71.8906 26.4103 74.3067 24.3786 76.4833 24.7344C77.575 24.912 78.4742 25.6931 79.1543 27.0558C79.2682 27.2817 79.5473 27.3745 79.7639 27.2594C79.9898 27.1462 80.0808 26.8732 79.9688 26.6492C79.1494 25.0091 78.0243 24.0623 76.6274 23.8357C73.6469 23.3474 70.5438 26.4009 70.4138 26.531C70.3055 26.6387 70.2591 26.7934 70.2894 26.9419L71.7605 34.2955C71.8026 34.5121 71.9926 34.6607 72.2061 34.6607L72.2063 34.6606Z" fill="#BCBCBC"/>
<path d="M75.8816 26.3982C74.4371 26.3982 73.3417 28.0017 73.2977 28.0699C73.1924 28.224 73.1924 28.4245 73.2977 28.578C73.3422 28.6454 74.437 30.2496 75.8816 30.2496C77.3242 30.2496 78.4197 28.6461 78.4642 28.578C78.5676 28.4239 78.5676 28.2233 78.4642 28.0699C78.4203 28.0024 77.3254 26.3982 75.8816 26.3982ZM75.8816 29.3391C75.2385 29.3391 74.5943 28.7394 74.2465 28.3235C74.5949 27.907 75.2386 27.3079 75.8816 27.3079C76.5227 27.3079 77.167 27.9076 77.5149 28.3235C77.1671 28.7394 76.5234 29.3391 75.8816 29.3391Z" fill="#BCBCBC"/>
<path d="M63.5453 23.8553C60.748 23.8553 58.702 26.3079 58.6166 26.412C58.4563 26.607 58.4848 26.8922 58.6791 27.0513C58.8747 27.2104 59.1606 27.1819 59.3203 26.9888C59.3382 26.9665 61.1831 24.7639 63.5448 24.7639H63.5503C64.9218 24.7658 66.232 25.514 67.4413 26.9888C67.5323 27.0984 67.6617 27.1553 67.7935 27.1553C67.895 27.1553 67.9983 27.1213 68.0819 27.0519C68.2775 26.8929 68.3059 26.6051 68.1456 26.4114C66.7544 24.7157 65.2052 23.8554 63.5455 23.8554L63.5453 23.8553Z" fill="#BCBCBC"/>
</svg>
