<svg width="88" height="89" viewBox="0 0 88 89" fill="none" xmlns="http://www.w3.org/2000/svg">
<path d="M28.5214 16.6258C28.5294 14.8375 28.9189 13.0703 29.6635 11.4437L30.8168 10.8667V10.8674C32.1674 10.2059 33.7472 10.2059 35.0978 10.8674L36.7323 11.6846C36.9376 11.787 37.164 11.8404 37.3938 11.8404H41.8299C42.222 11.8404 42.5983 11.6846 42.8756 11.4074C43.1528 11.1301 43.3086 10.7538 43.3086 10.3617V1.4894C43.3086 1.09728 43.1529 0.720991 42.8756 0.443735C42.5983 0.166479 42.222 0.0106812 41.8299 0.0106812H37.3938C37.164 0.0106812 36.9376 0.0641531 36.7323 0.166475L35.0984 0.983726C33.7478 1.6452 32.168 1.6452 30.8174 0.983726L29.1829 0.166475C29.1644 0.157894 29.1459 0.155253 29.1274 0.147991C29.0951 0.133468 29.0614 0.125546 29.0278 0.113664C28.8839 0.0601919 28.7327 0.0298266 28.5795 0.0232239C28.5591 0.0232239 28.5419 0.0113413 28.5208 0.0113413H16.6917C12.3789 0.0166224 8.24458 1.73173 5.19537 4.78093C2.14617 7.83014 0.430513 11.9646 0.425781 16.2773C0.425781 16.8754 0.786218 17.4147 1.33875 17.6431C1.89129 17.8722 2.527 17.7454 2.95017 17.3229C6.3426 13.918 10.9234 11.9607 15.7292 11.8628C16.3563 13.3726 16.6837 14.9906 16.6917 16.6258V87.2545C16.6917 87.6467 16.8475 88.0229 17.1247 88.3002C17.402 88.5775 17.7783 88.7333 18.1704 88.7333C18.2912 88.7333 18.412 88.7181 18.5288 88.6884L30.3586 85.7309C30.8755 85.6015 31.2821 85.2048 31.4247 84.6912C31.5667 84.1783 31.4221 83.6284 31.0458 83.2514C29.4245 81.6387 28.5154 79.4445 28.5213 77.1576L28.5214 16.6258ZM25.564 75.4248H19.6491V51.7653H25.564V75.4248ZM19.6491 48.8078V20.7122H25.564V48.8078H19.6491ZM36.4207 3.62829L37.7423 2.96682H40.3513V8.8817H37.7423L36.4194 8.22023C34.4105 7.23199 32.075 7.14815 30.0002 7.9905V3.85803C32.0756 4.69839 34.4107 4.61455 36.4207 3.62829H36.4207ZM27.0427 10.0211C26.0717 12.0874 25.5666 14.3417 25.564 16.6245V17.754H19.6491V16.6245C19.6465 14.3417 19.1415 12.0872 18.1704 10.0211V2.96684H27.0427V10.0211ZM15.213 3.04931V8.90352C11.1466 9.07251 7.21132 10.3941 3.86705 12.7146C4.58133 10.1571 6.04288 7.87112 8.06424 6.14938C10.0856 4.42764 12.5744 3.34843 15.213 3.04931ZM19.6491 85.3591V78.3814H25.6512C25.8288 80.1756 26.4289 81.9026 27.4007 83.4209L19.6491 85.3591Z" fill="#BCBCBC"/>
<path d="M59.5743 23.6696C59.5743 22.4932 59.1069 21.3643 58.2751 20.5327C57.4434 19.701 56.3144 19.2335 55.1382 19.2335C53.962 19.2335 52.8329 19.7009 52.0013 20.5327C51.1697 21.3644 50.7021 22.4933 50.7021 23.6696C50.7021 24.8458 51.1695 25.9748 52.0013 26.8065C52.8331 27.6381 53.962 28.1056 55.1382 28.1056C56.3146 28.1043 57.4422 27.6363 58.274 26.8052C59.1051 25.9734 59.5731 24.8458 59.5744 23.6694L59.5743 23.6696ZM55.1381 25.1483C54.54 25.1483 54.0007 24.7878 53.7723 24.2353C53.5432 23.6828 53.6693 23.0471 54.0925 22.6239C54.5156 22.2007 55.1513 22.0747 55.7039 22.3037C56.2564 22.5322 56.6169 23.0715 56.6169 23.6696C56.6162 24.4862 55.9547 25.1476 55.1381 25.1483Z" fill="#BCBCBC"/>
<path d="M66.9683 28.1056C68.1447 28.1056 69.2736 27.6383 70.1052 26.8065C70.9369 25.9747 71.4044 24.8458 71.4044 23.6696C71.4044 22.4933 70.937 21.3643 70.1052 20.5327C69.2734 19.701 68.1445 19.2335 66.9683 19.2335C65.7921 19.2335 64.663 19.7009 63.8314 20.5327C62.9998 21.3644 62.5322 22.4933 62.5322 23.6696C62.5335 24.8459 63.0016 25.9735 63.8327 26.8053C64.6645 27.6364 65.7921 28.1045 66.9684 28.1058L66.9683 28.1056ZM66.9683 22.1908C67.5664 22.1908 68.1057 22.5512 68.3341 23.1037C68.5632 23.6563 68.4371 24.292 68.014 24.7151C67.5908 25.1383 66.9551 25.2644 66.4026 25.0353C65.85 24.8069 65.4896 24.2676 65.4896 23.6695C65.4902 22.8529 66.1517 22.1914 66.9683 22.1908Z" fill="#BCBCBC"/>
<path d="M84.713 54.9949V41.4138C84.711 39.8453 84.0878 38.3421 82.9787 37.2332C81.8696 36.1242 80.3665 35.501 78.7981 35.4989H66.9683V32.5415H71.4045C72.3188 32.5389 73.21 32.253 73.9553 31.7236C74.7013 31.1942 75.2644 30.4469 75.5681 29.5841H75.8407C77.9538 29.5841 79.9066 28.4566 80.9633 26.6267C82.0196 24.7968 82.0196 22.5417 80.9633 20.7118C79.9064 18.8819 77.9537 17.7543 75.8407 17.7543H75.5681C75.2644 16.8915 74.7013 16.1443 73.9553 15.6148C73.21 15.0854 72.3188 14.7996 71.4045 14.7969H66.9683C66.9683 12.6838 65.8408 10.731 64.0109 9.67431C62.181 8.61808 59.9259 8.61808 58.096 9.67431C56.2661 10.7312 55.1386 12.684 55.1386 14.7969H50.7024C49.7881 14.7996 48.8968 15.0854 48.1516 15.6148C47.4056 16.1443 46.8425 16.8916 46.5388 17.7543H46.2662C44.1531 17.7543 42.2003 18.8819 41.1436 20.7118C40.0873 22.5417 40.0873 24.7968 41.1436 26.6267C42.2005 28.4566 44.1532 29.5841 46.2662 29.5841H46.5388C46.8425 30.4469 47.4056 31.1942 48.1516 31.7236C48.8969 32.253 49.7881 32.5389 50.7024 32.5415H55.1386V35.4989H43.3088C41.7403 35.5009 40.2371 36.1241 39.1282 37.2332C38.0192 38.3423 37.396 39.8454 37.3939 41.4138V54.9949C36.5311 55.2986 35.7838 55.8617 35.2544 56.6076C34.725 57.3529 34.4392 58.2441 34.4365 59.1585V62.1159H37.394V59.1585C37.394 58.3419 38.0561 57.6797 38.8727 57.6797C39.6893 57.6797 40.3514 58.3419 40.3514 59.1585V62.1159H43.3088V59.1585C43.3062 58.2442 43.0204 57.3529 42.4909 56.6076C41.9615 55.8617 41.2142 55.2986 40.3514 54.9949V46.5062C41.2466 47.0389 42.2672 47.3228 43.3089 47.3287H46.2663V57.6798C46.269 58.5941 46.5548 59.4853 47.0842 60.2306C47.6137 60.9766 48.3609 61.5397 49.2237 61.8433V79.8601C48.4071 79.8601 47.745 80.5222 47.745 81.3388V87.2537C47.745 87.6458 47.9008 88.0221 48.1781 88.2993C48.4553 88.5766 48.8316 88.7324 49.2237 88.7324H58.096C58.4882 88.7324 58.8645 88.5766 59.1417 88.2993C59.419 88.0221 59.5748 87.6458 59.5748 87.2537V81.3388C59.5748 80.9467 59.419 80.5704 59.1417 80.2931C58.8644 80.0159 58.4882 79.8601 58.096 79.8601V62.1154H64.0109V79.8601C63.1943 79.8601 62.5322 80.5222 62.5322 81.3388V87.2537C62.5322 87.6458 62.688 88.0221 62.9653 88.2993C63.2425 88.5766 63.6188 88.7324 64.0109 88.7324H72.8832C73.2754 88.7324 73.6516 88.5766 73.9289 88.2993C74.2062 88.0221 74.362 87.6458 74.362 87.2537V81.3388C74.362 80.9467 74.2062 80.5704 73.9289 80.2931C73.6516 80.0159 73.2754 79.8601 72.8832 79.8601V61.8433C73.746 61.5397 74.4933 60.9766 75.0227 60.2306C75.5522 59.4853 75.838 58.5941 75.8406 57.6798V47.3287H78.7981C79.8398 47.3228 80.8603 47.0389 81.7555 46.5062V54.9949C80.8927 55.2986 80.1454 55.8617 79.616 56.6076C79.0866 57.3529 78.8008 58.2441 78.7981 59.1585V62.1159H81.7556V59.1585C81.7556 58.3419 82.4177 57.6797 83.2343 57.6797C84.0509 57.6797 84.713 58.3419 84.713 59.1585V62.1159H87.6704V59.1585C87.6678 58.2442 87.382 57.3529 86.8525 56.6076C86.3231 55.8617 85.5758 55.2986 84.713 54.9949H84.713ZM78.7981 23.6697C78.7974 24.4539 78.4852 25.2052 77.9307 25.7597C77.3761 26.3142 76.6249 26.6264 75.8407 26.6271V20.7122C76.6249 20.7129 77.3762 21.0251 77.9307 21.5796C78.4851 22.1342 78.7974 22.8854 78.7981 23.6696V23.6697ZM61.0534 11.8399C61.8377 11.8406 62.5889 12.1528 63.1434 12.7074C63.6979 13.2619 64.0102 14.0131 64.0108 14.7973H58.096C58.0966 14.0131 58.4089 13.2619 58.9634 12.7074C59.5179 12.1529 60.2692 11.8406 61.0534 11.8399H61.0534ZM43.3088 23.6697C43.3095 22.8854 43.6217 22.1342 44.1762 21.5797C44.7307 21.0252 45.482 20.7129 46.2662 20.7123V26.6272C45.482 26.6265 44.7307 26.3143 44.1762 25.7597C43.6217 25.2052 43.3095 24.454 43.3088 23.6698V23.6697ZM49.2237 28.1059V19.2335C49.2243 18.4169 49.8858 17.7555 50.7024 17.7548H71.4045C72.2211 17.7555 72.8825 18.4169 72.8832 19.2335V28.1059C72.8825 28.9224 72.2211 29.5839 71.4045 29.5846H50.7024C49.8858 29.5839 49.2243 28.9224 49.2237 28.1059ZM58.096 32.542H64.0109V35.4995H58.096V32.542ZM43.3088 44.3718C42.2519 44.3718 41.2756 43.808 40.7475 42.8931C40.2194 41.9781 40.2194 40.8506 40.7475 39.9356C41.2756 39.0207 42.252 38.4569 43.3088 38.4569H46.2662V44.3718H43.3088ZM56.6173 85.7759H50.7024V82.8185H56.6173V85.7759ZM52.1811 79.8611V75.1523C53.1337 75.5154 54.1859 75.5154 55.1386 75.1523V79.8611H52.1811ZM52.1811 70.9887C52.1811 70.3906 52.5416 69.8513 53.0941 69.6229C53.6466 69.3938 54.2823 69.5199 54.7055 69.9431C55.1287 70.3662 55.2548 71.0019 55.0257 71.5545C54.7973 72.107 54.2579 72.4675 53.6598 72.4675C52.8433 72.4668 52.1818 71.8053 52.1811 70.9887ZM55.1386 66.8252C54.186 66.4614 53.1338 66.4614 52.1811 66.8252V62.1164H55.1386V66.8252ZM69.9258 66.8252C68.9732 66.4614 67.921 66.4614 66.9683 66.8252V62.1164H69.9258V66.8252ZM69.9258 70.9887C69.9258 71.5868 69.5653 72.1262 69.0128 72.3546C68.4603 72.5836 67.8245 72.4575 67.4014 72.0344C66.9782 71.6113 66.8521 70.9755 67.0812 70.423C67.3096 69.8704 67.849 69.51 68.447 69.51C69.2636 69.5107 69.9251 70.1721 69.9258 70.9887ZM71.4045 85.7759H65.4896V82.8185H71.4045V85.7759ZM66.9683 79.8611V75.1523C67.9209 75.5154 68.9731 75.5154 69.9258 75.1523V79.8611H66.9683ZM72.8832 57.6803C72.8825 58.4968 72.2211 59.1583 71.4045 59.159H50.7024C49.8858 59.1583 49.2243 58.4968 49.2237 57.6803V38.4569H72.8832V57.6803ZM78.7981 44.3718H75.8406V38.4569H78.7981C79.855 38.4569 80.8313 39.0207 81.3594 39.9356C81.8875 40.8506 81.8875 41.9781 81.3594 42.8931C80.8313 43.808 79.8549 44.3718 78.7981 44.3718Z" fill="#BCBCBC"/>
<path d="M62.5317 42.8929C62.5317 43.7095 61.8695 44.3716 61.0529 44.3716C60.2363 44.3716 59.5742 43.7095 59.5742 42.8929C59.5742 42.0763 60.2363 41.4142 61.0529 41.4142C61.8695 41.4142 62.5317 42.0763 62.5317 42.8929Z" fill="#BCBCBC"/>
<path d="M66.9682 42.8929C66.9682 43.7095 66.3061 44.3716 65.4895 44.3716C64.6729 44.3716 64.0107 43.7095 64.0107 42.8929C64.0107 42.0763 64.6729 41.4142 65.4895 41.4142C66.3061 41.4142 66.9682 42.0763 66.9682 42.8929Z" fill="#BCBCBC"/>
<path d="M71.4037 42.8929C71.4037 43.7095 70.7416 44.3716 69.925 44.3716C69.1084 44.3716 68.4463 43.7095 68.4463 42.8929C68.4463 42.0763 69.1084 41.4142 69.925 41.4142C70.7416 41.4142 71.4037 42.0763 71.4037 42.8929Z" fill="#BCBCBC"/>
</svg>
