<svg width="34" height="41" viewBox="0 0 34 41" fill="none" xmlns="http://www.w3.org/2000/svg">
<path fill-rule="evenodd" clip-rule="evenodd" d="M1.90702 16.8378H3.68648V8.42149C3.68648 4.22961 7.11502 0.801147 11.3068 0.801147H22.6699C26.8618 0.801147 30.2903 4.22968 30.2903 8.42149V16.8378H32.0697C33.1187 16.8378 33.9759 17.6951 33.9759 18.7439V38.895C33.9759 39.9439 33.1186 40.8011 32.0697 40.8011H1.90614C0.857225 40.8011 0 39.9439 0 38.895V18.7439C0 17.695 0.857297 16.8378 1.90614 16.8378H1.90702ZM16.9888 21.8991C20.0296 21.8991 22.4949 24.3645 22.4949 27.4052C22.4949 29.9195 20.8134 32.0379 18.5151 32.6992V36.5033H15.4621V32.6992C13.1642 32.0381 11.4823 29.9195 11.4823 27.4052C11.4823 24.3645 13.9477 21.8991 16.9885 21.8991H16.9888ZM16.9888 24.9481C18.3441 24.9481 19.4459 26.0503 19.4459 27.4052C19.4459 28.7605 18.3438 29.8623 16.9888 29.8623C15.6336 29.8623 14.5317 28.7602 14.5317 27.4052C14.5317 26.05 15.6338 24.9481 16.9888 24.9481ZM8.09076 16.838H25.8832V8.42171C25.8832 6.66244 24.43 5.20958 22.6711 5.20958H11.308C9.54872 5.20958 8.09156 6.6628 8.09156 8.42171V16.838H8.09076Z" fill="#000"/>
</svg>
