<svg xmlns="http://www.w3.org/2000/svg" width="1000" height="1000" enable-background="new 0 0 1000 1000" viewBox="0 0 1000 1000" style="z-index: 100;"><ellipse cx="421.341" cy="691.079" fill="#9FA8DA" rx="353.341" ry="99.391"/><ellipse cx="666.581" cy="801.786" fill="#9FA8DA" rx="265.419" ry="74.66"/><ellipse cx="311.813" cy="824.856" fill="#9FA8DA" rx="69.258" ry="19.481"/><ellipse cx="195.867" cy="801.786" fill="#9FA8DA" rx="38.739" ry="10.897"/><path fill="#263238" d="M746.234,440.706l-85.051-27.771l-83.444,29.137c-3.919-2.274-3.397-8.994-0.495-9.566
			l78.649-29.764l8.653-0.634l84.084,30.431C748.742,432.743,746.234,440.706,746.234,440.706z"/><path fill="#26A69A" d="M807.454,491.36l-41.477-14.205c0,0,0.289-0.877-0.249,10.18
			c-0.584,12.002-6.782,16.998-12.24,17.236c-4.614,0.203-4.892-2.768-4.892-2.768l-0.757-17.264l-13-35.01
			c-0.763-2.59-0.654-5.358,0.311-7.881l5.875-15.361c1.472-3.85,4.624-6.813,8.556-8.047l19.534-6.124
			c1.308-0.159,3.357,0.104,4.583,0.588l40.402,11.06c14.818,5.873,15.11,45.051,13.654,48.723
			C826.299,476.159,817.286,495.258,807.454,491.36z"/><path fill="#E8EAF6" d="M679.639,653.489c0,42.881-94.083,62.647-198.932,62.647
		c-104.85,0-198.933-19.767-198.933-62.647c0-109.867,89.065-198.932,198.933-198.932S679.639,543.622,679.639,653.489z"/><path fill="#E8EAF6" d="M412.328,382.065c-42.895,36.414-93.041,91.225-56.578,134.18
		c36.463,42.957,208.831,64.078,251.727,27.664c42.896-36.412-13.569-105.604-50.032-148.559
		C520.98,352.396,455.222,345.651,412.328,382.065z"/><path fill="#FFF" d="M373.699,420.219c0,0-0.511,0.644-1.469,1.851c-0.965,1.207-2.34,2.984-4.048,5.289
		c-1.716,2.297-3.721,5.143-5.937,8.453c-2.206,3.316-4.549,7.151-6.849,11.457c-2.299,4.302-4.506,9.108-6.307,14.348
		c-1.809,5.229-3.196,10.911-3.652,16.84c-0.427,5.919,0.111,12.076,2.007,17.925c0.898,2.937,2.172,5.772,3.686,8.484
		c1.481,2.731,3.299,5.294,5.276,7.724l1.514,1.8l1.635,1.653l0.863,0.877c0.288,0.297,0.575,0.594,0.866,0.815l1.728,1.45
		c1.09,0.988,2.407,1.888,3.666,2.8c1.235,0.939,2.584,1.748,3.907,2.571c5.327,3.245,10.871,6.031,16.376,8.48
		c5.499,2.464,10.902,4.71,16.108,6.698c2.586,1.033,5.147,1.932,7.625,2.806c2.455,0.942,4.88,1.714,7.188,2.518
		c4.637,1.542,8.9,2.971,12.715,4.134c1.901,0.606,3.679,1.19,5.341,1.666c1.654,0.512,3.174,0.982,4.547,1.407
		c2.749,0.849,4.923,1.473,6.396,1.953c1.477,0.469,2.264,0.72,2.264,0.72l0.007,0.002c0.185,0.059,0.288,0.257,0.229,0.442
		c-0.051,0.16-0.205,0.257-0.365,0.244c0,0-0.824-0.071-2.369-0.203c-1.544-0.143-3.814-0.336-6.685-0.703
		c-2.868-0.383-6.36-0.829-10.331-1.551c-1.994-0.326-4.104-0.725-6.321-1.195c-2.216-0.473-4.566-0.898-6.974-1.532
		c-4.845-1.151-10.071-2.532-15.516-4.321c-5.479-1.676-11.135-3.887-16.883-6.449c-5.725-2.616-11.464-5.816-16.966-9.644
		c-1.373-0.964-2.76-1.909-4.065-3.014c-1.324-1.072-2.67-2.072-3.958-3.342l-1.944-1.817c-0.667-0.606-1.128-1.22-1.703-1.83
		l-1.737-1.938l-1.567-2.046c-2.06-2.748-3.944-5.65-5.467-8.738c-1.553-3.065-2.837-6.269-3.705-9.558
		c-1.837-6.56-2.143-13.338-1.426-19.671c0.762-6.339,2.417-12.281,4.593-17.61c2.149-5.346,4.668-10.155,7.235-14.42
		c2.567-4.269,5.139-8.029,7.538-11.265c2.402-3.233,4.574-5.986,6.444-8.185c1.852-2.211,3.348-3.923,4.377-5.064
		c1.028-1.147,1.577-1.76,1.577-1.76c0.129-0.144,0.351-0.156,0.494-0.027C373.797,419.864,373.813,420.075,373.699,420.219z"/><circle cx="594.424" cy="553.158" r="7.359" fill="#212121"/><circle cx="638.336" cy="611.108" r="7.359" fill="#212121"/><circle cx="560.756" cy="447.197" r="7.358" fill="#212121"/><circle cx="581.312" cy="495.998" r="7.359" fill="#212121"/><path fill="#E83A3A" d="M470.643,543.716l49.023,19.194c0,0,0.407-137.079-17.895-161.931l-27.115,2.902
				C489.068,433.647,470.643,543.716,470.643,543.716z"/><path fill="#E83A3A" d="M519.645 561.679c.421 10.941.518 21.876 1.705 32.773.349 3.198-4.623 3.735-4.972.531-1.188-10.896-1.283-21.832-1.706-32.771C514.549 559.012 519.519 558.456 519.645 561.679L519.645 561.679zM509.163 559.315c-1.478 4.614-1.155 9.418-1.462 14.196-.308 4.774-.873 9.521-1.604 14.246-.494 3.177-5.431 2.38-4.937-.809 1.505-9.708.451-20.347 3.44-29.685C505.581 554.208 510.136 556.276 509.163 559.315L509.163 559.315zM499.718 555.423c-3.079 9.447-3.105 19.854-4.75 29.67-.532 3.169-5.469 2.377-4.935-.809 1.728-10.309 1.894-20.998 5.125-30.912C496.153 550.319 500.709 552.386 499.718 555.423L499.718 555.423zM491.365 551.439c-2.336 9.897-3.773 20.021-4.992 30.108-.387 3.191-5.322 2.388-4.937-.811 1.219-10.086 2.656-20.211 4.993-30.105C487.162 547.521 492.107 548.298 491.365 551.439L491.365 551.439zM481.446 549.895c1.77-.95.638-.499.442.876-.122.852-.439 1.713-.64 2.559-.663 2.75-1.232 5.525-1.805 8.294-.972 4.702-1.821 9.441-2.95 14.108-.753 3.104-5.694 2.33-4.936-.809 1.458-6.021 2.504-12.142 3.811-18.198.678-3.149.987-9.729 4.243-11.482C482.443 543.72 484.247 548.388 481.446 549.895L481.446 549.895zM473.938 546.878c-2.111.66-3.537 7.889-4.251 9.763-1.298 3.411-2.689 6.776-4.228 10.087-1.353 2.918-5.919.88-4.56-2.049 2.113-4.551 3.91-9.218 5.659-13.918 1.208-3.246 1.818-7.375 5.545-8.531C475.163 541.276 477.013 545.925 473.938 546.878L473.938 546.878z"/><path fill="#FF5252" d="M503.329,334.839c-20.977-19.962-38.594-16.607-49.814,0.912
			c-7.017,10.957-14.57,9.336-15.938,22.334c-1.715,16.303,25.463,55.529,64.219,64.752c39.235,9.336,55.433,5.199,67.689-5.16
			c15.842-13.39,3.241-51.521,1.262-52.01c-4.093-4.389-31.099,34.729-56.767-0.49C501.142,347.561,503.329,334.839,503.329,334.839
			z"/><g><path fill="#37474F" d="M612.473,315.052c0,0,26.556-49.324,39.483-60.976
			c-3.986-11.438-19.744-27.857-37.054-37.401c-19.75-10.89-40.673-14.99-45.358-12.342c-14.293,12.631-35.188,63.953-35.188,63.953
			L612.473,315.052z"/><path fill="#263238" d="M498.779,262.349c-6.42,17.389,22.547,44.102,64.699,59.663
			c42.153,15.564,81.527,14.085,87.948-3.304c6.419-17.387-23.934-53.801-66.088-69.363
			C543.187,233.78,505.198,244.962,498.779,262.349z"/><path fill="#E8EAF6" d="M512.596,379.571L512.596,379.571c26.673,19.416,64.036,13.531,83.451-13.143
			l12.811-17.602c12.057-16.564,16.125-37.688,5.234-56.279c-4.462-7.617-43.179-32.908-75.638-22.841
			c-22.531,6.988-39.102,25.778-39.102,25.778C479.79,322.362,485.719,360.009,512.596,379.571z"/><path fill="#FF5252" d="M600.671,401.41c-3.118,1.575-44.372-45.376-43.428-51.981
			c0.456-3.186,2.635-8.917,8.32-11.145c5.686-2.229,11.707,0.617,15.806,4.923C585.468,347.512,603.786,399.835,600.671,401.41z"/><path fill="#263238" d="M532.208 326.284c-.642 0-1.283-.246-1.771-.736-.209-.209-.419-.411-.63-.602-1.022-.927-1.1-2.508-.172-3.531.927-1.022 2.508-1.1 3.531-.172.272.247.544.506.814.777.974.979.971 2.561-.007 3.536C533.484 326.042 532.846 326.284 532.208 326.284zM544.658 366.018c-.992 0-1.93-.593-2.321-1.57-.283-.706-.545-1.44-.78-2.182-.416-1.316.314-2.721 1.631-3.137 1.32-.416 2.721.315 3.137 1.631.197.623.417 1.237.653 1.827.514 1.281-.108 2.737-1.39 3.251C545.282 365.96 544.967 366.018 544.658 366.018zM542.514 355.641c-1.34 0-2.449-1.062-2.497-2.411-.015-.43-.021-.831-.021-1.201 0-.41.008-.779.02-1.106.049-1.379 1.184-2.453 2.587-2.41 1.38.049 2.458 1.208 2.41 2.587-.01.276-.016.588-.017.932 0 .312.005.654.019 1.02.049 1.38-1.03 2.538-2.41 2.587C542.574 355.641 542.544 355.641 542.514 355.641zM541.68 345.073c-1.144 0-2.176-.79-2.437-1.953-.146-.652-.309-1.302-.487-1.948-.368-1.331.414-2.708 1.745-3.075 1.328-.368 2.708.414 3.075 1.745.2.723.383 1.452.547 2.182.302 1.347-.544 2.685-1.892 2.987C542.046 345.053 541.862 345.073 541.68 345.073zM538.168 335.05c-.927 0-1.817-.518-2.25-1.407-.296-.608-.604-1.203-.921-1.78-.666-1.21-.225-2.73.985-3.396 1.21-.667 2.73-.224 3.396.985.357.649.703 1.318 1.036 2.002.604 1.242.087 2.738-1.154 3.342C538.907 334.969 538.535 335.05 538.168 335.05zM549.706 374.036c-.668 0-1.336-.267-1.828-.795-.252-.271-.496-.544-.732-.819-.901-1.046-.784-2.625.263-3.525 1.045-.902 2.625-.784 3.525.262.194.225.394.45.601.671.942 1.01.887 2.592-.123 3.533C550.929 373.814 550.317 374.036 549.706 374.036z"/><ellipse cx="573.045" cy="316.565" fill="#212121" rx="4.38" ry="4.816" transform="rotate(53.516 573.061 316.566)"/><ellipse cx="593.993" cy="344.888" fill="#212121" rx="4.691" ry="4.817" transform="rotate(53.511 593.977 344.887)"/></g><g><path fill="#263238" d="M231.619,415.04c-1.428,1.037-1.978,2.965-1.219,4.634
			c0.867,1.903,3.114,2.743,5.018,1.879l72.67-33.089l103.07,34.217c5.026,0.629,9.108-5.701,6.913-8.174l-98.362-32.938
			l-7.249-7.824l-80.182,40.91C232.041,414.763,231.821,414.893,231.619,415.04z"/><path fill="#26A69A" d="M173.826,490.694l43.33-22.868c0,0-0.47-0.917,2.038,11.196
			c2.723,13.148,10.432,17.59,16.497,16.908c5.129-0.575,4.923-3.902,4.923-3.902l-2.156-19.189l8.288-40.903
			c0.395-2.991-0.206-6.028-1.707-8.646l-9.146-15.942c-2.293-3.993-6.286-6.721-10.841-7.4l-22.627-3.378
			c-1.47,0.052-3.688,0.695-4.956,1.441l-42.688,19.209c-15.342,9.051-8.878,52.352-6.636,56.153S163.647,496.698,173.826,490.694z"/></g><g><path fill="#FFF" d="M416.643 460.487c0 3.225-2.614 5.838-5.838 5.838s-5.838-2.613-5.838-5.838 5.838-17.316 5.838-17.316S416.643 457.263 416.643 460.487zM549.706 299.304c0 3.225-2.614 5.839-5.838 5.839-3.225 0-5.839-2.614-5.839-5.839 0-3.224 5.839-17.314 5.839-17.314S549.706 296.08 549.706 299.304zM392.748 482.378c0 3.225-2.614 5.838-5.838 5.838-3.225 0-5.838-2.613-5.838-5.838s5.838-17.315 5.838-17.315S392.748 479.153 392.748 482.378zM577.91 602.918c0 3.224-2.614 5.838-5.838 5.838-3.224 0-5.838-2.614-5.838-5.838 0-3.225 5.838-17.315 5.838-17.315S577.91 599.693 577.91 602.918zM559.854 516.372c0 3.225-2.614 5.839-5.838 5.839-3.225 0-5.838-2.614-5.838-5.839 0-3.224 5.838-17.314 5.838-17.314S559.854 513.148 559.854 516.372zM339.765 632.314c0 3.224-2.614 5.839-5.838 5.839-3.224 0-5.838-2.615-5.838-5.839 0-3.225 5.838-17.315 5.838-17.315S339.765 629.09 339.765 632.314zM554.016 624.809c0 3.224-2.614 5.838-5.838 5.838-3.225 0-5.838-2.614-5.838-5.838 0-3.225 5.838-17.315 5.838-17.315S554.016 621.584 554.016 624.809z"/></g></svg>