<svg width="24" height="24" viewBox="0 0 24 24" fill="none" xmlns="http://www.w3.org/2000/svg">
<path d="M9.46538 6.45927H18.2782C18.6814 6.45927 19.0078 6.13289 19.0078 5.72963C19.0078 5.32638 18.6814 5 18.2782 5H9.46538C9.06211 5 8.73574 5.32638 8.73574 5.72963C8.73574 6.13277 9.06213 6.45927 9.46524 6.45927H9.46538Z" fill="white"/>
<path d="M5.66378 12.7953H18.2782C18.6814 12.7953 19.0078 12.4689 19.0078 12.0656C19.0078 11.6624 18.6814 11.336 18.2782 11.336L5.66378 11.3361C5.26051 11.3361 4.93414 11.6625 4.93414 12.0658C4.93428 12.4689 5.26066 12.7953 5.66378 12.7953V12.7953Z" fill="white"/>
<path d="M9.46538 19.1313H18.2782C18.6814 19.1313 19.0078 18.8049 19.0078 18.4016C19.0078 17.9984 18.6814 17.672 18.2782 17.672H9.46538C9.06211 17.672 8.73574 17.9984 8.73574 18.4016C8.73574 18.8049 9.06213 19.1313 9.46524 19.1313H9.46538Z" fill="white"/>
</svg>
