<svg width="93" height="92" viewBox="0 0 93 92" fill="none" xmlns="http://www.w3.org/2000/svg">
<path d="M91.8955 15.6957C93.0748 12.6614 89.9218 9.91343 88.7663 9.03368C88.4525 5.33926 84.642 4.16632 82.2327 4.0272C79.0247 0.0177407 71.6614 1.8252 69.7121 2.39235C67.9726 1.21177 66.1762 0.793433 64.3667 1.14762C61.4075 1.72699 59.2973 4.23889 58.4593 5.4028C57.2062 5.18143 56.3086 5.56705 55.7511 5.96806C53.8884 7.31098 53.4714 10.4113 53.3802 11.8574C51.4028 12.4746 50.0163 13.4916 49.2489 14.8877C48.4289 16.3827 48.5842 17.8821 48.726 18.5784C46.0158 24.5403 50.8747 30.229 51.9212 31.353C52.4974 33.4664 53.5131 34.8177 54.9414 35.3688C55.429 35.5581 55.9198 35.6319 56.3876 35.6319C57.0164 35.6319 57.6002 35.4972 58.0866 35.331C58.1944 36.1548 58.3337 36.9594 58.5133 37.737L46.2686 37.7357V36.7277C46.2686 36.337 45.9517 36.0207 45.5616 36.0207H40.2663V31.5831C40.2663 27.2984 37.7422 23.3748 33.8392 21.5879C32.9724 21.1824 31.6898 20.263 31.6898 19.5758C31.6898 19.4898 31.7103 19.4006 31.7469 19.3082C31.8206 19.1247 31.9605 18.9329 32.1415 18.7436C32.144 18.7411 32.1479 18.7372 32.1517 18.7346C32.6034 18.265 33.3015 17.8152 33.8391 17.5637C33.8391 17.5637 33.8397 17.5637 33.8397 17.563C37.3315 15.9622 39.7028 12.6522 40.168 8.90699C40.2251 8.80433 40.2655 8.69397 40.2655 8.56885C40.2655 8.47453 40.245 8.38535 40.2123 8.30322C40.2289 8.05812 40.2655 7.81624 40.2655 7.5692L40.2662 3.13104H45.5614C45.9521 3.13104 46.2685 2.81408 46.2685 2.42397V0.708989C46.2685 0.316962 45.9521 0 45.5614 0H12.9716C12.5809 0 12.2646 0.316962 12.2646 0.707067V2.42205C12.2646 2.8128 12.5815 3.12912 12.9716 3.12912H18.2669V7.56662C18.2669 7.81492 18.3034 8.05618 18.3201 8.30064C18.2868 8.38277 18.2669 8.47196 18.2669 8.56627C18.2669 8.69075 18.3086 8.80239 18.3644 8.90441C18.8289 12.6514 21.2022 15.9629 24.6926 17.5611C25.5595 17.9666 26.8434 18.8861 26.8434 19.5732C26.8434 20.2604 25.5595 21.1798 24.6966 21.5834C20.7911 23.3716 18.2668 27.2957 18.2668 31.5798V36.0173H12.9716C12.5808 36.0173 12.2645 36.3342 12.2645 36.7243V37.7323L8.09278 37.7349C7.70203 37.7349 7.38571 38.0518 7.38571 38.4419V40.7243C7.38571 41.115 7.70267 41.4313 8.09278 41.4313L9.14825 41.432L9.36511 41.9376C10.0465 43.5281 9.94643 45.335 9.16107 46.8619H8.09278C7.70203 46.8619 7.38571 47.1789 7.38571 47.569V49.7639C7.38571 50.1547 7.70267 50.471 8.09278 50.471H13.9892V52.0442C13.9892 52.435 14.3062 52.7513 14.6963 52.7513H15.8114C17.4264 55.2697 17.4264 60.6638 15.8108 63.1841H14.6969C14.3062 63.1841 13.9898 63.5011 13.9898 63.8912V65.4644L0.707067 65.4657C0.316963 65.4683 0 65.7846 0 66.1753V68.457C0 68.8477 0.316963 69.1641 0.707067 69.1641H1.52064V74.5942L0.707067 74.5948C0.316963 74.5948 0 74.9118 0 75.3019V77.5853C0 77.9761 0.316963 78.2924 0.707067 78.2924H10.2159V79.8656C10.2159 80.2564 10.5329 80.5727 10.923 80.5727H12.0555C13.6223 82.8941 13.6223 85.9649 12.0561 88.2843H10.923C10.5323 88.2843 10.2159 88.6013 10.2159 88.9914V91.2748C10.2159 91.6656 10.5329 91.9819 10.923 91.9819H86.9253C87.4463 91.9819 87.8685 91.5597 87.8685 91.0387V74.293C87.8685 73.772 87.4463 73.3498 86.9253 73.3498H81.2951L89.3127 64.2844C89.6432 63.9097 89.6245 63.3444 89.2723 62.9922L83.8552 57.5762V52.7532H84.6694C85.0601 52.7532 85.3765 52.4362 85.3765 52.0461V49.7645C85.3765 49.3737 85.0595 49.0574 84.6694 49.0574H81.1611V45.2102C81.1611 45.1474 81.1373 45.0928 81.1251 45.0331C83.8155 41.1866 85.5838 35.8137 85.7121 30.0211C86.8946 29.5649 88.1651 28.8469 88.251 27.6323C88.2786 27.2384 88.1734 26.8958 88.004 26.6038C89.4778 25.7755 89.5978 24.7675 89.2686 23.5581C89.1063 22.9671 89.0935 22.919 89.7877 22.5712C92.999 20.9672 92.2233 16.9391 91.8954 15.6944L91.8955 15.6957ZM13.7234 80.5746H52.4119V88.2862H13.7234C14.9758 85.8827 14.9758 82.9788 13.7234 80.5746ZM58.7801 73.3512H53.3559C52.8349 73.3512 52.4127 73.7734 52.4127 74.2944V74.5953H2.93594V69.1652H56.4173L58.7801 73.3512ZM68.5294 84.4371V75.2388H75.1336V84.4371H68.5294ZM67.5863 84.4371H60.9821V75.2388H67.5863V84.4371ZM54.2989 75.2375H60.0387V84.4358H54.2989V75.2375ZM60.9474 73.3512L55.8182 64.2627L75.0065 73.3512H60.9474ZM52.8669 61.4703C52.8547 61.4825 52.8521 61.5005 52.84 61.514C52.7642 61.598 52.7097 61.6917 52.6686 61.795C52.6584 61.82 52.641 61.8399 52.6327 61.8662C52.5929 61.9984 52.5846 62.1376 52.6058 62.2768C52.6064 62.2839 52.6032 62.291 52.6051 62.2974C52.6096 62.325 52.6308 62.3455 52.6372 62.3718C52.6577 62.4494 52.6706 62.5277 52.7116 62.6015L53.0427 63.1873L17.4487 63.1866C18.7871 60.2994 18.7878 55.6411 17.4493 52.7539H60.9768V53.3576L52.8669 61.4703ZM60.9789 44.6014V46.8643H10.7466C11.4261 45.1306 11.4158 43.1757 10.6856 41.4342H59.6992C60.106 42.4082 60.5725 43.3218 61.0947 44.1694C61.0254 44.3003 60.978 44.4421 60.978 44.6012L60.9789 44.6014ZM33.2462 22.8721C36.6512 24.4306 38.8514 27.8505 38.8514 31.5834V31.72C38.0789 30.4554 37.0227 29.3589 35.7074 28.5447L32.876 26.7924C32.1336 26.3247 31.689 25.5226 31.689 24.6436V21.9025C32.3806 22.455 33.0967 22.8027 33.2462 22.872L33.2462 22.8721ZM19.683 7.56886V3.13135H38.8515V7.56886C38.8515 7.66766 38.8329 7.76327 38.8304 7.86208H19.7046C19.702 7.76327 19.6834 7.66767 19.6834 7.56886H19.683ZM13.6793 1.71531V1.41504H44.8549V1.71531H13.6793ZM28.1439 18.9046C27.6294 17.407 25.5563 16.4035 25.29 16.2798H25.2881C25.2881 16.2798 25.2874 16.2798 25.2874 16.2791C22.413 14.9632 20.4143 12.3145 19.8569 9.27712H38.6772C38.119 12.3158 36.121 14.9631 33.2426 16.2804C32.9385 16.4216 30.2739 17.7119 30.2739 19.5757V24.6438C30.2739 26.0124 30.9656 27.2628 32.1275 27.9925L34.9622 29.7474C37.1931 31.1288 38.5855 33.4398 38.805 36.0204L19.7284 36.0198C19.9478 33.4385 21.3402 31.1288 23.573 29.7467L26.4134 27.99C27.5696 27.2624 28.2593 26.0112 28.2593 24.6453V19.5752C28.26 19.343 28.2182 19.1197 28.1445 18.9048L28.1439 18.9046ZM19.6829 31.5831C19.6829 27.85 21.883 24.4316 25.29 22.8711C25.4382 22.8019 26.153 22.4541 26.844 21.9017V24.6452C26.844 25.5223 26.4007 26.3255 25.6634 26.7902L22.8274 28.5445C21.5121 29.3587 20.4548 30.4552 19.6816 31.7198L19.6822 31.5832L19.6829 31.5831ZM13.6792 37.4366H44.8531V37.7375H13.6792V37.4366ZM9.6152 40.0192H8.80163V39.1523H58.8779C58.9658 39.4481 59.0698 39.7317 59.1667 40.0192H9.6152ZM8.80163 49.0583V48.2787H60.9788V49.0583H8.80163ZM16.2194 51.3399H15.4058V50.4737H60.9799V51.3399H16.2194ZM15.4045 64.6028H53.8418L54.3307 65.469H15.404L15.4045 64.6028ZM1.41462 67.7493V66.8831H14.6974L55.1303 66.8838L55.6192 67.7499L2.22991 67.7493H1.41462ZM1.41462 76.8782V76.0101H52.4124V76.8782H1.41462ZM12.4453 79.1592H11.6317V78.2931H52.4129V79.1592H12.4453ZM11.6317 89.7011H52.4129V90.5692L11.6317 90.5686V89.7011ZM54.3002 90.0963V86.5591H85.9832V90.097L54.3002 90.0963ZM85.9832 84.4373H76.0772V75.239H85.9837L85.9832 84.4373ZM78.9646 73.1397L55.1494 61.8573L62.5896 54.4171C62.7667 54.24 62.8661 54 62.8661 53.7505V46.561C65.2845 49.2757 68.3956 50.8818 71.8335 50.8818C74.5258 50.8818 77.0922 49.5408 79.2757 47.2984V55.2762C79.2757 55.5271 79.3751 55.7658 79.5522 55.9429L87.3119 63.7026L78.9646 73.1397ZM81.1635 54.8844V52.7542H82.4429L82.4423 56.1625L81.1635 54.8844ZM83.9642 50.4734V51.3395H81.1635V50.4734H83.9642ZM85.7383 27.9475V27.0466C85.7865 27.0832 85.8359 27.1166 85.8917 27.1454C86.0945 27.2507 86.3402 27.4579 86.3793 27.4624C86.3774 27.465 86.2882 27.6562 85.7384 27.9475L85.7383 27.9475ZM88.9471 20.8865C86.8683 21.9259 87.248 23.3119 87.4514 24.0581C87.6061 24.6253 87.6709 24.8601 86.0219 25.4113C85.832 25.4741 85.6735 25.5948 85.5606 25.7494C85.533 25.6795 85.5016 25.6108 85.4682 25.5447L84.475 23.5538C84.3807 23.3664 84.3807 23.1444 84.475 22.9577C84.8734 22.1602 84.8311 21.2324 84.3627 20.474C83.8949 19.7163 83.082 19.2633 82.1901 19.2633H81.381C81.0936 19.2633 80.8395 19.0798 80.749 18.8071L80.1779 17.0946C79.9438 16.3927 79.417 15.8267 78.7337 15.5432C78.0484 15.2608 77.2785 15.2865 76.6144 15.6176L76.0601 15.8954C75.8477 16.0032 75.5936 15.9897 75.3934 15.8537L71.5957 13.3225C71.5149 13.268 71.4244 13.2423 71.3346 13.2154L70.0032 7.8932C69.9403 7.6404 69.6895 7.48641 69.4322 7.54929C69.1794 7.61281 69.0247 7.86945 69.0889 8.12098L70.4216 13.4484C70.3766 13.4927 70.324 13.528 70.2868 13.5819C69.9974 14.0162 70.1155 14.6008 70.5486 14.8908L74.3444 17.4213C75.1053 17.9314 76.0909 17.9904 76.9038 17.5817L77.4581 17.3039C77.6923 17.1877 77.9047 17.2404 78.0106 17.2846C78.1158 17.3283 78.3038 17.4386 78.3866 17.6901L78.9576 19.4027C79.306 20.4472 80.2813 21.1485 81.3804 21.1485H82.1895C82.525 21.1485 82.6976 21.3699 82.7567 21.4648C82.8157 21.5598 82.9357 21.8132 82.7862 22.1122C82.4281 22.827 82.4281 23.681 82.7862 24.3957L83.7794 26.3879C83.8275 26.481 83.8513 26.5836 83.8513 26.685V29.3548C83.8513 39.6349 78.1222 48.9964 71.8337 48.9964C65.5819 48.9964 60.5278 42.6277 59.8129 33.8529C59.8103 33.8241 59.7956 33.8016 59.7911 33.7727C59.7828 33.7246 59.7847 33.6778 59.7693 33.6309L58.5361 29.9378C58.4257 29.6093 58.4514 29.2584 58.606 28.9472L59.4774 27.2033C59.7006 26.7631 59.8168 26.2697 59.8168 25.7776V24.6413C59.8168 24.1472 60.0914 23.7013 60.5335 23.48L61.1045 23.1938C62.1921 22.6503 62.8658 21.5589 62.8658 20.2661C62.8658 19.8426 63.0634 19.4602 63.4035 19.2132C63.7467 18.9649 64.1715 18.8988 64.5738 19.0342C65.9302 19.4897 67.4354 18.9733 68.2311 17.7792L69.9538 15.1942C70.1623 14.8817 70.1527 14.4935 69.9724 14.1907C69.9852 14.1246 70.0192 14.0623 70.0019 13.9924L68.4787 7.8938C68.4158 7.64099 68.165 7.487 67.9077 7.54988C67.6549 7.6134 67.5002 7.87005 67.5644 8.12157L68.9708 13.7517C68.7405 13.8018 68.5262 13.9352 68.3844 14.1476L66.6617 16.7313C66.337 17.217 65.7256 17.4294 65.1712 17.2434C64.1857 16.9161 63.1405 17.0753 62.3025 17.6822C61.4626 18.2873 60.9788 19.2285 60.9788 20.345C60.9788 20.839 60.7042 21.2849 60.2602 21.5063L59.6892 21.7931C58.6036 22.3365 57.9299 23.4273 57.9299 24.6406V25.7769C57.9299 25.9771 57.8817 26.1773 57.7913 26.3569L56.918 28.1035C56.5382 28.8644 56.4753 29.7274 56.7448 30.5333L57.7213 33.4596C57.1747 33.6836 56.3483 33.8979 55.613 33.6079C54.7397 33.2659 54.093 32.2707 53.6874 30.6506C53.6451 30.4844 53.5604 30.3324 53.4385 30.2117C53.3833 30.1553 47.8518 24.5308 50.566 19.1027C50.675 18.8833 50.693 18.6234 50.6192 18.3899C50.6154 18.3758 50.206 17.0425 50.9144 15.7753C51.5072 14.714 52.7238 13.9473 54.5253 13.4956C54.9456 13.3904 55.2401 13.0144 55.2401 12.5806C55.2401 11.5643 55.5372 8.4493 56.8538 7.49892C57.138 7.29232 57.6256 7.06069 58.5727 7.37509C58.9898 7.51688 59.4537 7.34557 59.6801 6.96573C59.7007 6.93172 61.7404 3.58373 64.729 2.99865C66.1265 2.72661 67.5611 3.12249 68.9778 4.18565C69.2267 4.37108 69.5469 4.42433 69.842 4.32681C69.9248 4.29794 78.3455 1.55764 80.9581 5.4798C81.1333 5.74159 81.4278 5.89942 81.7409 5.90006C81.9514 5.9007 86.8977 5.96101 86.8977 9.53091C86.8977 9.84659 87.0562 10.1404 87.3179 10.3156C87.3564 10.3413 91.1671 12.9662 90.0467 15.2079C89.9344 15.4319 89.9158 15.6904 89.9954 15.9285C90.0121 15.967 91.2382 19.7416 88.947 20.887L88.9471 20.8865Z" fill="white"/>
</svg>
