<svg width="89" height="89" viewBox="0 0 89 89" fill="none" xmlns="http://www.w3.org/2000/svg">
<path d="M88.8613 28.4019C88.8613 12.748 76.1239 0.0106812 60.47 0.0106812C54.5525 0.0106812 49.0533 1.83662 44.5 4.94751C39.9466 1.83664 34.4474 0.0106812 28.5299 0.0106812C12.876 0.0106812 0.138672 12.748 0.138672 28.4019C0.138672 34.3194 1.96461 39.8186 5.0755 44.372C1.96463 48.9253 0.138672 54.4245 0.138672 60.342C0.138672 75.9959 12.876 88.7333 28.5299 88.7333C34.4474 88.7333 39.9466 86.9073 44.5 83.7964C49.0533 86.9073 54.5525 88.7333 60.47 88.7333C76.1239 88.7333 88.8613 75.9959 88.8613 60.342C88.8613 54.4245 87.0353 48.9253 83.9244 44.372C87.0353 39.8186 88.8613 34.3194 88.8613 28.4019ZM85.3123 60.342C85.3123 74.041 74.169 85.1844 60.47 85.1844C55.6893 85.1844 51.2374 83.8036 47.4437 81.4548C53.2447 76.2535 56.9211 68.7278 56.9211 60.3418C56.9211 59.3627 56.1282 58.5674 55.1467 58.5674C54.1652 58.5674 53.3722 59.3627 53.3722 60.3418C53.3722 67.9616 49.9176 74.7822 44.5 79.3427C39.0823 74.7822 35.6277 67.9616 35.6277 60.3418C35.6277 59.3627 34.8347 58.5674 33.8533 58.5674C32.8718 58.5674 32.0788 59.3627 32.0788 60.3418C32.0788 68.7278 35.7553 76.2533 41.5562 81.4548C37.7625 83.8035 33.3106 85.1844 28.5299 85.1844C14.8309 85.1844 3.68757 74.041 3.68757 60.342C3.68757 55.5614 5.06832 51.1094 7.41717 47.3157C12.6184 53.1167 20.1441 56.7931 28.5301 56.7931C29.5116 56.7931 30.3046 55.9978 30.3046 55.0187C30.3046 54.0396 29.5116 53.2442 28.5301 53.2442C20.9103 53.2442 14.0897 49.7896 9.52927 44.372C14.0897 38.9543 20.9103 35.4997 28.5301 35.4997C29.5116 35.4997 30.3046 34.7044 30.3046 33.7253C30.3046 32.7461 29.5116 31.9508 28.5301 31.9508C20.1441 31.9508 12.6186 35.6273 7.41717 41.4282C5.0684 37.6345 3.68757 33.1826 3.68757 28.4019C3.68757 14.7029 14.8309 3.55958 28.5299 3.55958C33.3106 3.55958 37.7625 4.94033 41.5562 7.28918C35.7553 12.4904 32.0788 20.0162 32.0788 28.4021C32.0788 29.3812 32.8718 30.1766 33.8533 30.1766C34.8347 30.1766 35.6277 29.3812 35.6277 28.4021C35.6277 20.7823 39.0823 13.9617 44.5 9.40128C49.9176 13.9617 53.3722 20.7823 53.3722 28.4021C53.3722 29.3812 54.1652 30.1766 55.1467 30.1766C56.1282 30.1766 56.9211 29.3812 56.9211 28.4021C56.9211 20.0162 53.2447 12.4907 47.4437 7.28918C51.2374 4.94041 55.6893 3.55958 60.47 3.55958C74.169 3.55958 85.3123 14.7029 85.3123 28.4019C85.3123 33.1826 83.9316 37.6345 81.5828 41.4282C76.3815 35.6273 68.8558 31.9508 60.4698 31.9508C59.4883 31.9508 58.6954 32.7461 58.6954 33.7253C58.6954 34.7044 59.4883 35.4997 60.4698 35.4997C68.0896 35.4997 74.9102 38.9543 79.4706 44.372C74.9102 49.7896 68.0896 53.2442 60.4698 53.2442C59.4883 53.2442 58.6954 54.0396 58.6954 55.0187C58.6954 55.9978 59.4883 56.7931 60.4698 56.7931C68.8558 56.7931 76.3813 53.1167 81.5828 47.3157C83.9315 51.1094 85.3123 55.5614 85.3123 60.342Z" fill="#BCBCBC"/>
<path d="M32.0791 58.5676C33.0606 58.5676 33.8536 57.7723 33.8536 56.7932V53.2443C33.8536 50.3092 36.2419 47.9209 39.1769 47.9209H49.8237C52.7587 47.9209 55.147 50.3092 55.147 53.2443V56.7932C55.147 57.7723 55.94 58.5676 56.9215 58.5676C57.9029 58.5676 58.6959 57.7723 58.6959 56.7932V53.2443C58.6959 49.1472 55.8884 45.7226 52.1091 44.707C53.985 42.7876 55.147 40.1648 55.147 37.2742C55.147 31.4027 50.3718 26.6275 44.5003 26.6275C38.6288 26.6275 33.8536 31.4027 33.8536 37.2742C33.8536 40.1648 35.0157 42.7878 36.8915 44.707C33.112 45.7226 30.3047 49.1472 30.3047 53.2443V56.7932C30.3047 57.7723 31.0977 58.5676 32.0791 58.5676ZM44.5003 30.1764C48.4144 30.1764 51.5981 33.3601 51.5981 37.2742C51.5981 41.1883 48.4144 44.372 44.5003 44.372C40.5862 44.372 37.4025 41.1883 37.4025 37.2742C37.4025 33.3601 40.5862 30.1764 44.5003 30.1764Z" fill="#BCBCBC"/>
</svg>
