<svg width="89" height="90" viewBox="0 0 89 90" fill="none" xmlns="http://www.w3.org/2000/svg">
<path d="M25.5427 22.8973C26.1975 22.8979 26.7749 22.4678 26.9618 21.8402C27.1487 21.2127 26.9006 20.5368 26.3516 20.1792C24.1923 18.9916 21.7404 18.4413 19.2803 18.5942C18.464 18.5942 17.8018 19.2564 17.8018 20.0727C17.8018 20.8896 18.464 21.5518 19.2803 21.5518C21.1666 21.4132 23.0548 21.7957 24.7381 22.6578C24.9776 22.8137 25.2567 22.8967 25.5427 22.8973L25.5427 22.8973Z" fill="#BCBCBC"/>
<path d="M11.8586 25.5968C12.2268 25.2014 12.35 24.6369 12.1804 24.1239C12.0102 23.6108 11.5745 23.2315 11.0429 23.1343C10.5113 23.0371 9.96913 23.237 9.62874 23.6566C3.25434 30.9793 6.32509 42.6274 11.3276 51.0862C11.5937 51.5367 12.0783 51.8127 12.6013 51.8121C13.1317 51.8121 13.6218 51.5268 13.8848 51.0657C14.1472 50.6047 14.1429 50.0378 13.8725 49.5811C9.39673 42.0097 6.51578 31.7336 11.8586 25.5959L11.8586 25.5968Z" fill="#BCBCBC"/>
<path d="M85.766 61.4773H80.9443C82.1505 60.0223 82.8101 58.1917 82.809 56.3016V9.72223C84.4423 9.72223 85.766 8.39844 85.766 6.7646V2.32847C85.766 1.51217 85.1044 0.849967 84.2875 0.849967H65.0648C64.2479 0.849967 63.5857 1.51217 63.5857 2.32847V6.7646C63.5857 8.39836 64.9101 9.72223 66.5433 9.72223V56.3016C66.5421 58.1917 67.2018 60.0222 68.4081 61.4773H46.8184C49.3527 59.4592 51.463 56.9607 53.0288 54.125C59.0808 43.8788 62.541 29.4744 54.0976 19.7815C51.5702 16.8245 48.274 14.6237 44.5737 13.4231C46.9113 10.1486 47.9083 6.10425 47.3612 2.11807C47.2566 1.38964 46.6328 0.849365 45.8969 0.849365C36.4169 0.849365 31.997 5.55467 29.9427 9.90176C28.4327 5.25888 25.246 0.849365 19.2231 0.849365C18.4068 0.849365 17.7446 1.51157 17.7446 2.32786C17.7446 3.14478 18.4068 3.80698 19.2231 3.80698C25.5332 3.80698 27.3769 10.4314 27.9197 14.3396C25.1929 13.1743 22.247 12.6079 19.2825 12.6792C13.7857 12.9355 8.65769 15.5161 5.17581 19.7766C-3.26948 29.4713 0.190706 43.8806 6.24338 54.117C7.80791 56.9551 9.91823 59.456 12.4525 61.4767H2.95763C1.32387 61.4767 0 62.8005 0 64.4337V74.7851C0 76.4184 1.32379 77.7421 2.95763 77.7421V86.6143C2.95763 88.2481 4.28142 89.5719 5.91463 89.5719H82.8086C84.4419 89.5719 85.7656 88.2482 85.7656 86.6143V77.7421C87.3994 77.7421 88.7232 76.4183 88.7232 74.7851V64.4337C88.7232 62.8004 87.3994 61.4767 85.7656 61.4767L85.766 61.4773ZM66.5433 3.8076H82.8097V6.7646H81.3305C80.5143 6.7646 79.852 7.4268 79.852 8.24371V26.9499L79.6466 27.2055C77.2032 30.2262 73.0066 31.1757 69.5013 29.5022V8.2436C69.5013 7.42669 68.8391 6.76449 68.0222 6.76449H66.5437L66.5433 3.8076ZM69.501 56.3013V32.6947C70.6515 33.0865 71.8577 33.2901 73.0732 33.2981C75.514 33.295 77.8892 32.5103 79.8517 31.059V56.3006C79.8517 59.1592 77.5346 61.4763 74.676 61.4763C71.818 61.4763 69.501 59.1592 69.501 56.3006V56.3013ZM25.1397 74.7857V64.4343H66.543V74.7857H25.1397ZM23.6605 86.6149H20.7035V77.7427H23.6605V86.6149ZM44.5547 3.84467C44.6383 7.10982 43.5094 10.2904 41.3854 12.7721C40.9182 12.7263 40.4497 12.6805 39.9855 12.6805C37.0694 12.613 34.1718 13.1595 31.4815 14.2846C32.3287 10.5435 35.1409 4.3819 44.5547 3.84465L44.5547 3.84467ZM15.5725 60.0203C12.7103 58.1828 10.3721 55.6355 8.78652 52.6266C3.25751 43.2692 -0.010171 30.24 7.40393 21.721C10.3418 18.1247 14.6486 15.919 19.2839 15.6375C25.8297 15.6375 28.5448 18.1217 28.5863 18.1588C28.7249 18.2974 28.8902 18.407 29.0715 18.4812C29.0833 18.4812 29.0981 18.4812 29.1111 18.4887C29.277 18.5555 29.4534 18.5908 29.6316 18.5939C29.7708 18.5858 29.9076 18.558 30.0388 18.5109C30.0846 18.4973 30.1329 18.5004 30.1861 18.4825C30.2981 18.4299 30.4021 18.3637 30.4968 18.2844C30.5574 18.2523 30.615 18.2157 30.6701 18.1749C30.6948 18.1514 33.4067 15.6374 39.9861 15.6374C44.6209 15.9277 48.9259 18.1334 51.8686 21.7254C59.2785 30.2325 56.0089 43.2644 50.4817 52.6309C48.8992 55.6393 46.5647 58.1859 43.7061 60.0247C41.9336 61.0007 39.9391 61.5014 37.9159 61.4785H21.339C19.3239 61.4939 17.3379 60.9914 15.5724 60.0204L15.5725 60.0203ZM2.95918 64.4354H22.1819V74.7868H2.95918V64.4354ZM5.91618 77.7438H17.7461V86.616H5.91618V77.7438ZM82.8102 86.616H26.6186V77.7438H82.8102V86.616ZM82.8102 74.7868H69.5018V64.4354H85.7665V74.7868H82.8102Z" fill="#BCBCBC"/>
<path d="M53.2354 82.1781C53.2354 82.9951 53.8976 83.6573 54.7139 83.6573H75.4163C76.2332 83.6573 76.8948 82.9951 76.8948 82.1781C76.8948 81.3619 76.2332 80.6996 75.4163 80.6996H54.7139C53.8976 80.6996 53.2354 81.3619 53.2354 82.1781Z" fill="#BCBCBC"/>
<path d="M56.1936 67.3915H32.5332C31.7169 67.3915 31.0547 68.0537 31.0547 68.87C31.0547 69.687 31.7169 70.3492 32.5332 70.3492H56.1936C57.0099 70.3492 57.6721 69.687 57.6721 68.87C57.6721 68.0537 57.0099 67.3915 56.1936 67.3915Z" fill="#BCBCBC"/>
</svg>
