<svg width="90" height="90" viewBox="0 0 90 90" fill="none" xmlns="http://www.w3.org/2000/svg">
<path d="M34.7235 29.4469V31.9019H22.8938C22.5016 31.9019 22.1253 32.0577 21.8481 32.3349C21.5708 32.6122 21.415 32.9885 21.415 33.3806V58.5188H24.3725V34.8593H65.7766V58.5188H68.7341V33.3806C68.7341 32.9885 68.5783 32.6122 68.301 32.3349C68.0237 32.0577 67.6475 31.9019 67.2553 31.9019V27.4657C67.2553 27.0617 67.0896 26.6749 66.7979 26.3956L63.8061 23.5392C64.125 22.9247 64.2933 22.2434 64.2979 21.5508C64.2979 20.3745 63.8306 19.2455 62.9988 18.4139C62.167 17.5823 61.0381 17.1148 59.8619 17.1148C58.6856 17.1148 57.5566 17.5821 56.7249 18.4139C55.8933 19.2457 55.4258 20.3746 55.4258 21.5508C55.4258 22.727 55.8932 23.8561 56.7249 24.6877C57.5567 25.5194 58.6856 25.9869 59.8619 25.9869C60.4864 25.9849 61.1036 25.8503 61.6727 25.5915L64.298 28.098V31.9018H55.4257V29.4468C55.4244 28.1338 55.0204 26.8519 54.2685 25.775C53.5166 24.6977 52.4531 23.8765 51.2206 23.4222C52.5145 21.4754 52.8109 19.031 52.0194 16.8314C51.2279 14.6317 49.4422 12.9372 47.2043 12.2612C44.9665 11.5852 42.5411 12.0084 40.6643 13.4019C38.7876 14.7955 37.6812 16.9951 37.6812 19.3327C37.6825 20.7896 38.1196 22.2122 38.9355 23.4197C37.7017 23.8732 36.6363 24.6945 35.8831 25.7718C35.1305 26.8498 34.7258 28.1325 34.7239 29.4468L34.7235 29.4469ZM59.8617 23.0295C59.2636 23.0295 58.7243 22.6691 58.4959 22.1166C58.2668 21.564 58.3929 20.9283 58.8161 20.5052C59.2392 20.082 59.8749 19.9559 60.4275 20.185C60.98 20.4134 61.3405 20.9528 61.3405 21.5508C61.3398 22.3674 60.6783 23.0289 59.8617 23.0295ZM37.681 29.4469C37.6823 28.5299 38.0467 27.6506 38.6956 27.0016C39.3445 26.3527 40.2238 25.9883 41.1408 25.987H42.265C42.9403 25.987 43.5299 25.5295 43.6975 24.8747C43.8652 24.2205 43.5681 23.5359 42.9753 23.2118C41.8049 22.5833 40.9764 21.4637 40.7184 20.1599C40.4603 18.8561 40.8003 17.5054 41.6433 16.479C42.4869 15.4518 43.7457 14.857 45.0754 14.857C46.4043 14.857 47.6631 15.4518 48.5069 16.479C49.3505 17.5055 49.6899 18.8561 49.4318 20.1599C49.1736 21.4636 48.3458 22.5833 47.1748 23.2118C46.582 23.5359 46.2843 24.2205 46.452 24.8747C46.619 25.5295 47.2085 25.987 47.8845 25.987H49.0087C49.9256 25.9883 50.8049 26.3527 51.4539 27.0016C52.1028 27.6506 52.4672 28.5299 52.4685 29.4469V31.9019H37.6813L37.681 29.4469Z" fill="#BCBCBC"/>
<path d="M77.8391 72.2216C79.1343 70.2748 79.432 67.8291 78.6405 65.6287C77.849 63.4279 76.0627 61.7319 73.8241 61.0554C71.5849 60.3787 69.1583 60.8025 67.2808 62.1967C65.4032 63.591 64.297 65.7918 64.2976 68.1307C64.2983 69.5876 64.734 71.0116 65.5499 72.2189C64.4818 72.619 63.5392 73.2956 62.8189 74.1796C62.1001 73.2976 61.16 72.6217 60.0946 72.2216C61.3898 70.2748 61.6875 67.8291 60.896 65.6287C60.1045 63.4279 58.3181 61.7318 56.0796 61.0553C53.8404 60.3787 51.4137 60.8025 49.5362 62.1967C47.6586 63.5909 46.5524 65.7918 46.5531 68.1307C46.5537 69.5876 46.9894 71.0116 47.8054 72.2189C46.7373 72.6189 45.7946 73.2956 45.0744 74.1796C44.3555 73.2976 43.4154 72.6216 42.35 72.2216C43.6452 70.2748 43.9429 67.829 43.1514 65.6287C42.3599 63.4279 40.5735 61.7318 38.335 61.0553C36.0958 60.3787 33.6692 60.8025 31.7916 62.1967C29.9141 63.5909 28.8078 65.7918 28.8085 68.1307C28.8092 69.5876 29.2449 71.0116 30.0608 72.2189C28.9927 72.6189 28.0501 73.2956 27.3298 74.1796C26.6109 73.2976 25.6709 72.6216 24.6054 72.2216C25.9006 70.2747 26.1983 67.829 25.4068 65.6287C24.6153 63.4278 22.829 61.7318 20.5904 61.0553C18.3512 60.3787 15.9246 60.8025 14.0471 62.1967C12.1695 63.5909 11.0633 65.7918 11.0639 68.1307C11.0646 69.5876 11.5003 71.0115 12.3162 72.2189C11.0824 72.6724 10.0175 73.4936 9.265 74.571C8.51246 75.6483 8.10776 76.9303 8.10645 78.2446V88.0932C8.10645 88.4853 8.26224 88.8616 8.5395 89.1389C8.81676 89.4161 9.19304 89.5719 9.58516 89.5719H80.5637C80.9558 89.5719 81.3321 89.4161 81.6094 89.1389C81.8866 88.8616 82.0424 88.4853 82.0424 88.0932V78.2446C82.0411 76.9316 81.6371 75.6508 80.8858 74.5735C80.1346 73.4968 79.0712 72.6762 77.8393 72.2214L77.8391 72.2216ZM25.8507 86.6147H11.0635V78.2448C11.0648 77.3279 11.4299 76.4479 12.0782 75.7996C12.7271 75.1507 13.6071 74.7856 14.5241 74.785H15.6489C16.3256 74.785 16.9151 74.3262 17.0821 73.6713C17.2491 73.0158 16.9501 72.3312 16.3559 72.0078C15.1868 71.38 14.3609 70.2617 14.1036 68.9599C13.8468 67.6575 14.1854 66.3087 15.0278 65.2836C15.8701 64.2584 17.1277 63.6636 18.4545 63.6636C19.7814 63.6629 21.039 64.2564 21.8819 65.2816C22.7256 66.3061 23.0656 67.6541 22.8094 68.9566C22.5533 70.2584 21.7275 71.3773 20.5591 72.0065C19.9649 72.3299 19.6652 73.0145 19.8316 73.67C19.9986 74.3262 20.5888 74.785 21.2654 74.785H22.3903C23.3072 74.7857 24.1872 75.1507 24.8362 75.7997C25.4844 76.4479 25.8495 77.3279 25.8508 78.2449L25.8507 86.6147ZM43.5954 86.6147H28.8082V78.2448C28.8095 77.3279 29.1745 76.4479 29.8228 75.7996C30.4717 75.1507 31.3517 74.7856 32.2687 74.785H33.3936C34.0702 74.785 34.6597 74.3262 34.8267 73.6713C34.9937 73.0158 34.6947 72.3312 34.1006 72.0078C32.9315 71.38 32.1056 70.2617 31.8482 68.9599C31.5914 67.6575 31.93 66.3087 32.7724 65.2836C33.6147 64.2584 34.8723 63.6636 36.1991 63.6636C37.526 63.6629 38.7836 64.2564 39.6266 65.2816C40.4702 66.3061 40.8102 67.6541 40.5541 68.9566C40.2979 70.2584 39.4721 71.3773 38.3037 72.0065C37.7096 72.3299 37.4099 73.0145 37.5762 73.67C37.7432 74.3262 38.3334 74.785 39.0101 74.785H40.1349C41.0519 74.7857 41.9319 75.1507 42.5808 75.7997C43.2291 76.4479 43.5941 77.3279 43.5955 78.2449L43.5954 86.6147ZM61.34 86.6147H46.5528V78.2448C46.5541 77.3279 46.9192 76.4479 47.5674 75.7996C48.2163 75.1507 49.0963 74.7856 50.0133 74.785H51.1382C51.8148 74.785 52.4044 74.3262 52.5714 73.6713C52.7384 73.0158 52.4393 72.3312 51.8452 72.0078C50.6761 71.38 49.8502 70.2617 49.5928 68.9599C49.336 67.6575 49.6747 66.3087 50.517 65.2836C51.3594 64.2584 52.617 63.6636 53.9438 63.6636C55.2707 63.6629 56.5282 64.2564 57.3712 65.2816C58.2149 66.3061 58.5548 67.6541 58.2987 68.9566C58.0426 70.2584 57.2167 71.3773 56.0483 72.0065C55.4542 72.3299 55.1545 73.0145 55.3209 73.67C55.4879 74.3262 56.078 74.785 56.7547 74.785H57.8796C58.7965 74.7857 59.6765 75.1507 60.3255 75.7997C60.9737 76.4479 61.3388 77.3279 61.3401 78.2449L61.34 86.6147ZM79.0846 86.6147H64.2974V78.2448C64.2988 77.3279 64.6638 76.4479 65.3121 75.7996C65.961 75.1507 66.841 74.7856 67.758 74.785H68.8828C69.5595 74.785 70.149 74.3262 70.316 73.6713C70.483 73.0158 70.184 72.3312 69.5898 72.0078C68.4207 71.38 67.5948 70.2617 67.3375 68.9599C67.0807 67.6575 67.4193 66.3087 68.2617 65.2836C69.104 64.2584 70.3616 63.6636 71.6884 63.6636C73.0153 63.6629 74.2729 64.2564 75.1158 65.2816C75.9595 66.3061 76.2995 67.6541 76.0433 68.9566C75.7872 70.2584 74.9614 71.3773 73.793 72.0065C73.1989 72.3299 72.8991 73.0145 73.0655 73.67C73.2325 74.3262 73.8227 74.785 74.4993 74.785H75.6242C76.5411 74.7857 77.4211 75.1507 78.0701 75.7997C78.7183 76.4479 79.0834 77.3279 79.0847 78.2449L79.0846 86.6147Z" fill="#BCBCBC"/>
<path d="M53.8702 44.4742C53.694 43.9487 53.2391 43.5658 52.6912 43.4826L48.3627 42.8212L46.4133 38.6676C46.1697 38.1487 45.6482 37.8173 45.0746 37.8173C44.5009 37.8173 43.9794 38.1487 43.7358 38.6676L41.7864 42.8205L37.4579 43.482V43.4826C36.91 43.5658 36.4551 43.9487 36.2789 44.4742C36.1026 44.9996 36.2353 45.5792 36.6228 45.976L39.7981 49.2312L39.0455 53.845C38.9544 54.4041 39.1901 54.9659 39.6529 55.292C40.1163 55.6181 40.725 55.6511 41.2207 55.3772L45.0747 53.247L48.9286 55.3772C49.4244 55.6511 50.0331 55.6181 50.4965 55.292C50.9592 54.9659 51.1949 54.4041 51.1038 53.845L50.3512 49.2312L53.5265 45.976C53.914 45.5799 54.0467 44.9996 53.8705 44.4742L53.8702 44.4742ZM47.713 47.7003C47.3849 48.0363 47.2364 48.5083 47.3123 48.9711L47.6952 51.3166L45.7901 50.2637C45.3451 50.0174 44.8038 50.0174 44.3589 50.2637L42.4543 51.3166L42.8372 48.9711H42.8365C42.9124 48.5083 42.7639 48.0363 42.4358 47.7003L40.7491 45.972L43.0128 45.6254C43.5007 45.5515 43.9192 45.2386 44.1285 44.7923L45.0745 42.7762L46.0205 44.7923C46.2297 45.2386 46.6483 45.5515 47.1361 45.6254L49.3998 45.972L47.713 47.7003Z" fill="#BCBCBC"/>
<path d="M22.8939 8.24292H11.0641C9.88777 8.24424 8.76021 8.71227 7.92841 9.5434C7.09728 10.3752 6.62925 11.5027 6.62793 12.6791V24.5089C6.62925 25.6853 7.09728 26.8128 7.92841 27.6446C8.76019 28.4757 9.88775 28.9438 11.0641 28.9451H22.8939C24.0703 28.9438 25.1978 28.4757 26.0296 27.6446C26.8607 26.8128 27.3288 25.6853 27.3301 24.5089V24.0309L33.7942 21.4458C34.3157 21.2372 34.6735 20.7507 34.7184 20.1909C34.7633 19.6311 34.4874 19.0944 34.0061 18.8046L27.3301 14.7989V12.6791C27.3288 11.5028 26.8607 10.3752 26.0296 9.5434C25.1978 8.71227 24.0703 8.24424 22.8939 8.24292ZM29.9277 19.8067L25.3014 21.6563L25.3021 21.657C24.741 21.8814 24.3726 22.4254 24.3726 23.0301V24.5088C24.3719 25.3254 23.7105 25.9869 22.8939 25.9875H11.0641C10.2475 25.9869 9.58606 25.3254 9.5854 24.5088V12.6791C9.58606 11.8625 10.2475 11.201 11.0641 11.2003H22.8939C23.7105 11.201 24.3719 11.8625 24.3726 12.6791V15.6365C24.3726 16.156 24.6446 16.6373 25.0902 16.9046L29.9277 19.8067Z" fill="#BCBCBC"/>
<path d="M12.543 14.1579H21.4153V17.1153H12.543V14.1579Z" fill="#BCBCBC"/>
<path d="M14.0215 20.0726H19.9364V23.0301H14.0215V20.0726Z" fill="#BCBCBC"/>
<path d="M87.9573 0.849365H2.19161C1.79949 0.849365 1.4232 1.00516 1.14594 1.28242C0.868689 1.55968 0.712891 1.93596 0.712891 2.32808V48.1684C0.712891 48.5605 0.868685 48.9368 1.14594 49.2141C1.4232 49.4913 1.79949 49.6471 2.19161 49.6471H18.4575V46.6897H3.67033V3.8068H86.4786V46.6897H71.6914V49.6471H87.9573C88.3495 49.6471 88.7257 49.4913 89.003 49.2141C89.2803 48.9368 89.4361 48.5605 89.4361 48.1684V2.32808C89.4361 1.93596 89.2803 1.55967 89.003 1.28242C88.7257 1.00516 88.3495 0.849365 87.9573 0.849365Z" fill="#BCBCBC"/>
</svg>
