<svg width="22" height="19" viewBox="0 0 22 19" fill="none" xmlns="http://www.w3.org/2000/svg">
<path d="M14.2127 0.0771429C14.0345 -0.0257143 13.8149 -0.0257143 13.6367 0.0771429L6.58069 3.86157H2.74442C1.72166 3.86157 0.892578 4.69065 0.892578 5.71341V12.7118C0.892578 13.7346 1.72166 14.5636 2.74442 14.5636H6.58069L13.6454 18.3595C13.8236 18.4624 14.0432 18.4624 14.2214 18.3595C14.3986 18.2573 14.5081 18.0686 14.5095 17.8641V0.572822C14.5063 0.366506 14.3932 0.177665 14.2128 0.0774207L14.2127 0.0771429ZM6.15121 13.4115H2.74406C2.35754 13.4115 2.04437 13.0981 2.04437 12.7119V5.71346C2.04437 5.32694 2.35777 5.01377 2.74406 5.01377H6.15121V13.4115ZM13.3399 16.8906L7.2919 13.6448V4.78003L13.3399 1.53422V16.8906Z" fill="white"/>
<path d="M19.3763 9.21853L20.9374 7.65758C21.1626 7.43238 21.1626 7.06733 20.9374 6.84218C20.7122 6.61698 20.3471 6.61698 20.122 6.84218L18.5609 8.40313L17.021 6.86332C16.7958 6.63812 16.4308 6.63812 16.2056 6.86332C15.9805 7.08852 15.9804 7.45356 16.2056 7.67871L17.7457 9.21853L16.1845 10.7795C15.9593 11.0047 15.9593 11.3697 16.1845 11.5949C16.2972 11.7076 16.4447 11.7638 16.5921 11.7638C16.7396 11.7638 16.8873 11.7076 16.9998 11.5949L18.5609 10.0339L20.1007 11.5738C20.2134 11.6862 20.3609 11.7427 20.5083 11.7427C20.6558 11.7427 20.8034 11.6865 20.9159 11.5738C21.1411 11.3485 21.1411 10.9835 20.9159 10.7584L19.3763 9.21853Z" fill="white"/>
</svg>
