<svg width="89" height="89" viewBox="0 0 89 89" fill="none" xmlns="http://www.w3.org/2000/svg">
<path d="M67.0554 36.0386C60.0596 37.7039 52.7314 42.0344 46.9569 47.8087C41.5157 53.25 37.4073 60.9112 35.8527 68.6845C34.409 76.1243 35.4089 82.4538 38.5179 85.563C40.7386 87.7836 44.4031 88.8944 48.956 88.8944C50.9544 88.8944 53.1758 88.6721 55.3964 88.2283C63.1691 86.6738 70.7203 82.6762 76.2722 77.1242C82.045 71.349 86.3756 64.0209 88.0416 57.0257C89.8184 49.5859 88.7077 43.3678 84.7102 39.3703C80.7126 35.3728 74.4944 34.262 67.0548 36.0389L67.0554 36.0386ZM86.4876 48.6973L75.3835 37.5931C78.6033 37.9262 81.2687 39.0369 83.1562 41.0352C85.0438 42.9228 86.1545 45.5881 86.4876 48.6973ZM67.9437 38.1485C69.3875 37.8155 70.8306 37.5932 72.1635 37.4824L86.5991 51.918C86.4883 53.2502 86.266 54.694 85.9329 56.1378L67.9437 38.1485ZM37.4073 75.5695L48.5115 86.6736C44.8471 86.5628 41.8486 85.6744 40.1834 84.0084C38.4065 82.3431 37.5182 79.3447 37.4073 75.5695ZM54.9519 86.0076C53.7304 86.2299 52.6196 86.4514 51.5098 86.5629L37.5182 72.5713C37.6289 71.4606 37.7405 70.2391 38.0735 69.1292C38.0735 68.9069 38.1843 68.6854 38.2958 68.4631L55.8404 86.0076C55.5065 85.8969 55.1735 86.0076 54.9519 86.0076L54.9519 86.0076ZM74.7172 75.5695C70.276 80.0107 64.3908 83.4538 58.1719 85.2299L38.8505 65.9091C40.6273 59.691 44.0694 53.8058 48.5109 49.3637C53.3969 44.4777 59.5042 40.7025 65.3894 38.815L85.1547 58.5803C83.3787 64.5762 79.6027 70.6837 74.7174 75.5697L74.7172 75.5695Z" fill="#BCBCBC"/>
<path d="M73.0513 51.0295C72.6074 50.5856 71.9405 50.5856 71.4967 51.0295L68.8315 53.6947L66.3886 51.2517C65.9448 50.8079 65.2779 50.8079 64.8341 51.2517C64.3903 51.6956 64.3903 52.3625 64.8341 52.8063L67.277 55.2492L65.2787 57.2475L62.8357 54.8046C62.3919 54.3608 61.725 54.3608 61.2812 54.8046C60.8374 55.2485 60.8374 55.9154 61.2812 56.3592L63.7241 58.8021L61.7258 60.8004L59.2829 58.3575C58.839 57.9137 58.1721 57.9137 57.7283 58.3575C57.2845 58.8013 57.2845 59.4683 57.7283 59.9121L60.1712 62.355L58.1729 64.3533L55.73 61.9104C55.2861 61.4666 54.6192 61.4666 54.1754 61.9104C53.7316 62.3542 53.7316 63.0211 54.1754 63.4649L56.6183 65.9079L54.62 67.9062L52.1771 65.4633C51.7332 65.0195 51.0663 65.0195 50.6225 65.4633C50.1787 65.9071 50.1787 66.574 50.6225 67.0178L53.0654 69.4607L50.4003 72.1259C49.9564 72.5698 49.9564 73.2367 50.4003 73.6805C50.6226 73.9028 50.9556 74.0135 51.1779 74.0135C51.4002 74.0135 51.7333 73.9028 51.9556 73.6805L54.6208 71.0153L57.0637 73.4582C57.286 73.6805 57.6191 73.7913 57.8414 73.7913C58.0637 73.7913 58.3967 73.6805 58.619 73.4582C59.0629 73.0144 59.0629 72.3475 58.619 71.9037L56.1761 69.4607L58.1745 67.4624L60.6174 69.9053C60.8397 70.1276 61.1727 70.2384 61.395 70.2384C61.6173 70.2384 61.9504 70.1276 62.1727 69.9053C62.6165 69.4615 62.6165 68.7946 62.1727 68.3508L59.7298 65.9079L61.7281 63.9095L64.1711 66.3524C64.3934 66.5747 64.7264 66.6855 64.9487 66.6855C65.171 66.6855 65.5041 66.5747 65.7264 66.3524C66.1702 65.9086 66.1702 65.2417 65.7264 64.7979L63.1689 62.4664L65.1672 60.4681L67.6101 62.911C67.8324 63.1333 68.1655 63.244 68.3878 63.244C68.6101 63.244 68.9432 63.1333 69.1655 62.911C69.6093 62.4671 69.6093 61.8002 69.1655 61.3564L66.7225 58.9135L68.7209 56.9152L71.1638 59.3581C71.3861 59.5804 71.7192 59.6911 71.9415 59.6911C72.1638 59.6911 72.4968 59.5804 72.7191 59.3581C73.163 58.9143 73.163 58.2473 72.7191 57.8035L70.2762 55.3606L72.9414 52.6954C73.496 52.2501 73.496 51.4732 73.0514 51.0294L73.0513 51.0295Z" fill="#BCBCBC"/>
<path d="M70.4955 2.83708C62.6112 2.83708 56.2822 9.27748 56.2822 17.0504C56.2822 24.8239 62.6112 31.3751 70.4955 31.3751C78.3799 31.3751 84.7088 24.9347 84.7088 17.1618C84.7088 9.38912 78.3799 2.83708 70.4955 2.83708ZM77.9353 7.61226C75.8253 9.3891 73.1609 10.2775 70.4955 10.2775C67.7195 10.2775 65.1657 9.27826 63.0558 7.61226C65.1657 5.94695 67.7195 4.94707 70.4955 4.94707C73.2716 5.05783 75.9367 6.0578 77.9353 7.61226ZM63.1668 26.5999C65.2768 24.9346 67.8305 24.0462 70.4957 24.0462C73.1609 24.0462 75.7147 24.9346 77.8247 26.5999C75.8263 28.1545 73.2718 29.0428 70.4957 29.0428C67.7197 29.1544 65.2768 28.1544 63.1668 26.5999ZM79.3792 25.1569C76.8255 23.047 73.7163 21.9371 70.4957 21.9371C67.1643 21.9371 64.0553 23.0479 61.6122 25.1569C59.7246 23.047 58.5031 20.1603 58.5031 17.162C58.5031 14.1636 59.6138 11.3876 61.5014 9.27762C64.0551 11.3876 67.2757 12.6091 70.6072 12.6091C73.9386 12.6091 77.1584 11.3876 79.713 9.27762C81.6006 11.3876 82.7113 14.1636 82.7113 17.162C82.4882 20.1595 81.3775 22.9355 79.379 25.1569H79.3792Z" fill="#BCBCBC"/>
<path d="M7.09379 59.5794C4.4286 62.2446 2.87402 65.7975 2.87402 69.6843C2.87402 73.4595 4.3178 77.1241 7.09379 79.7893C9.86983 82.5653 13.5342 84.0091 17.1988 84.0091C20.8633 84.0091 24.5277 82.5653 27.3037 79.7893C29.9689 77.1241 31.5235 73.5712 31.5235 69.6843C31.5235 65.9091 30.0797 62.2446 27.3037 59.5794C24.6385 56.9142 21.0856 55.3596 17.1988 55.3596C13.3127 55.4711 9.75898 56.9149 7.09379 59.5794ZM5.20619 71.2389C7.87138 71.572 10.3145 72.6827 12.202 74.5703C14.0896 76.4579 15.2003 78.901 15.5334 81.5661C12.9797 81.2331 10.5368 80.1224 8.64907 78.1241C6.76069 76.3472 5.53911 73.9043 5.20619 71.2389ZM25.6378 78.2347C23.4172 80.4553 20.6411 81.5661 17.7535 81.6768C17.4204 78.457 16.0882 75.347 13.756 73.0156C11.4237 70.6833 8.42619 69.2404 5.09475 69.0181C5.20551 66.0198 6.42701 63.2437 8.53684 61.1337C10.6468 59.0238 13.3112 57.8023 16.1989 57.6917C16.4212 61.0231 17.8642 64.1321 20.1964 66.4635C22.5286 68.7958 25.6376 70.2387 28.9683 70.461C28.9683 73.4593 27.7468 76.1245 25.6376 78.2345L25.6378 78.2347ZM29.0799 68.2406C26.4147 68.0183 23.8609 66.7968 21.8626 64.9091C19.975 63.0215 18.7534 60.4679 18.5312 57.6919C21.1964 58.0249 23.7501 59.1356 25.6378 61.1339C27.6362 63.1331 28.747 65.576 29.0799 68.2406Z" fill="#BCBCBC"/>
<path d="M44.8473 7.83376C34.6314 -2.38205 17.9752 -2.38205 7.75943 7.83376C-2.56781 18.0502 -2.56781 34.7058 7.6479 45.0326C12.7562 50.1409 19.5297 52.6947 26.1918 52.6947C32.9653 52.6947 39.6282 50.1409 44.7357 45.0326C55.063 34.7062 55.063 18.0496 44.8473 7.83376ZM2.31841 28.1543C8.53653 27.599 14.4217 25.0452 19.0855 20.8254L24.7484 26.4883L8.53672 42.5899C4.76151 38.4816 2.65153 33.3735 2.3186 28.1543H2.31841ZM50.1772 24.7122C43.9591 25.2676 38.0739 27.8214 33.4102 32.0412L27.7473 26.3783L43.9589 10.2767C47.7341 14.3858 49.8441 19.4931 50.177 24.7122H50.1772ZM26.3033 24.8238L20.6398 19.1603C24.8596 14.6074 27.5242 8.72219 27.9688 2.39323C33.1877 2.72629 38.2952 4.83614 42.4043 8.61135L26.3033 24.8238ZM19.0853 17.6057L10.0911 8.61155C14.5324 4.61406 20.0844 2.50407 25.7481 2.39343C25.1928 8.05634 22.8613 13.3861 19.0853 17.6059V17.6057ZM26.3033 28.0438L31.9663 33.7067C27.7465 38.2596 25.0819 44.1448 24.6373 50.4738C19.4184 50.1407 14.3109 48.0308 10.2017 44.2556L26.3033 28.0438ZM33.5206 35.2611L42.5148 44.2552C38.0735 48.2527 32.5215 50.3627 26.8578 50.4734C27.3024 44.6998 29.6338 39.37 33.5206 35.2609V35.2611ZM35.0752 33.5958C39.2949 29.7089 44.6247 27.3777 50.2876 26.9329C50.1769 32.5958 48.067 38.1479 44.0695 42.5899L35.0752 33.5958ZM8.53629 10.2771L17.5304 19.2712C13.3107 23.1581 7.98088 25.4894 2.31797 25.9341C2.42873 20.2712 4.5386 14.7191 8.53609 10.2771H8.53629Z" fill="#BCBCBC"/>
</svg>
