<svg width="89" height="90" viewBox="0 0 89 90" fill="none" xmlns="http://www.w3.org/2000/svg">
<path d="M30.251 58.1808H59.1391V29.2927H30.251V58.1808ZM56.2503 32.1815V55.292L33.1398 55.2927V32.1821L56.2503 32.1815Z" fill="#BCBCBC"/>
<path d="M88.7977 34.4925C88.5089 33.3372 87.8345 32.47 86.7752 31.7963C85.812 31.2186 84.6568 31.0258 83.5014 31.3147C82.0573 31.6996 80.9979 32.7588 80.5165 34.1068L64.6283 34.1075V29.2928H72.8136C73.5841 31.4113 75.7986 32.5666 78.0132 32.085C79.1685 31.7962 80.0357 31.1218 80.7094 30.0625C81.287 29.0993 81.4798 27.944 81.191 26.7887C80.9022 25.6334 80.2278 24.7662 79.1685 24.0924C78.2053 23.5148 77.05 23.322 75.8947 23.6108C74.4505 23.9957 73.3912 25.055 72.9097 26.403H64.7244V23.514H54.1317V10.5147H67.1318C67.8061 12.6332 70.0207 13.8853 72.2353 13.3069C74.5465 12.7292 75.9908 10.4179 75.413 8.10736C75.1242 6.95204 74.4498 5.98889 73.4873 5.41113C72.5241 4.83347 71.3689 4.64069 70.2135 4.92952C68.7694 5.31441 67.6134 6.37366 67.1318 7.7217L51.4357 7.72237V23.5146H45.6577V17.0629C46.6209 16.678 47.3907 16.0997 47.9689 15.1372C48.5466 14.174 48.7394 13.0187 48.4505 11.8634C47.8729 9.55213 45.4656 8.10789 43.1542 8.78161C41.9989 9.07044 41.1317 9.74482 40.458 10.8041C39.8803 11.7673 39.6875 12.9226 39.9764 14.0779C40.3613 15.5221 41.4205 16.5814 42.7686 17.0629V23.5146H37.9539L37.9545 9.35937C40.073 8.58893 41.2284 6.37443 40.7467 4.15985C40.4579 3.00453 39.7835 2.13733 38.7242 1.46362C37.761 0.885959 36.6057 0.693182 35.4504 0.982012C34.2951 1.27084 33.4279 1.94523 32.7541 3.00453C32.1765 3.96774 31.9837 5.12299 32.2725 6.27834C32.6574 7.72248 33.7167 8.78181 35.0647 9.26328V23.4185H30.25V16.9668C32.3685 16.1964 33.5238 13.9819 33.0422 11.7673C32.7534 10.6119 32.079 9.74475 31.0197 9.07104C30.0565 8.49338 28.9012 8.3006 27.7459 8.58943C26.5905 8.87826 25.7234 9.55264 25.0496 10.6119C24.472 11.5752 24.2792 12.7304 24.568 13.8858C24.9529 15.3299 26.0122 16.3892 27.3602 16.8707V23.3224H24.4712L24.4726 34.5881H11.9549V21.9738C14.0733 21.2994 15.3255 19.0848 14.7471 16.8702C14.4582 15.7149 13.7838 14.7517 12.8214 14.174C11.8581 13.5963 10.7029 13.4035 9.54754 13.6924C8.39222 13.9812 7.42907 14.6556 6.85131 15.6181C6.27365 16.5813 6.08087 17.7365 6.3697 18.8919C6.75459 20.336 7.81384 21.492 9.16188 21.9736V37.4769H24.5692V43.2549H16.5769C16.192 42.2917 15.6136 41.522 14.6511 40.9437C13.6879 40.366 12.5327 40.1732 11.3773 40.4621C10.222 40.7509 9.35481 41.4253 8.6811 42.4846C8.10344 43.4478 7.91066 44.6031 8.19949 45.7584C8.48832 46.9137 9.16271 47.7809 10.222 48.4546C11.1852 49.0323 12.3405 49.2251 13.4958 48.9362C14.94 48.5514 15.9993 47.4921 16.4808 46.1441H24.4726V50.9588H8.87321C8.10277 48.8403 5.88827 47.6849 3.67368 48.1666C1.36246 48.7442 -0.081777 51.1515 0.591936 53.4629C1.07354 55.3886 2.80652 56.7367 4.73223 56.7367C6.56198 56.7367 8.19881 55.5814 8.77657 53.8477L24.4726 53.8471V58.6618H16.5762C16.1913 57.6985 15.613 56.9288 14.6505 56.3505C13.6873 55.7729 12.532 55.5801 11.3767 55.8689C9.06545 56.4466 7.62122 58.8539 8.29493 61.1653C8.58376 62.3206 9.25814 63.1878 10.3174 63.8615C11.2807 64.4391 12.4359 64.6319 13.5913 64.3431C15.0354 63.9582 16.0947 62.899 16.5762 61.5509H24.4726V63.9583H35.5461L35.5468 77.9207H22.8356C22.1612 75.8022 19.9466 74.5501 17.7321 75.1285C15.4208 75.7062 13.9766 78.0175 14.5544 80.328C15.132 82.6393 17.4433 84.0835 19.7539 83.5057C21.198 83.1209 22.354 82.0616 22.8356 80.7136H38.4351V63.8621H44.1162V73.2988C41.9978 74.0692 40.8424 76.2837 41.324 78.4983C41.6129 79.6536 42.2873 80.5208 43.3466 81.1945C44.3098 81.7722 45.465 81.965 46.6204 81.6761C48.9316 81.0985 50.3758 78.6912 49.7021 76.3798C49.3172 74.9357 48.258 73.8763 46.9099 73.3949V64.0544H51.6285V81.0985C49.5101 81.869 48.3547 84.0835 48.8363 86.298C49.1252 87.4534 49.7995 88.3206 50.8588 88.9943C51.5332 89.3792 52.303 89.5719 53.0734 89.5719C53.4583 89.5719 53.8439 89.5719 54.1327 89.4759C55.288 89.1871 56.1552 88.5127 56.8289 87.4534C57.4066 86.4902 57.5994 85.3349 57.3105 84.1796C56.9257 82.7354 55.8664 81.6761 54.5184 81.1946V64.1504H59.2369V73.4909C58.2737 73.8758 57.504 74.4542 56.9257 75.4166C56.348 76.3799 56.1553 77.5351 56.4441 78.6905C56.7329 79.8458 57.4073 80.713 58.4666 81.3867C59.4298 81.9644 60.5851 82.1571 61.7404 81.8683C64.0517 81.2906 65.4959 78.8834 64.8222 76.572C64.4373 75.1278 63.3781 74.0685 62.03 73.587V64.2465H64.4373V53.6539L79.361 53.6552V66.2695C77.2425 66.9439 75.9904 69.1585 76.5688 71.3731C77.1465 73.6843 79.4578 75.1286 81.7683 74.5508C84.0796 73.9731 85.5238 71.6618 84.9461 69.3513C84.5612 67.9071 83.5019 66.7512 82.1539 66.2695L82.1532 50.4773H64.6277V44.6994H72.813C73.1979 45.6626 73.7763 46.4323 74.7387 47.0106C75.702 47.5882 76.8572 47.781 78.0126 47.4922C79.1679 47.2034 80.0351 46.529 80.7088 45.4697C81.3832 44.4104 81.4792 43.3512 81.1904 42.1959C80.9016 41.0405 80.2272 40.1733 79.1679 39.4996C78.1086 38.8252 77.0494 38.7292 75.8941 39.018C74.4499 39.4029 73.3906 40.4622 72.9091 41.8102H64.7238V36.9955H80.6119C81.3824 39.114 83.5969 40.2693 85.8115 39.7877C86.9668 39.4989 87.834 38.8245 88.5077 37.7652C88.99 36.7066 89.086 35.5513 88.7972 34.492L88.7977 34.4925ZM86.1015 35.5518C86.1015 36.3222 85.4271 36.9959 84.6574 36.9959C83.8869 36.9959 83.2126 36.3222 83.2126 35.5518C83.2126 34.7813 83.8869 34.1076 84.6567 34.1076C85.4271 34.1076 86.1015 34.7813 86.1015 35.5518ZM82.2494 70.2176C82.2494 70.988 81.575 71.6617 80.8053 71.6617C80.0348 71.6617 79.3611 70.9873 79.3611 70.2176C79.3611 69.4471 80.0355 68.7734 80.8053 68.7734C81.5757 68.7728 82.2494 69.4471 82.2494 70.2176ZM61.0648 75.9948C61.8352 75.9948 62.5089 76.6692 62.5089 77.439C62.5096 78.2094 61.8352 78.8838 61.0648 78.8838C60.2943 78.8838 59.6206 78.2094 59.6206 77.4396C59.6206 76.6692 60.2943 75.9948 61.0648 75.9948ZM53.3611 83.6985C54.1315 83.6985 54.8052 84.3729 54.8052 85.1426C54.8059 85.9131 54.1315 86.5875 53.3611 86.5875C52.5906 86.5875 51.9169 85.9131 51.9169 85.1433C51.9169 84.3729 52.5913 83.6985 53.3611 83.6985ZM9.06591 17.7372C9.06591 16.9668 9.7403 16.2931 10.51 16.2931C11.2805 16.2931 11.9542 16.9675 11.9542 17.7372C11.9548 18.5077 11.2805 19.182 10.51 19.182C9.73962 19.182 9.06591 18.5077 9.06591 17.7372ZM27.3617 61.0695V26.4037H62.0275V61.0695H27.3617ZM28.8065 14.367C28.0361 14.367 27.3624 13.6926 27.3624 12.9228C27.3624 12.1524 28.0368 11.4787 28.8065 11.4787C29.577 11.4787 30.2507 12.1531 30.2507 12.9228C30.2507 13.6926 29.5763 14.367 28.8065 14.367ZM36.5095 6.66328C35.7398 6.66328 35.0654 5.98889 35.0654 5.21914C35.0654 4.44871 35.7398 3.77434 36.5095 3.77434C37.28 3.77434 37.9543 4.44873 37.9543 5.21914C37.9543 5.98891 37.28 6.66328 36.5095 6.66328ZM42.769 12.922C42.769 12.1516 43.4434 11.4779 44.2131 11.4779C44.9835 11.4779 45.6572 12.1523 45.6572 12.922C45.6579 13.6925 44.9835 14.3668 44.2131 14.3668C43.4427 14.3668 42.769 13.6925 42.769 12.922ZM45.658 75.9945C46.4284 75.9945 47.1021 76.6689 47.1021 77.4386C47.1021 78.2091 46.4277 78.8834 45.658 78.8834C44.8875 78.8834 44.2138 78.209 44.2138 77.4393C44.2132 76.6689 44.8875 75.9945 45.658 75.9945ZM75.5091 27.8476C75.5091 27.0771 76.1834 26.4034 76.9532 26.4034C77.7236 26.4034 78.398 27.0772 78.398 27.8476C78.398 28.618 77.7236 29.2917 76.9539 29.2917C76.1834 29.2924 75.5091 28.618 75.5091 27.8476ZM69.7318 9.07028C69.7318 8.29984 70.4062 7.62615 71.1759 7.62615C71.9463 7.62615 72.62 8.30053 72.62 9.07028C72.62 9.84072 71.9463 10.5144 71.1759 10.5144C70.4055 10.5144 69.7318 9.8407 69.7318 9.07028ZM13.8813 44.699C13.8813 45.4694 13.207 46.1431 12.4372 46.1431C11.6668 46.1438 10.9924 45.4694 10.9924 44.699C10.9924 43.9286 11.6668 43.2549 12.4365 43.2549C13.207 43.2549 13.8813 43.9286 13.8813 44.699ZM6.17766 52.4027C6.17766 53.1731 5.50328 53.8468 4.73353 53.8468C3.96309 53.8468 3.28873 53.1731 3.28873 52.4027C3.28873 51.6323 3.96311 50.9585 4.73353 50.9585C5.5033 50.9585 6.17766 51.6323 6.17766 52.4027ZM13.8813 60.1064C13.8813 60.8768 13.207 61.5505 12.4372 61.5505C11.6668 61.5505 10.9924 60.8768 10.9924 60.1064C10.9924 59.3359 11.6668 58.6622 12.4365 58.6622C13.207 58.6616 13.8813 59.3359 13.8813 60.1064ZM20.1401 79.3651C20.1401 80.1356 19.4657 80.8093 18.696 80.8093C17.9255 80.8093 17.2518 80.1349 17.2518 79.3651C17.2512 78.5947 17.9255 77.9203 18.696 77.9203C19.4664 77.9203 20.1401 78.5947 20.1401 79.3651ZM75.5091 43.2549C75.5091 42.4845 76.1834 41.8108 76.9532 41.8108C77.7236 41.8101 78.398 42.4845 78.398 43.2549C78.398 44.0253 77.7236 44.6991 76.9539 44.6991C76.1834 44.6991 75.5091 44.0253 75.5091 43.2549Z" fill="#BCBCBC"/>
</svg>
