<svg width="34" height="41" viewBox="0 0 34 41" fill="none" xmlns="http://www.w3.org/2000/svg">
<path fill-rule="evenodd" clip-rule="evenodd" d="M18.2369 27.5631C17.6154 28.1575 16.4168 28.1705 15.7777 27.5761L15.2962 27.1295L7.7334 40.2281L6.9438 32.6665L0 35.7629L7.70292 22.421L5.87911 21.8569C5.05406 21.616 4.4433 20.5853 4.63826 19.7339L5.22367 17.1643L3.44431 15.2449C2.84996 14.624 2.837 13.4254 3.43136 12.786L5.22335 10.8531L4.64164 8.30196C4.43838 7.46641 5.02595 6.42177 5.85999 6.16539L8.37841 5.38782L9.15042 2.88732C9.39224 2.06227 10.423 1.4512 11.274 1.64647L13.843 2.23126L15.7624 0.45253C16.3846 -0.141824 17.5825 -0.155397 18.2216 0.439576L20.1546 2.23102L22.7057 1.64961C23.5412 1.44604 24.5859 2.03362 24.8423 2.86796L25.6198 5.38575L28.121 6.15807C28.9457 6.39989 29.5568 7.43035 29.3618 8.2817L28.7764 10.8507L30.5551 12.7701C31.1495 13.3922 31.1631 14.5902 30.5687 15.2298L28.7767 17.1622L29.3581 19.7139C29.5614 20.5488 28.9741 21.5929 28.1398 21.8498L26.2962 22.4192L34 35.7626L27.0562 32.6662L26.2666 40.2279L18.7044 27.1308L18.238 27.5632L18.2369 27.5631ZM17.8838 23.638C17.4387 24.0627 16.5827 24.0726 16.1263 23.6472L14.7454 22.3678L12.9216 22.7824C12.3251 22.928 11.5783 22.5088 11.3955 21.9117L10.8394 20.1129L9.05258 19.5608C8.46254 19.3881 8.02642 18.6515 8.16586 18.043L8.58472 16.2078L7.31307 14.8359C6.88836 14.392 6.87849 13.5355 7.30382 13.079L8.58384 11.6982L8.16868 9.87497C8.0231 9.27815 8.44289 8.53084 9.03937 8.34789L10.8382 7.79208L11.3906 6.0053C11.563 5.41526 12.2992 4.97914 12.9078 5.11795L14.7436 5.53681L16.1149 4.26571C16.5587 3.84069 17.4153 3.83113 17.8717 4.25646L19.2526 5.53585L21.0764 5.12131C21.6732 4.97572 22.4203 5.39551 22.6029 5.992L23.159 7.7911L24.9458 8.34258C25.5355 8.51531 25.9716 9.25188 25.8325 9.85979L25.4136 11.6959L26.6853 13.0672C27.1094 13.5117 27.1192 14.3676 26.6945 14.8247L25.4145 16.2049L25.8297 18.0287C25.9752 18.6253 25.5548 19.372 24.959 19.5552L23.1592 20.111L22.6077 21.8971C22.4353 22.4872 21.6984 22.9239 21.0905 22.7851L19.2547 22.3663L17.8834 23.6374L17.8838 23.638ZM17.6549 21.1412C17.3255 21.4561 16.6904 21.4629 16.3514 21.1474L15.3268 20.1974L13.973 20.5061C13.5307 20.6138 12.9761 20.3026 12.8401 19.8597L12.4274 18.5241L11.1014 18.1151C10.6638 17.9865 10.3399 17.4403 10.4435 16.989L10.7538 15.626L9.81065 14.6081C9.49574 14.279 9.48834 13.6437 9.80387 13.304L10.7538 12.2794L10.4457 10.9263C10.3381 10.4833 10.649 9.92938 11.0919 9.79334L12.4274 9.38065L12.8364 8.05467C12.965 7.617 13.5116 7.29315 13.9628 7.39678L15.3249 7.70738L16.3428 6.76325C16.6722 6.44834 17.3079 6.44156 17.6474 6.75709L18.6721 7.70705L20.0252 7.39893C20.4681 7.29036 21.0221 7.60218 21.1581 8.0451L21.5711 9.38063L22.8965 9.79023C23.3341 9.91823 23.6583 10.4645 23.555 10.9157L23.2444 12.2787L24.1882 13.296C24.5031 13.626 24.5099 14.2611 24.1944 14.6006L23.2444 15.6253L23.5525 16.9784C23.6608 17.4213 23.3493 17.9753 22.9063 18.1113L21.5708 18.524L21.1612 19.85C21.0338 20.2877 20.487 20.6115 20.0357 20.5079L18.673 20.1976L17.6546 21.1414L17.6549 21.1412ZM24.8646 25.0765L24.8486 25.1284C24.6074 25.9547 23.5763 26.565 22.7256 26.3699L21.0079 25.9791L24.5312 32.08L24.8658 28.8759L27.8188 30.193L24.8649 25.0763L24.8646 25.0765ZM11.293 26.3661C10.4575 26.5703 9.41284 25.9827 9.15646 25.1481L9.13456 25.075L6.17973 30.1932L9.13212 28.8761L9.46739 32.0801L12.9894 25.9802L11.293 26.3661ZM17.9849 24.806C17.4892 25.2792 16.5353 25.2897 16.026 24.8165L14.4862 23.3891L12.4543 23.8524C11.789 24.0143 10.9565 23.5464 10.7523 22.8814L10.133 20.876L8.14106 20.2606C7.48347 20.0685 6.99677 19.2468 7.15248 18.5695L7.61883 16.5227L6.20158 14.9935C5.72844 14.4984 5.71795 13.5442 6.19171 13.0349L7.61851 11.4958L7.15586 9.46256C6.99331 8.79727 7.46152 7.96509 8.12619 7.7609L10.1316 7.14094L10.7469 5.14965C10.9391 4.49207 11.7602 4.006 12.4384 4.16108L14.4852 4.62743L16.0138 3.21018C16.5088 2.73704 17.4634 2.72594 17.9727 3.19908L19.5118 4.62683L21.5444 4.16356C22.2097 4.00101 23.0422 4.46922 23.246 5.13389L23.8654 7.13931L25.8573 7.75496C26.5149 7.94711 27.0016 8.7688 26.8459 9.44643L26.3802 11.4926L27.7971 13.0212C28.2702 13.5168 28.2807 14.4708 27.8076 14.9806L26.3808 16.5197L26.8434 18.5517C27.006 19.2176 26.5375 20.0495 25.8731 20.2537L23.867 20.873L23.2523 22.8655C23.0595 23.5224 22.2385 24.0088 21.5608 23.8537L19.514 23.3874L17.9855 24.8046L17.9849 24.806Z" fill="url(#paint0_linear_425_1135)"/>
<defs>
<linearGradient id="paint0_linear_425_1135" x1="0" y1="0" x2="35.6363" y2="1.5059" gradientUnits="userSpaceOnUse">
<stop stop-color="#E1A200"/>
<stop offset="1" stop-color="#FF5C00"/>
</linearGradient>
</defs>
</svg>
