<svg width="61" height="64" viewBox="0 0 61 64" fill="none" xmlns="http://www.w3.org/2000/svg">
<path d="M30.1651 12.6292C30.1651 19.6045 24.8923 25.2597 18.3885 25.2597C11.8841 25.2597 6.61133 19.605 6.61133 12.6292C6.61133 5.65445 11.8841 0 18.3885 0C24.8925 0 30.1651 5.6547 30.1651 12.6292Z" fill="white"/>
<path d="M26.6611 28.7242L20.6006 36.349C19.7078 37.4723 17.9496 37.4723 17.0567 36.349L10.9967 28.7242C4.84338 29.2649 0 34.4853 0 40.8237V55.4696C0 55.5658 0.0771664 55.6434 0.17289 55.6434H6.02088V46.613H10.5473V55.6434H29.9481C27.9081 48.4704 30.6914 40.5662 36.7798 36.2614C35.0924 32.0509 31.1858 29.122 26.6607 28.725L26.6611 28.7242Z" fill="white"/>
<path d="M47.0129 37.5376C39.7225 37.5376 33.791 43.4731 33.791 50.7682C33.791 58.0642 39.7225 64 47.0129 64C54.3036 64 60.2347 58.0645 60.2347 50.7694C60.2347 43.4733 54.3036 37.5376 47.0129 37.5376ZM56.0736 53.0324H49.2766V59.8353H44.7502V53.0324H37.9532V48.506H44.7502L44.7497 41.7032H49.2761V48.506H56.0731L56.0736 53.0324Z" fill="white"/>
</svg>
