<svg width="36" height="36" viewBox="0 0 36 36" fill="none" xmlns="http://www.w3.org/2000/svg">
<path d="M17.9078 6C14.6771 6 12 8.63077 12 11.9078C12 15.1845 14.6771 17.7692 17.9078 17.7692C21.1385 17.7692 23.8156 15.1385 23.8156 11.8614C23.8156 8.5844 21.1385 6 17.9078 6ZM17.9078 15.9226C15.6924 15.9226 13.8464 14.1226 13.8464 11.8611C13.8464 9.59968 15.6924 7.84573 17.9078 7.84573C20.1232 7.84573 21.9692 9.64573 21.9692 11.9072C21.9692 14.1689 20.1232 15.9226 17.9078 15.9226Z" fill="url(#paint0_linear_475_911)"/>
<path d="M18 0C8.07666 0 0 8.07666 0 18C0 27.9233 8.07666 36 18 36C27.9233 36 36 27.9233 36 18C36 8.07666 27.9233 0 18 0ZM18 34.1541C14.8154 34.1541 11.8153 33.2309 9.32281 31.6158C9.46128 26.8157 13.4306 22.6616 18 22.6616C22.5694 22.6616 26.5387 26.8155 26.6772 31.6158C24.1849 33.2309 21.1848 34.1541 18 34.1541ZM28.4305 30.3232C27.6922 25.0156 23.2153 20.8153 18 20.8153C12.7847 20.8153 8.30769 25.0152 7.56949 30.3232C4.06159 27.3695 1.84621 22.9387 1.84621 18.0002C1.84621 9.09273 9.09226 1.84605 18.0003 1.84605C26.9077 1.84605 34.1544 9.0921 34.1544 18.0002C34.1544 22.9387 31.939 27.3697 28.4311 30.3232H28.4305Z" fill="url(#paint1_linear_475_911)"/>
<defs>
<linearGradient id="paint0_linear_475_911" x1="12" y1="6" x2="24.3752" y2="6.62117" gradientUnits="userSpaceOnUse">
<stop stop-color="#E1A200"/>
<stop offset="1" stop-color="#FF5C00"/>
</linearGradient>
<linearGradient id="paint1_linear_475_911" x1="0" y1="0" x2="37.7057" y2="1.88521" gradientUnits="userSpaceOnUse">
<stop stop-color="#E1A200"/>
<stop offset="1" stop-color="#FF5C00"/>
</linearGradient>
</defs>
</svg>
