<svg width="39" height="31" viewBox="0 0 39 31" fill="none" xmlns="http://www.w3.org/2000/svg">
<path fill-rule="evenodd" clip-rule="evenodd" d="M2.39233 0.353678H32.9226C34.2896 0.353678 35.3149 1.37898 35.3149 2.74601V3.20168H4.10131C3.53165 3.20168 3.07601 3.65735 3.07601 4.22698C3.07601 4.7966 3.53168 5.25228 4.10131 5.25228H35.3149V8.6699C35.3149 9.92297 34.2896 11.0622 32.9226 11.0622H28.9355C27.5685 11.0622 26.5432 12.0875 26.5432 13.3406V17.8973C26.5432 19.1504 27.5685 20.1757 28.9355 20.1757H32.9226C34.2896 20.1757 35.3149 21.3149 35.3149 22.568V28.4917C35.3149 29.8587 34.2896 30.884 32.9226 30.884H2.39233C1.0253 30.884 0 29.8587 0 28.4917V2.74593C0 1.3789 1.0253 0.353601 2.39233 0.353601V0.353678Z" fill="url(#paint0_linear_848_421)"/>
<path fill-rule="evenodd" clip-rule="evenodd" d="M29.285 11.5177H36.3483C37.4876 11.5177 38.399 12.429 38.399 13.5684V17.6694C38.399 18.8087 37.4876 19.72 36.3483 19.72H29.285C28.1458 19.72 27.2344 18.8087 27.2344 17.6694V13.5684C27.2344 12.4291 28.1457 11.5177 29.285 11.5177ZM30.766 14.1377C31.5634 14.1377 32.1331 14.8214 32.1331 15.6187C32.1331 16.4161 31.5634 16.9858 30.766 16.9858C29.9687 16.9858 29.285 16.4161 29.285 15.6187C29.285 14.8214 29.9687 14.1377 30.766 14.1377Z" fill="url(#paint1_linear_848_421)"/>
<defs>
<linearGradient id="paint0_linear_848_421" x1="0" y1="0.353601" x2="36.957" y2="2.49095" gradientUnits="userSpaceOnUse">
<stop stop-color="#E1A200"/>
<stop offset="1" stop-color="#FF5C00"/>
</linearGradient>
<linearGradient id="paint1_linear_848_421" x1="27.2344" y1="11.5177" x2="38.9031" y2="12.3118" gradientUnits="userSpaceOnUse">
<stop stop-color="#E1A200"/>
<stop offset="1" stop-color="#FF5C00"/>
</linearGradient>
</defs>
</svg>
