<svg width="187" height="187" viewBox="0 0 187 187" fill="none" xmlns="http://www.w3.org/2000/svg">
<path d="M62.9097 167.503L157.041 142.28L160.328 154.545L66.196 179.768L62.9097 167.503Z" fill="url(#paint0_linear_464_42)"/>
<path d="M147.59 6.46153C146.424 5.78816 145.033 5.50401 143.807 5.83245L117.744 12.8149L116.512 8.21565L30.6618 31.2192L31.8942 35.8184L5.83157 42.8018C4.60476 43.1305 3.54323 44.0719 2.86986 45.2382C2.19676 46.4055 2.21824 47.7136 2.62921 49.2473C10.8395 74.9812 35.0694 91.821 62.8393 94.8953C71.2338 104.148 80.0337 110.006 88.2961 111.406L94.8688 135.936L74.0305 151.379L75.6735 157.511L140.675 140.094L139.032 133.962L113.265 131.007L106.61 106.171C113.066 100.827 117.757 91.3538 120.401 79.1438C142.996 62.9017 155.559 36.2033 149.802 9.8113C149.391 8.27755 148.756 7.13402 147.59 6.46065L147.59 6.46153ZM13.5896 50.9109L35.0529 45.1598C40.3055 59.8555 46.7623 72.9143 54.1763 83.4147C35.9315 79.1014 20.6444 67.4234 13.589 50.911L13.5896 50.9109ZM99.428 49.929L94.6322 57.7863C94.4075 58.1755 94.2658 58.8703 94.43 59.4832L98.3452 67.964C99.0628 69.4145 97.7755 70.7453 96.3856 70.4608L87.2638 68.3046C86.5687 68.1618 85.9548 68.3263 85.7311 68.7153L78.9096 75.1435C77.847 76.0851 76.0678 75.576 75.9641 73.961L75.1143 64.6588C74.9501 64.0459 74.7856 63.432 74.0908 63.2903L66.0088 58.8837C64.8425 58.2103 64.9624 56.2064 66.107 55.5707L74.6698 51.9614C75.2826 51.7972 75.5073 51.408 75.6501 50.7129L77.5004 41.6731C77.7846 40.2821 79.6243 39.7891 80.5669 40.8515L86.6893 47.7549C87.1604 48.2856 87.5486 48.5106 88.1625 48.3461L97.3827 47.1904C99.3016 47.0053 100.101 48.7627 99.4281 49.929L99.428 49.929ZM122.245 65.1757C123.11 52.4565 122.478 37.8375 119.597 22.1768L141.06 16.4257C143.289 34.5602 135.889 52.3173 122.245 65.1758L122.245 65.1757Z" fill="url(#paint1_linear_464_42)"/>
<defs>
<linearGradient id="paint0_linear_464_42" x1="62.9097" y1="167.503" x2="157.92" y2="177.478" gradientUnits="userSpaceOnUse">
<stop stop-color="#E1A200"/>
<stop offset="1" stop-color="#FF5C00"/>
</linearGradient>
<linearGradient id="paint1_linear_464_42" x1="0" y1="39.435" x2="156.384" y2="6.94289" gradientUnits="userSpaceOnUse">
<stop stop-color="#E1A200"/>
<stop offset="1" stop-color="#FF5C00"/>
</linearGradient>
</defs>
</svg>
