<svg width="102" height="121" viewBox="0 0 102 121" fill="none" xmlns="http://www.w3.org/2000/svg">
<g clip-path="url(#clip0_2069_6141)">
<path fill-rule="evenodd" clip-rule="evenodd" d="M35.8148 32.9594C35.8148 35.9972 33.8342 38.4533 31.3944 38.4533C28.9484 38.4533 26.9741 35.9972 26.9741 32.9594C26.9741 29.9255 28.9484 27.458 31.3944 27.458C33.8358 27.458 35.8148 29.9236 35.8148 32.9594Z" fill="#D3AB0E"/>
<path fill-rule="evenodd" clip-rule="evenodd" d="M25.2144 55.0515C25.2144 55.0515 35.5779 47.3876 30.288 31.8921C30.288 31.8921 49.0409 64.0951 54.3355 50.3933C59.6285 36.6896 52.7905 67.1159 52.3502 67.9346C51.9099 68.7609 43.085 76.9838 43.085 76.9838H29.1881L25.2144 55.0515Z" fill="#D3AB0E"/>
<path d="M71.5828 38.4522C74.0267 38.4522 76.0078 35.9924 76.0078 32.9583C76.0078 29.9241 74.0267 27.4644 71.5828 27.4644C69.1389 27.4644 67.1577 29.9241 67.1577 32.9583C67.1577 35.9924 69.1389 38.4522 71.5828 38.4522Z" fill="#D3AB0E"/>
<path fill-rule="evenodd" clip-rule="evenodd" d="M77.7566 55.0515C77.7566 55.0515 67.3868 47.3876 72.683 31.8921C72.683 31.8921 53.9285 64.0951 48.6323 50.3933C43.3409 36.6896 50.1805 67.1159 50.6255 67.9346C51.0579 68.7609 59.8844 76.9838 59.8844 76.9838H73.7876L77.7566 55.0515Z" fill="#D3AB0E"/>
<path fill-rule="evenodd" clip-rule="evenodd" d="M95.7849 27.4901C92.3983 27.4901 89.6555 31.0793 89.6555 35.5136C89.6555 36.6955 89.8606 37.8173 90.2126 38.8261C80.728 45.3269 71.9142 55.3661 71.9142 55.3661C63.8989 66.401 57.4081 48.4136 53.8683 34.6252C58.1798 33.1741 61.3755 28.0604 61.3755 21.9586C61.3755 14.7256 56.8999 8.86279 51.3733 8.86279C45.8483 8.86279 41.3712 14.7256 41.3712 21.9586C41.3712 28.1564 44.6616 33.3265 49.0819 34.6967C45.5343 48.487 39.0545 66.3972 31.0597 55.3755C31.0597 55.3755 22.2459 45.3363 12.7519 38.8355C13.1208 37.7865 13.3112 36.6605 13.3121 35.523C13.3121 31.0887 10.5662 27.4995 7.18266 27.4995C3.79758 27.4995 1.05322 31.0887 1.05322 35.523C1.05322 39.9572 3.79916 43.5502 7.18266 43.5502C8.31891 43.5502 9.36521 43.1192 10.2805 42.4134C13.8218 51.2198 18.8213 67.0503 16.2111 81.569C16.2111 81.569 20.0538 99.929 51.4838 99.3098C82.9121 99.929 86.7501 81.569 86.7501 81.569C84.1431 67.056 89.141 51.2292 92.6855 42.4134C93.6008 43.1192 94.6471 43.5502 95.7833 43.5502C99.1684 43.5502 101.914 39.9572 101.914 35.523C101.914 31.0887 99.17 27.4976 95.7849 27.4976" fill="#FFCC08"/>
<path fill-rule="evenodd" clip-rule="evenodd" d="M51.4856 103.507C26.3729 104.002 18.8783 92.3855 16.882 87.6934C16.8008 89.8112 16.577 91.9177 16.2129 93.9928C16.2129 93.9928 20.0556 112.349 51.4856 111.737C82.9139 112.349 86.7519 93.9928 86.7519 93.9928C86.3887 91.9177 86.166 89.8111 86.086 87.6934C84.0896 92.3855 76.6014 104.002 51.4856 103.507Z" fill="#D3AB0E"/>
<path fill-rule="evenodd" clip-rule="evenodd" d="M50.0653 99.1016C54.5756 72.065 56.3936 44.4638 49.6376 17.606C48.8675 14.5494 48.6655 11.6999 48.888 9.07812C44.5639 10.5255 41.3682 15.6392 41.3682 21.7523C41.3682 27.9501 44.6586 33.1391 49.0789 34.4867C45.5313 48.2807 39.0515 66.1947 31.0568 55.1693C31.0568 55.1693 22.2429 45.1301 12.7489 38.6274C13.1181 37.5778 13.3085 36.4511 13.3092 35.313C13.3092 30.8862 10.5632 27.2933 7.17973 27.2933C3.79465 27.2933 1.05029 30.8862 1.05029 35.313C1.05029 39.751 3.79623 43.3439 7.17973 43.3439C8.31598 43.3439 9.36228 42.9092 10.2776 42.2071C13.8189 51.0079 18.8184 66.8441 16.2082 81.357C16.2082 81.357 19.9562 99.1374 50.0653 99.1073" fill="#FFCC08"/>
<path d="M51.4852 75.8491L54.1554 81.7966L60.1159 82.7452L55.7966 87.3677L56.8192 93.9005L51.4852 90.8119L46.1574 93.9005L47.1769 87.3677L42.8623 82.7452L48.8181 81.7966L51.4852 75.8491Z" fill="white"/>
<path d="M51.3873 78.9772C51.3529 77.9711 51.4036 76.9635 51.5388 75.9696L51.4899 75.8491L48.8213 81.7928L42.8623 82.7452L47.1706 87.3639L46.1559 93.9005L51.4899 90.8176L56.8161 93.9005L56.3868 91.1263C53.3458 87.9662 51.5373 83.579 51.3873 78.9772ZM72.3322 79.077L73.9735 82.7151L77.6221 83.3023L74.985 86.1311L75.5989 90.1419L72.3322 88.2598L69.0655 90.1419L69.6904 86.1311L67.0486 83.3023L70.7067 82.7151L72.3322 79.077Z" fill="white"/>
<path d="M72.2693 80.9912C72.2497 80.3747 72.2819 79.7574 72.3656 79.1486L72.334 79.0752L70.7007 82.7152L67.0473 83.3006L69.6891 86.1313L69.0689 90.142L72.334 88.2599L75.5992 90.142L75.3372 88.4406C73.4734 86.5001 72.364 83.805 72.2693 80.9912ZM30.5027 79.0771L32.1329 82.7152L35.7831 83.3024L33.1429 86.1313L33.7678 90.142L30.5027 88.2599L27.2359 90.142L27.8609 86.1313L25.2144 83.3024L28.8646 82.7152L30.5027 79.0771Z" fill="white"/>
<path d="M30.4364 80.9912C30.4107 80.3745 30.4441 79.7563 30.5358 79.1486L30.5027 79.0752L28.8646 82.7152L25.2144 83.3006L27.8546 86.1313L27.2344 90.142L30.5011 88.2599L33.7662 90.142L33.5011 88.4406C31.6373 86.5001 30.5295 83.805 30.4364 80.9912Z" fill="white"/>
</g>
<defs>
<clipPath id="clip0_2069_6141">
<rect width="101" height="120.455" fill="white" transform="translate(0.985352 0.0751953)"/>
</clipPath>
</defs>
</svg>
