<svg width="87" height="90" viewBox="0 0 87 90" fill="none" xmlns="http://www.w3.org/2000/svg">
<path d="M84.5712 59.4962H81.1448C81.0581 59.2693 80.9722 59.0529 80.8749 58.8373L83.285 56.4166V56.4158C84.2123 55.487 84.2123 53.9831 83.285 53.0542L77.0489 46.8181C76.2099 46.0227 74.926 45.9277 73.9791 46.5912C75.8096 38.6677 75.012 30.3629 71.707 22.9318C68.4019 15.5006 62.7695 9.34656 55.6597 5.3992C48.549 1.45108 40.3482 -0.0762932 32.2937 1.04772C24.2384 2.17101 16.7681 5.88459 11.0101 11.627C5.25183 17.3702 1.51851 24.8306 0.373464 32.8817C-0.771698 40.9333 0.733076 49.1385 4.66242 56.2593C8.59086 63.3805 14.7291 69.0295 22.1512 72.3542C29.5732 75.6796 37.8751 76.4992 45.8029 74.6905L44.3659 76.1606C43.9385 76.6167 43.7055 77.2213 43.7176 77.8463C43.71 78.4758 43.9603 79.0804 44.4089 79.5214L50.645 85.7681C51.5783 86.6841 53.0733 86.6841 54.0058 85.7681L56.438 83.336L57.0863 83.5953V87.033C57.0923 88.3432 58.1538 89.4047 59.464 89.4107H68.283C69.5985 89.4107 70.6661 88.3477 70.6721 87.033V83.6065L71.3204 83.3366L73.7412 85.7468C74.6768 86.6567 76.1672 86.6567 77.1028 85.7468L83.3495 79.5107C84.2768 78.5819 84.2768 77.078 83.3495 76.1491L80.9394 73.7283C81.0261 73.5119 81.1233 73.2963 81.2093 73.0694H84.5709C85.8811 73.0634 86.9426 72.0019 86.9486 70.6917V61.872C86.9426 60.5617 85.8811 59.5002 84.5709 59.495L84.5712 59.4962ZM84.7869 70.6931C84.7869 70.7504 84.7642 70.8054 84.7235 70.8454C84.6836 70.8861 84.6285 70.9087 84.5712 70.9087H80.3992C79.9175 70.8823 79.4765 71.1778 79.3182 71.6332C79.1056 72.268 78.853 72.8892 78.562 73.4923C78.3622 73.9047 78.4444 74.3985 78.7671 74.7241L81.7178 77.6749C81.7917 77.7661 81.7917 77.8965 81.7178 77.9877L75.5359 84.2238C75.4432 84.2947 75.315 84.2947 75.2223 84.2238L72.2716 81.2731V81.2738C71.9459 80.9504 71.4521 80.8682 71.0397 81.068C70.4404 81.359 69.8229 81.6116 69.1919 81.825C68.7358 81.9833 68.4411 82.4243 68.4674 82.9053V87.0344C68.4674 87.0932 68.4433 87.1498 68.4004 87.1913C68.3574 87.232 68.2993 87.2531 68.2405 87.2501H59.4216C59.3017 87.2501 59.2052 87.1536 59.2052 87.0344V82.8518C59.2323 82.3701 58.9368 81.9291 58.4814 81.7707C57.8527 81.5596 57.2383 81.3071 56.6435 81.0146C56.4957 80.9422 56.3329 80.9053 56.1685 80.906C55.8813 80.9045 55.6046 81.0176 55.4011 81.2196L52.4397 84.181C52.3515 84.2646 52.2136 84.2646 52.1261 84.181L45.8794 77.9991C45.8108 77.9094 45.8108 77.7858 45.8794 77.696L48.8407 74.7347C49.1725 74.4098 49.2591 73.91 49.0571 73.4923C48.7669 72.8945 48.5105 72.2808 48.2896 71.6551C48.1381 71.2223 47.731 70.9321 47.2734 70.9306H43.0908C43.032 70.9336 42.9739 70.9125 42.931 70.871C42.888 70.8303 42.8639 70.7738 42.8639 70.7142V61.8952C42.8639 61.7701 42.9656 61.6683 43.0908 61.6683H47.2734C47.7551 61.6955 48.1961 61.3999 48.3545 60.9446C48.5648 60.3158 48.8181 59.7014 49.1106 59.1066C49.3157 58.6912 49.2335 58.1914 48.9056 57.8642L45.8794 54.9029C45.8048 54.8116 45.8048 54.6805 45.8794 54.5892L52.1155 48.3425C52.1539 48.2965 52.2112 48.2694 52.2723 48.2694C52.3326 48.2694 52.3899 48.2965 52.4284 48.3425L55.3897 51.3039C55.7154 51.6265 56.2092 51.7087 56.6223 51.5089C57.2224 51.2209 57.8398 50.9684 58.4701 50.7528C58.9254 50.5944 59.221 50.1534 59.1946 49.6717V45.5539C59.1916 45.4951 59.2127 45.4371 59.2534 45.3941C59.2948 45.3511 59.3514 45.327 59.4102 45.327H68.2299C68.2887 45.327 68.3453 45.3511 68.3867 45.3941C68.4274 45.4371 68.4486 45.4951 68.4455 45.5539V49.7259C68.4448 50.1903 68.7403 50.6042 69.1806 50.7527C69.8116 50.9676 70.4283 51.2201 71.0291 51.5089C71.4415 51.7087 71.9353 51.6265 72.261 51.3038L75.2117 48.3425C75.2501 48.2965 75.3074 48.2693 75.3685 48.2693C75.4288 48.2693 75.4861 48.2965 75.5246 48.3425L81.7607 54.5786C81.8443 54.666 81.8443 54.804 81.7607 54.8914L78.8099 57.8422H78.8107C78.4873 58.1678 78.4051 58.6616 78.6049 59.074C78.8966 59.6764 79.1567 60.2931 79.3829 60.9226C79.5306 61.3591 79.9385 61.6538 80.3991 61.6576H84.5711C84.6284 61.6576 84.6835 61.6802 84.7234 61.7209C84.7641 61.7616 84.7867 61.8159 84.7867 61.8732L84.7869 70.6931ZM27.2682 71.9898L26.2738 71.6875L25.4739 71.3957C25.1498 71.2766 24.8256 71.1688 24.5014 71.0391L23.7121 70.7044L22.772 70.3048L22.0053 69.958L21.0863 69.5042L20.3294 69.0828L19.4541 68.5859L18.7085 68.1321L17.8543 67.581L17.1412 67.0729L16.3194 66.4788L15.6168 65.9383L14.8388 65.3005L14.158 64.7275L13.4562 64.0136L12.8078 63.3871C12.5703 63.1602 12.3321 62.9114 12.1052 62.6739C11.8783 62.4364 11.6838 62.2306 11.4787 62.0037C11.2736 61.7768 11.3166 61.8197 11.2299 61.7225C13.6364 60.2607 16.1951 59.0644 18.86 58.1559C21.1405 64.3168 24.4478 69.266 28.3817 72.3139L28.0469 72.2386L27.2682 71.9898ZM12.0614 13.757C12.2884 13.5195 12.5258 13.2813 12.7641 13.0544L13.423 12.4166C13.6604 12.1897 13.9092 11.9733 14.158 11.7577C14.4068 11.5413 14.6119 11.3468 14.8501 11.1523L15.6175 10.5145L16.342 9.95287L17.1313 9.37991L17.8883 8.86123L18.6987 8.332L19.4767 7.8563L20.3196 7.37004L21.1194 6.93806L21.9947 6.49477L22.7946 6.11632L23.7023 5.71676L24.524 5.37072L25.4528 5.11062L26.2745 4.81887L27.2471 4.51656L28.0793 4.26776L28.4035 4.18107C24.4697 7.22906 21.1623 12.179 18.8819 18.3391H18.8811C16.1919 17.4389 13.6113 16.2433 11.1862 14.7725C11.2729 14.6858 11.3482 14.5886 11.4349 14.4913L12.0614 13.757ZM47.7271 4.45171L48.6997 4.75402C48.9809 4.84072 49.2508 4.94852 49.5214 5.04577L50.4615 5.39181L51.2832 5.73786L52.1909 6.13742L53.0014 6.51586L53.8766 6.95916L54.666 7.39114L55.5201 7.87739L56.2876 8.35309L57.1093 8.88232L57.8549 9.401L58.6442 9.97397L59.3687 10.5356L60.1256 11.1516L60.8283 11.7569L61.5528 12.4158L62.223 13.0536C62.4605 13.2806 62.6874 13.518 62.915 13.7563C63.142 13.9937 63.347 14.1995 63.5528 14.4265H63.5498C63.6267 14.5252 63.7104 14.6195 63.7986 14.7077C61.3719 16.174 58.7913 17.3704 56.1037 18.2742C53.8126 12.1134 50.5052 7.16421 46.582 4.11622L46.9062 4.20292L47.7271 4.45171ZM71.0179 49.1419L70.6071 48.9693L70.6078 45.5534C70.6078 44.2387 69.5448 43.1711 68.2301 43.1651H59.2701C59.3673 41.8895 59.4321 40.5929 59.454 39.2849H72.7368C72.6312 42.6351 72.0522 45.9539 71.0179 49.142L71.0179 49.1419ZM44.3555 56.426L46.7876 58.8685C46.7009 59.0736 46.6037 59.29 46.5283 59.5063H43.0912C41.7719 59.5063 40.7029 60.5754 40.7029 61.8947V70.7136C40.7134 71.506 41.119 72.2395 41.7832 72.67C40.7459 73.0854 39.6543 73.3515 38.5415 73.4594V55.237C40.3139 55.237 42.0652 55.3667 43.7832 55.5393V55.5401C43.9016 55.8763 44.0976 56.1801 44.3554 56.4259L44.3555 56.426ZM38.5625 37.1453V23.3868C44.0502 23.3189 49.5031 22.5123 54.7742 20.987C56.3951 26.241 57.2463 31.7014 57.3034 37.1987L38.5625 37.1453ZM38.5625 21.2254V3.00308C45.0476 3.62956 50.7107 9.8228 54.0715 18.945C49.0264 20.3917 43.8111 21.1584 38.5625 21.2254ZM36.4012 21.2254C31.1534 21.1583 25.9371 20.3916 20.8922 18.945C24.2644 9.8228 29.9171 3.63032 36.4012 3.00308V21.2254ZM36.4012 23.3868V37.1453H17.6714C17.7303 31.6659 18.5784 26.2244 20.1895 20.987C25.4614 22.5114 30.9143 23.3181 36.4012 23.3868ZM36.4012 39.3066V53.0758C30.9143 53.1353 25.4606 53.939 20.1895 55.4641C18.5716 50.2102 17.7228 44.7497 17.6714 39.2524L36.4012 39.3066ZM36.4012 55.2371V73.4594C29.9161 72.833 24.253 66.6291 20.8922 57.5176C25.935 56.0611 31.1526 55.2937 36.4012 55.2371ZM44.0855 53.3893C42.2701 53.2054 40.4217 53.1082 38.5625 53.0757V39.3066H57.293C57.2357 42.6238 56.9108 45.931 56.3197 49.1954L53.9532 46.8288C53.0131 45.9294 51.5317 45.9294 50.5916 46.8288L44.3555 53.0649C44.2537 53.1622 44.1633 53.2707 44.0856 53.3891L44.0855 53.3893ZM72.7377 37.1777H59.4549C59.3901 31.4654 58.4945 25.7932 56.796 20.3387C59.7317 19.3526 62.5421 18.0288 65.1725 16.3943C69.8474 22.3245 72.4988 29.5972 72.7377 37.1452V37.1777ZM18.168 20.3387C16.4672 25.781 15.5717 31.4436 15.5099 37.1452H2.22712C2.45931 29.5958 5.11145 22.3214 9.79238 16.3943C12.4235 18.0264 15.2339 19.3494 18.168 20.3387ZM2.22692 39.3066H15.5097C15.57 45.0083 16.4656 50.6708 18.1678 56.1123C15.2277 57.0999 12.4135 58.4275 9.78157 60.068C5.10585 54.1341 2.45833 46.8576 2.22673 39.3074L2.22692 39.3066Z" fill="#BCBCBC"/>
<path d="M63.8319 53.5095C60.441 53.5095 57.1886 54.8567 54.7912 57.2548C52.393 59.6522 51.0459 62.9044 51.0459 66.2955C51.0459 69.6865 52.3931 72.9388 54.7912 75.3362C57.1886 77.7344 60.4408 79.0808 63.8319 79.0808C67.2228 79.0808 70.4752 77.7343 72.8726 75.3362C75.2708 72.9388 76.6171 69.6867 76.6171 66.2955C76.6171 62.9046 75.2707 59.6522 72.8726 57.2548C70.4752 54.8566 67.223 53.5095 63.8319 53.5095ZM53.208 66.2955C53.208 63.4774 54.3268 60.7754 56.3193 58.783C58.3118 56.7905 61.0138 55.6717 63.8319 55.6717C66.6493 55.6717 69.352 56.7904 71.3445 58.783C73.3362 60.7754 74.4558 63.4774 74.4558 66.2955C74.4558 69.1129 73.3362 71.8156 71.3445 73.8081C69.352 75.7998 66.6493 76.9194 63.8319 76.9194C61.0153 76.9164 58.3141 75.7961 56.3224 73.8042C54.3307 71.8125 53.2104 69.1121 53.208 66.2955Z" fill="#BCBCBC"/>
</svg>
