<svg width="89" height="90" viewBox="0 0 89 90" fill="none" xmlns="http://www.w3.org/2000/svg">
<path d="M88.8549 30.9174C88.8658 23.0667 85.8018 15.5239 80.3189 9.90566C74.8361 4.28679 67.3705 1.03824 59.5214 0.857389C51.6727 0.675986 44.0655 3.57648 38.3282 8.93667C32.5918 14.2962 29.1828 21.6902 28.8323 29.533C27.8639 29.5758 26.8995 29.6576 25.942 29.7917C26.8502 28.1221 27.328 26.2519 27.3312 24.3504V24.1243C27.3778 21.6274 26.5072 19.1997 24.8842 17.3013C23.2618 15.4031 20.9987 14.1651 18.5249 13.8229C15.6794 13.4773 12.8217 14.3671 10.6755 16.2679C8.52941 18.1681 7.30109 20.8973 7.30043 23.7641V24.3504C7.30043 27.0829 8.2777 29.7247 10.056 31.7994L12.8191 35.0244C7.24876 38.9672 3.1877 44.6903 1.30466 51.25C-0.578384 57.8091 -0.171444 64.8147 2.45884 71.1122C5.0885 77.4101 9.78514 82.624 15.7745 85.8956C21.7633 89.1672 28.6885 90.3015 35.4078 89.1123C42.1279 87.9229 48.2424 84.4802 52.7437 79.3512C57.2461 74.2222 59.8674 67.7129 60.1759 60.8953C67.8919 60.5408 75.1752 57.2289 80.5156 51.647C85.8547 46.0657 88.8408 38.6425 88.8529 30.9182L88.8549 30.9174ZM60.2397 12.3175V9.52876C64.9294 9.83727 69.3858 11.6852 72.9179 14.7854L70.6746 17.0287L72.6975 19.0516L74.9407 16.8083C78.0412 20.3405 79.889 24.7968 80.1974 29.4864H77.4087V32.348H80.1974C79.8359 37.6813 77.4968 42.6883 73.6383 46.3879C69.7799 50.0874 64.6795 52.2144 59.3352 52.3511C58.0168 47.0401 55.2754 42.1889 51.406 38.3195C47.5366 34.4495 42.6861 31.708 37.3749 30.389C37.5123 25.0454 39.6386 19.9458 43.3388 16.0872C47.0384 12.2286 52.0447 9.89029 57.3781 9.52876V12.3175H60.2397ZM50.2244 41.2188V44.6328L48.2016 46.6557H45.0935L42.6509 44.2131H42.6516C42.3833 43.9448 42.0192 43.7941 41.6398 43.7941H38.7783C38.3989 43.7941 38.0348 43.9448 37.7665 44.2131L35.3246 46.6557H32.2165L29.355 43.7942L31.2047 41.9445H31.2053C31.4736 41.6762 31.6243 41.3121 31.6243 40.9327V38.0712C31.6243 37.6918 31.4736 37.3277 31.2053 37.0595L28.7627 34.6175V32.3954C29.2392 32.3711 29.7157 32.3481 30.1935 32.3481C33.9658 32.3507 37.696 33.1408 41.1457 34.6681C44.5949 36.1959 47.687 38.4269 50.2241 41.2188L50.2244 41.2188ZM10.1632 24.3506V23.7642C10.1632 21.7203 11.0377 19.7735 12.5654 18.4162C13.8685 17.2486 15.5586 16.6047 17.3087 16.6105C17.6031 16.6105 17.8982 16.6277 18.1914 16.6622C19.9613 16.9413 21.5709 17.8496 22.7245 19.2209C23.8781 20.5916 24.4983 22.3334 24.4709 24.1244V24.3505C24.4709 26.4001 23.7382 28.3815 22.4045 29.9381L17.3171 35.8739L12.2296 29.9381C10.896 28.3815 10.1633 26.4001 10.1633 24.3505L10.1632 24.3506ZM3.00945 59.5325C3.01009 57.1162 3.33072 54.7108 3.96371 52.3787H7.30171C7.68111 52.3787 8.04519 52.228 8.31345 51.9597L10.7554 49.5171H13.8628L17.3171 52.9707V56.6709C17.3171 57.0503 17.4678 57.4144 17.7361 57.6827L22.0284 61.9749C22.2966 62.2432 22.6607 62.3939 23.0401 62.3939H26.7403L28.7631 64.4168V67.5242L25.9016 70.3857L24.052 68.5361C23.7837 68.2678 23.4196 68.1171 23.0402 68.1171H18.7479C18.3685 68.1171 18.0044 68.2678 17.7362 68.5361L14.8747 71.3976C14.6064 71.6658 14.4557 72.0299 14.4557 72.4093V76.1095L12.4328 78.1324H10.4298C5.66868 73.1093 3.01352 66.4531 3.0096 59.5325H3.00945ZM30.1938 86.7169C24.1196 86.7169 18.2227 84.6703 13.4532 80.9084C13.671 80.8451 13.8703 80.7308 14.0338 80.5749L16.8953 77.7134C17.1642 77.4452 17.3156 77.0811 17.3162 76.7017V73.0015L19.3391 70.9786H22.4465L24.8891 73.4212C25.448 73.9795 26.3537 73.9795 26.9126 73.4212L31.2049 69.129C31.4731 68.8607 31.6239 68.4966 31.6239 68.1172V63.8249C31.6239 63.4455 31.4731 63.0814 31.2049 62.8132L28.3433 59.9517C28.0751 59.6834 27.711 59.5327 27.3316 59.5327H23.6314L20.1778 56.0791V52.3789C20.1778 51.9995 20.0271 51.6354 19.7588 51.3671L15.4665 47.0748C15.1983 46.8066 14.8342 46.6558 14.4548 46.6558H10.1625C9.7831 46.6558 9.41901 46.8066 9.15075 47.0748L6.70882 49.5174H4.90573C6.87871 44.5379 10.2851 40.2551 14.6936 37.2129L16.2304 39.0039C16.5018 39.3214 16.8985 39.5034 17.3162 39.5034C17.7339 39.5034 18.1306 39.3214 18.402 39.0039L23.3521 33.2292C24.1914 33.012 25.0409 32.8358 25.9 32.701L25.9007 35.2099C25.9007 35.5893 26.0514 35.9534 26.3197 36.2217L28.7623 38.6636V40.3403L26.3197 42.7829C25.7614 43.3418 25.7614 44.2475 26.3197 44.8064L30.612 49.0987C30.8802 49.3669 31.2443 49.5177 31.6237 49.5177H35.916C36.2954 49.5177 36.6595 49.3669 36.9277 49.0987L39.3697 46.6561H41.0463L43.4889 49.0987C43.7572 49.3669 44.1213 49.5177 44.5007 49.5177H48.793C49.1724 49.5177 49.5364 49.3669 49.8047 49.0987L52.6662 46.2372C52.9345 45.9689 53.0852 45.6048 53.0852 45.2254V44.931C55.0876 48.0608 56.4219 51.5705 57.0039 55.2407H53.0852C52.7058 55.2407 52.3417 55.3915 52.0735 55.6598L49.6315 58.1023H47.3621C46.9827 58.1023 46.6186 58.2531 46.3504 58.5214L43.4888 61.3829C43.2206 61.6511 43.0698 62.0152 43.0698 62.3946V65.2561C43.0698 65.6355 43.2206 65.9996 43.4888 66.2679L45.9314 68.7098V70.9792C45.9314 71.3586 46.0822 71.7227 46.3504 71.991L48.793 74.4329V76.7024C48.7981 77.4005 49.3136 77.99 50.0047 78.089C47.4715 80.8094 44.405 82.9798 40.9967 84.4642C37.5884 85.9486 33.9106 86.7158 30.1932 86.7176L30.1938 86.7169ZM52.3174 75.2708H51.6551V73.8401C51.6551 73.4607 51.5043 73.0966 51.2361 72.8283L48.7935 70.3864V68.117C48.7935 67.7376 48.6427 67.3735 48.3745 67.1052L45.9319 64.6633V62.986L47.9547 60.9631H50.2242C50.6036 60.9631 50.9676 60.8124 51.2359 60.5441L53.6778 58.1015H57.3046C57.3302 58.578 57.3774 59.0488 57.3774 59.5323H57.3781C57.3781 65.1786 55.6082 70.6825 52.3174 75.2706L52.3174 75.2708ZM60.1636 58.0331C60.1156 57.0705 60.0243 56.1214 59.8889 55.1856V55.1863C66.2066 54.9091 72.1679 52.181 76.5069 47.5808C80.846 42.9807 83.2212 36.8699 83.1286 30.5475C83.0367 24.2247 80.4836 18.1867 76.012 13.7152C71.5402 9.24341 65.5024 6.69045 59.1797 6.59855C52.8569 6.50594 46.7462 8.88139 42.1464 13.2203C37.5465 17.5591 34.8183 23.5204 34.5409 29.8383C33.6052 29.7016 32.6561 29.6103 31.6935 29.5637H31.6941C32.041 22.5211 35.1126 15.8897 40.2589 11.0701C45.4059 6.25081 52.2243 3.62181 59.2741 3.73742C66.3243 3.85303 73.0528 6.70489 78.0374 11.691C83.0233 16.6762 85.8754 23.4053 85.991 30.4543C86.1072 37.5039 83.4776 44.3224 78.6583 49.4695C73.839 54.6158 67.2078 57.6874 60.1664 58.0349L60.1636 58.0331Z" fill="#BCBCBC"/>
<path d="M41.2223 71.3972C40.9541 71.129 40.59 70.9782 40.2106 70.9782H37.3491C36.9697 70.9782 36.6056 71.129 36.3373 71.3972L33.8954 73.8398H31.6259C31.2465 73.8398 30.8825 73.9905 30.6142 74.2588L27.7527 77.1203C27.1944 77.6792 27.1944 78.5849 27.7527 79.1438L30.6142 82.0053C30.8825 82.2736 31.2465 82.4244 31.6259 82.4244H40.2105C40.5899 82.4244 40.954 82.2736 41.2222 82.0053L44.0838 79.1438C44.352 78.8756 44.5028 78.5115 44.5028 78.1321V75.2706C44.5028 74.8912 44.352 74.5271 44.0838 74.2588L41.2223 71.3972ZM41.6413 77.5398L39.6185 79.5627H32.2181L30.7874 78.1319L32.2181 76.7012H34.4875C34.8669 76.7012 35.231 76.5504 35.4993 76.2822L37.9412 73.8396H39.6179L41.6414 75.8624L41.6413 77.5398Z" fill="#BCBCBC"/>
<path d="M34.4856 60.9633H38.7779C39.1573 60.9633 39.5214 60.8126 39.7897 60.5443C40.0579 60.2761 40.2087 59.912 40.2087 59.5326V56.6711C40.2087 56.2917 40.0579 55.9276 39.7897 55.6593L36.9281 52.7978C36.6599 52.5295 36.2958 52.3788 35.9164 52.3788H31.6241C30.834 52.3788 30.1934 53.0194 30.1934 53.8095V56.6711C30.1934 57.0505 30.3441 57.4145 30.6124 57.6828L33.4739 60.5443C33.7421 60.8126 34.1062 60.9633 34.4856 60.9633ZM33.0549 55.2403H35.3243L37.3471 57.2631V58.1018H35.0777L33.0549 56.079V55.2403Z" fill="#BCBCBC"/>
<path d="M10.5814 60.5447C10.8497 60.813 11.2137 60.9637 11.5931 60.9637H13.8626L16.3052 63.4063L18.328 61.3835L15.4665 58.522V58.5213C15.1982 58.2531 14.8341 58.1023 14.4547 58.1023H12.1853L9.74338 55.6597C9.47512 55.3915 9.11104 55.2407 8.73163 55.2407H5.87012V58.1022H8.13954L10.5814 60.5447Z" fill="#BCBCBC"/>
<path d="M44.9194 17.0284C44.4838 17.464 44.3759 18.1289 44.6505 18.6795L51.8043 32.9871C52.01 33.3991 52.4015 33.6865 52.8563 33.76C52.9317 33.7728 53.0083 33.7785 53.085 33.7785C53.4644 33.7785 53.8284 33.6278 54.0967 33.3595L54.5157 32.9399L56.7851 35.2093L56.3661 35.6283H56.3655C56.0417 35.954 55.8928 36.4146 55.9669 36.8681C56.0404 37.3216 56.3272 37.7118 56.7379 37.9175L71.0454 45.0713C71.596 45.3517 72.2648 45.2463 72.703 44.8107C73.1412 44.3744 73.2498 43.7063 72.9725 43.1544L65.8188 28.8469C65.6131 28.4362 65.2228 28.1494 64.7693 28.0759C64.3158 28.0018 63.8546 28.1506 63.5295 28.4745L63.1003 28.8941L60.8309 26.6247L61.2499 26.2057H61.2505C61.5744 25.8799 61.7232 25.4194 61.6491 24.9659C61.5756 24.5124 61.2889 24.1222 60.8782 23.9165L46.5706 16.7627C46.0206 16.4868 45.3557 16.5941 44.9194 17.0284L44.9194 17.0284ZM68.4852 40.5942L59.7921 36.2476L64.1387 31.901L68.4852 40.5942ZM61.0772 30.9167L58.8077 33.1861L56.5383 30.9167L58.8077 28.6473L61.0772 30.9167ZM57.8235 25.5858L53.477 29.9323L49.1304 21.2392L57.8235 25.5858Z" fill="#BCBCBC"/>
<path d="M21.6098 23.7636C21.6098 22.6254 21.1576 21.5331 20.3527 20.7284C19.5479 19.9237 18.4556 19.4714 17.3176 19.4714C16.1795 19.4714 15.0871 19.9236 14.2824 20.7284C13.4778 21.5332 13.0254 22.6255 13.0254 23.7636C13.0254 24.9016 13.4776 25.9941 14.2824 26.7987C15.0872 27.6034 16.1795 28.0558 17.3176 28.0558C18.4556 28.0558 19.5481 27.6035 20.3527 26.7987C21.1574 25.9939 21.6098 24.9016 21.6098 23.7636ZM15.8867 23.7636C15.8867 23.1849 16.2355 22.663 16.7701 22.442C17.3047 22.2204 17.9198 22.3424 18.3292 22.7518C18.7387 23.1612 18.8607 23.7763 18.639 24.311C18.418 24.8456 17.8962 25.1943 17.3175 25.1943C16.5274 25.1943 15.8867 24.5537 15.8867 23.7636Z" fill="#BCBCBC"/>
</svg>
